<svg xmlns="http://www.w3.org/2000/svg" viewBox="0 0 12 11.4"><path d="M3.9,4.9a.8.8,0,1,1-.8-.8C3.6,4.2,3.9,4.5,3.9,4.9Z" fill="#fff" fill-rule="evenodd"/><path d="M6.7,4.9a.8.8,0,1,1-.8-.8C6.4,4.2,6.7,4.5,6.7,4.9Z" fill="#fff" fill-rule="evenodd"/><path d="M9.5,4.9a.8.8,0,1,1-.8-.8C9.1,4.2,9.5,4.5,9.5,4.9Z" fill="#fff" fill-rule="evenodd"/><path d="M7.9,8.7,9.7,9.8,9.3,8l.2-.2A3.66,3.66,0,0,0,11,4.9C11,2.6,8.7.8,5.8.8S.6,2.6.6,4.9,2.9,9,5.8,9a5.53,5.53,0,0,0,1.8-.3ZM11,11.4,7.9,9.6A5.81,5.81,0,0,1,6,9.8c-3.3,0-6-2.2-6-4.9S2.7,0,6,0s6,2.2,6,4.9a4.55,4.55,0,0,1-1.6,3.4Z" fill="#fff" fill-rule="evenodd"/></svg>