<svg xmlns="http://www.w3.org/2000/svg" viewBox="0 0 13 9.5"><path d="M12.85,2.7a8.82,8.82,0,0,0-12.7,0,.75.75,0,0,0,0,.9.56.56,0,0,0,.9,0A7.55,7.55,0,0,1,12,3.6a.56.56,0,0,0,.9,0,.75.75,0,0,0,0-.9Z" fill="#fff" fill-rule="evenodd"/><path d="M2.05,4.3a.75.75,0,0,0,0,.9.56.56,0,0,0,.9,0,5.07,5.07,0,0,1,7.2,0,.56.56,0,0,0,.9,0,.75.75,0,0,0,0-.9,6.17,6.17,0,0,0-9,0Z" fill="#fff" fill-rule="evenodd"/><path d="M6.45,4.9A3.63,3.63,0,0,0,3.85,6a.76.76,0,0,0-.2.4.52.52,0,0,0,.2.4.5.5,0,0,0,.8,0A2.5,2.5,0,0,1,6.45,6a2.5,2.5,0,0,1,1.8.8.61.61,0,0,0,.8,0,.76.76,0,0,0,.2-.4.52.52,0,0,0-.2-.4,3.63,3.63,0,0,0-2.6-1.1Z" fill="#fff" fill-rule="evenodd"/><path d="M6.45,7.3a1,1,0,0,0-1,1.1,1.1,1.1,0,0,0,1,1.1,1,1,0,0,0,1-1.1,1,1,0,0,0-1-1.1Z" fill="#fff" fill-rule="evenodd"/></svg>