<?xml version="1.0" encoding="UTF-8"?><!DOCTYPE svg PUBLIC "-//W3C//DTD SVG 1.1//EN" "http://www.w3.org/Graphics/SVG/1.1/DTD/svg11.dtd"><svg xmlns="http://www.w3.org/2000/svg" xml:space="preserve" width="41.121mm" height="41.121mm" version="1.1" style="shape-rendering:geometricPrecision; text-rendering:geometricPrecision; image-rendering:optimizeQuality; fill-rule:evenodd; clip-rule:evenodd" viewBox="0 0 1774 1774" xmlns:xlink="http://www.w3.org/1999/xlink"> <defs>  <style type="text/css">   <![CDATA[    .str0 {stroke:#FEFEFE;stroke-width:3.28691}    .fil0 {fill:#FEFEFE;fill-rule:nonzero}   ]]>  </style> </defs> <g id="Слой_x0020_1">  <metadata id="CorelCorpID_0Corel-Layer"/>  <path class="fil0" d="M887 0c245,0 467,99 627,260 160,160 260,382 260,627 0,245 -99,467 -260,627 -160,160 -382,260 -627,260 -245,0 -467,-99 -627,-260 -160,-160 -260,-382 -260,-627 0,-245 99,-467 260,-627 160,-160 382,-260 627,-260zm597 290c-153,-153 -364,-247 -597,-247 -233,0 -444,94 -597,247 -153,153 -247,364 -247,597 0,233 94,444 247,597 153,153 364,247 597,247 233,0 444,-94 597,-247 153,-153 247,-364 247,-597 0,-233 -94,-444 -247,-597z"/>  <path class="fil0 str0" d="M866 1287c0,-3 1,-5 2,-8 -34,-2 -67,-8 -97,-16 -49,-13 -91,-31 -119,-48 -10,-6 -13,-19 -7,-28 6,-10 19,-13 28,-7 25,15 63,32 108,43 37,10 79,16 123,16 62,0 118,-16 157,-44 36,-25 59,-60 59,-100 0,-40 -13,-71 -47,-99 -37,-31 -99,-58 -193,-91 -98,-34 -164,-64 -205,-98 -45,-37 -62,-77 -62,-131 0,-55 29,-101 77,-134 46,-32 108,-51 177,-51l0 -148c0,-11 9,-21 21,-21 11,0 21,9 21,21l0 150c34,3 66,8 95,16 49,13 91,31 119,48 10,6 13,19 7,28 -6,10 -19,13 -28,7 -25,-15 -63,-32 -108,-43 -37,-10 -79,-16 -123,-16l0 0c-62,0 -118,16 -158,44 -36,25 -59,60 -59,100 0,40 13,71 47,99 37,31 99,58 193,91 98,34 164,64 205,98 45,37 62,77 62,131 0,55 -29,101 -77,134 -46,32 -109,51 -178,51 1,2 1,4 1,7l0 142c0,11 -9,21 -21,21 -11,0 -21,-9 -21,-21l0 -142z"/> </g></svg>