<?xml version="1.0" encoding="UTF-8"?><!DOCTYPE svg PUBLIC "-//W3C//DTD SVG 1.1//EN" "http://www.w3.org/Graphics/SVG/1.1/DTD/svg11.dtd"><svg xmlns="http://www.w3.org/2000/svg" xml:space="preserve" width="41.121mm" height="41.121mm" version="1.1" style="shape-rendering:geometricPrecision; text-rendering:geometricPrecision; image-rendering:optimizeQuality; fill-rule:evenodd; clip-rule:evenodd" viewBox="0 0 1573 1573" xmlns:xlink="http://www.w3.org/1999/xlink"> <defs>  <style type="text/css">   <![CDATA[    .str0 {stroke:#FEFEFE;stroke-width:2.91431}    .fil0 {fill:#FEFEFE;fill-rule:nonzero}   ]]>  </style> </defs> <g id="Слой_x0020_1">  <metadata id="CorelCorpID_0Corel-Layer"/>  <path class="fil0" d="M786 0c217,0 414,88 556,230 142,142 230,339 230,556 0,217 -88,414 -230,556 -142,142 -339,230 -556,230 -217,0 -414,-88 -556,-230 -142,-142 -230,-339 -230,-556 0,-217 88,-414 230,-556 142,-142 339,-230 556,-230zm529 257c-135,-135 -322,-219 -529,-219 -207,0 -394,84 -529,219 -135,135 -219,322 -219,529 0,207 84,394 219,529 135,135 322,219 529,219 207,0 394,-84 529,-219 135,-135 219,-322 219,-529 0,-207 -84,-394 -219,-529z"/>  <path class="fil0 str0" d="M1054 421c8,5 10,15 5,23 -5,8 -15,10 -23,5 -31,-20 -65,-36 -101,-46 -34,-10 -71,-16 -108,-16 -109,0 -208,45 -279,117 -53,54 -91,123 -107,201l578 0c9,0 16,7 16,16 0,9 -7,16 -16,16l-584 0c-2,16 -3,33 -3,49 0,32 4,63 11,93l576 0c9,0 16,7 16,16 0,9 -7,16 -16,16l-567 0c20,60 53,113 96,157 72,72 170,117 279,117l0 0c38,0 74,-6 108,-16 36,-11 70,-27 101,-46 8,-5 18,-3 23,5 5,8 3,18 -5,23 -34,22 -71,39 -110,50 -37,11 -77,17 -118,17l0 0c-118,0 -225,-48 -303,-127 -49,-50 -86,-111 -107,-180l-100 0c-9,0 -16,-7 -16,-16 0,-9 7,-16 16,-16l92 0c-7,-30 -10,-61 -10,-93 0,-17 1,-33 3,-49l-84 0c-9,0 -16,-7 -16,-16 0,-9 7,-16 16,-16l89 0c16,-86 58,-164 118,-224 77,-78 184,-127 303,-127 41,0 80,6 118,17 39,12 76,29 110,50z"/> </g></svg>