<?xml version="1.0" encoding="UTF-8"?>
<!DOCTYPE svg PUBLIC "-//W3C//DTD SVG 1.1//EN" "http://www.w3.org/Graphics/SVG/1.1/DTD/svg11.dtd">
<!-- Creator: CorelDRAW X6 -->
<svg xmlns="http://www.w3.org/2000/svg" xml:space="preserve" width="93.451mm" height="27.6891mm" version="1.1" style="shape-rendering:geometricPrecision; text-rendering:geometricPrecision; image-rendering:optimizeQuality; fill-rule:evenodd; clip-rule:evenodd" viewBox="0 0 95800 28385" xmlns:xlink="http://www.w3.org/1999/xlink">
 <defs>
  <style type="text/css">
   <![CDATA[
    .fil2 {fill:none;fill-rule:nonzero}
    .fil0 {fill:#FEFEFE;fill-opacity:0.501961}
    .fil1 {fill:#FEFEFE;fill-rule:nonzero;fill-opacity:0.501961}
   ]]>
  </style>
 </defs>
 <g id="Слой_x0020_1">
  <metadata id="CorelCorpID_0Corel-Layer"/>
  <path class="fil0" d="M92391 28385l-89035 0c-1851,0 -3356,-1510 -3356,-3359l0 -21673c0,-1849 1506,-3353 3356,-3353l89035 0c1849,0 3408,1504 3408,3353l0 21673c0,1849 -1559,3359 -3408,3359l0 0zm2721 -3358c0,1502 -1216,2718 -2721,2718l-89036 0c-1504,0 -2725,-1216 -2725,-2718l0 -21674c0,-1501 1221,-2721 2725,-2721l89035 0c1505,0 2721,1220 2721,2721l0 21674 1 0z"/>
  <path class="fil1" d="M33222 10118c36,108 100,115 201,115l659 0c100,0 122,-79 93,-150l-1555 -4530c-93,-279 -179,-344 -480,-344l-308 0c-272,7 -366,64 -459,344l-1548 4530c-29,79 0,150 100,150l659 0c115,0 158,-36 186,-122l315 -975 1820 0 315 982zm-1548 -2949l294 -994 36 0 301 1015 373 1201 -1376 0 373 -1222zm4400 -68c803,0 1018,358 1018,1104l0 1906c0,100 43,122 136,122l566 0c108,0 136,-14 136,-122l0 -1892c0,-1326 -566,-1835 -1835,-1835 -251,0 -738,36 -939,64 -387,65 -480,251 -480,595l0 3067c0,100 43,122 136,122l559 0c107,0 136,-14 136,-122l0 -2967c258,-43 466,-43 566,-43zm2565 1304c0,1140 451,1906 1727,1906 330,0 1634,-79 1634,-437l0 -4752c0,-108 -43,-122 -136,-122l-559 0c-107,0 -143,14 -143,122l0 1355c-308,-79 -581,-86 -767,-86 -1233,0 -1756,939 -1756,2014zm867 0c0,-932 409,-1297 968,-1297 193,0 394,14 688,86l0 2301c-165,64 -480,108 -681,108 -616,0 -975,-315 -975,-1197zm4250 1706l0 -2946c108,-22 222,-29 337,-29 380,0 702,136 975,373 64,43 108,72 158,-7l330 -473c29,-43 43,-86 -22,-136 -437,-358 -996,-502 -1577,-502 -179,0 -358,14 -530,36 -409,57 -502,229 -502,609l0 3075c0,100 43,122 136,122l552 0c108,0 143,-14 143,-122zm5368 -1777c0,-1211 -595,-1949 -1734,-1949 -1025,0 -1742,717 -1742,1971 0,1268 566,1957 1720,1957 1161,0 1756,-717 1756,-1978zm-853 22c0,667 -222,1254 -896,1254 -659,0 -882,-487 -882,-1276 0,-709 294,-1247 910,-1247 695,0 867,581 867,1268zm2644 -2867c0,-287 -229,-516 -516,-516 -287,0 -516,229 -516,516 0,287 229,516 516,516 287,0 516,-229 516,-516zm-108 4623l0 -3519c0,-108 -36,-122 -143,-122l-552 0c-93,0 -136,22 -136,122l0 3519c0,100 43,122 136,122l552 0c108,0 143,-14 143,-122zm853 -1706c0,1140 451,1906 1727,1906 330,0 1634,-79 1634,-437l0 -4752c0,-108 -43,-122 -136,-122l-559 0c-107,0 -143,14 -143,122l0 1355c-308,-79 -581,-86 -767,-86 -1233,0 -1756,939 -1756,2014zm867 0c0,-932 409,-1297 968,-1297 193,0 394,14 688,86l0 2301c-165,64 -480,108 -681,108 -616,0 -975,-315 -975,-1197zm8421 1419l0 -2150c0,-831 -452,-1290 -1441,-1290 -416,0 -932,57 -1333,208 -72,29 -86,72 -64,150l100 409c22,86 65,100 165,72 236,-72 674,-143 996,-143 616,0 738,265 738,631l0 122 -803 0c-1140,0 -1562,616 -1562,1283 0,652 344,1197 1605,1197 459,0 1039,-57 1462,-251 100,-50 136,-122 136,-236zm-846 -301c-251,93 -609,115 -745,115 -459,0 -760,-143 -760,-552 0,-573 502,-616 817,-616l688 0 0 1054zm2537 681c330,79 595,100 853,100 1132,0 1677,-889 1677,-1957 0,-1096 -495,-1957 -1742,-1957 -473,0 -1039,64 -1512,272 -93,43 -115,86 -115,172l0 4730c0,100 43,122 136,122l566 0c107,0 136,-14 136,-122l0 -1362zm1663 -1863c0,932 -401,1247 -960,1247 -193,0 -409,-22 -702,-100l0 -2279c172,-57 473,-100 667,-100 616,0 996,323 996,1233zm2415 1863c330,79 595,100 853,100 1132,0 1677,-889 1677,-1957 0,-1096 -495,-1957 -1742,-1957 -473,0 -1039,64 -1512,272 -93,43 -115,86 -115,172l0 4730c0,100 43,122 136,122l566 0c107,0 136,-14 136,-122l0 -1362zm1663 -1863c0,932 -401,1247 -960,1247 -193,0 -409,-22 -702,-100l0 -2279c172,-57 473,-100 667,-100 616,0 996,323 996,1233zm6916 -7c0,-1211 -595,-1949 -1734,-1949 -1025,0 -1742,717 -1742,1971 0,1268 566,1957 1720,1957 1161,0 1756,-717 1756,-1978zm-853 22c0,667 -222,1254 -896,1254 -659,0 -882,-487 -882,-1276 0,-709 294,-1247 910,-1247 695,0 867,581 867,1268zm2960 -1254c803,0 1018,358 1018,1104l0 1906c0,100 43,122 136,122l566 0c108,0 136,-14 136,-122l0 -1892c0,-1326 -566,-1835 -1835,-1835 -251,0 -738,36 -939,64 -387,65 -480,251 -480,595l0 3067c0,100 43,122 136,122l559 0c107,0 136,-14 136,-122l0 -2967c258,-43 466,-43 566,-43z"/>
  <path class="fil1" d="M85595 24440l-115 -937 -35 -285 277 75c103,27 201,49 291,63l1 1c83,13 164,20 239,20 102,0 190,-9 266,-24 71,-14 132,-37 182,-65l1 -1c54,-29 104,-66 146,-106 44,-42 84,-89 117,-141l-1 -1c27,-44 66,-126 112,-240 45,-111 105,-271 179,-480l0 -1 5 -14 1 0 60 -168 -2244 -5931 -99 -262 280 0 1083 0 135 0 47 128 1247 3451c85,227 164,455 235,681l0 1 19 60 9 -29c70,-226 146,-452 228,-677l1275 -3487 47 -128 135 0 1012 0 278 0 -97 261 -2260 6083c-122,327 -231,606 -327,833 -98,234 -183,416 -255,545 -96,177 -202,333 -312,463 -115,136 -239,248 -370,336l0 1c-133,88 -281,156 -440,199 -158,44 -325,66 -502,66 -108,0 -225,-12 -346,-34 -118,-21 -241,-55 -370,-98l-116 -39 -15 -120z"/>
  <path class="fil1" d="M83193 21728c-105,78 -208,150 -311,213 -193,120 -384,216 -569,287 -184,70 -376,124 -576,158 -197,35 -402,52 -612,52 -347,0 -658,-43 -930,-129 -278,-88 -517,-222 -714,-401 -197,-177 -346,-383 -446,-613 -99,-230 -149,-483 -149,-756 0,-159 19,-315 56,-464l0 -1c37,-148 94,-293 168,-429l1 -1c74,-132 160,-253 258,-361 99,-109 208,-204 326,-284l1 -1c116,-78 240,-148 372,-208 131,-60 270,-110 414,-150l3 -1c106,-27 237,-54 392,-80 157,-26 336,-52 536,-77l1 0c401,-47 752,-100 1050,-157 231,-44 428,-91 591,-140l3 -121 0 0c0,-353 -75,-594 -223,-724l0 -1c-107,-95 -244,-167 -409,-215 -174,-51 -382,-77 -619,-77 -224,0 -417,19 -579,58l0 -1c-150,36 -273,88 -365,156l-1 1c-93,68 -175,164 -244,286l0 1c-75,132 -138,298 -188,494l-43 167 -170 -23 -991 -138 -206 -29 44 -203c48,-225 111,-430 190,-613l1 0c82,-188 179,-355 292,-496 116,-145 258,-275 425,-386 162,-109 350,-202 560,-278l1 0c210,-75 434,-132 671,-168l0 1c239,-37 491,-56 754,-56 264,0 507,16 723,47 221,31 420,81 593,146 171,64 323,139 452,222 134,85 246,183 334,289 85,104 159,223 218,351l0 1c59,128 105,270 139,421l2 6c17,94 32,226 40,391 9,160 13,353 13,576l0 1344c0,473 5,855 15,1141 10,289 25,493 45,610l0 2c18,114 47,227 85,336 38,110 86,219 143,326l149 283 -320 0 -1060 0 -122 0 -52 -110c-55,-115 -102,-245 -138,-383l-22 -91zm-139 -2329c-135,43 -285,83 -451,120 -281,64 -610,123 -985,176 -204,28 -378,60 -519,92 -137,30 -244,63 -317,95l-1 1c-70,30 -132,67 -182,108l0 1c-53,43 -98,92 -132,145 -35,55 -63,115 -82,178 -18,61 -28,128 -28,197 0,107 20,204 58,289 39,85 100,164 182,236 81,70 184,125 308,162 130,39 286,59 464,59 181,0 350,-20 506,-57 156,-38 304,-97 441,-173l1 0c135,-75 253,-165 351,-267l1 -1c96,-100 177,-215 238,-342 46,-97 82,-220 106,-370l0 -1c25,-155 38,-340 38,-554l1 -2 2 -91z"/>
  <polygon class="fil1" points="76650,22118 76650,13870 76650,13676 76844,13676 77858,13676 78051,13676 78051,13870 78051,22118 78051,22312 77858,22312 76844,22312 76650,22312 "/>
  <line class="fil2" x1="74270" y1="13758" x2="74272" y2="13759"/>
  <line class="fil2" x1="74272" y1="13759" x2="74273" y2="13759"/>
  <path class="fil1" d="M69116 22118l0 -8248 0 -194 194 0 3114 0c276,0 522,7 737,20 213,13 399,35 552,62 214,36 412,87 591,155l1 0c184,70 353,157 503,259l1 1c151,105 288,231 409,377 119,143 226,309 316,492 90,184 158,377 203,580 45,202 67,413 67,629 0,373 -60,720 -180,1038 -120,317 -300,608 -541,868l0 1c-247,269 -590,470 -1026,601 -422,127 -935,190 -1538,190l-1922 0 0 3170 0 194 -194 0 -1095 0 -194 0 0 -194zm1482 -4525l1938 0c338,0 624,-31 857,-91 220,-57 393,-143 518,-253 125,-111 219,-246 282,-401 64,-161 97,-349 97,-564 0,-154 -19,-297 -57,-426 -37,-126 -93,-242 -168,-347 -74,-105 -161,-192 -258,-260l0 -1c-96,-68 -204,-119 -323,-152 -79,-20 -201,-37 -361,-48 -165,-12 -368,-18 -609,-18l-1916 0 0 2562z"/>
  <path class="fil1" d="M64236 19991l1048 138 219 28 -57 213c-86,323 -212,613 -375,866 -165,256 -369,476 -609,657 -240,182 -515,319 -822,409 -302,89 -636,135 -1001,135 -927,0 -1664,-289 -2213,-867 -274,-288 -481,-635 -618,-1038 -134,-397 -202,-849 -202,-1355 0,-522 68,-988 203,-1397l1 0c138,-415 345,-773 622,-1069 277,-297 597,-521 958,-670 359,-148 758,-223 1194,-223 423,0 810,73 1160,218 351,146 663,366 934,657 272,293 476,644 611,1052 133,401 199,860 199,1372l0 2 -2 120 0 3 -4 148 -6 189 -187 0 -4242 0c26,225 72,428 138,608 83,226 200,417 347,570l1 0c147,154 313,270 496,347l0 -1c183,76 387,115 611,115 328,0 607,-85 833,-255l1 -1c112,-83 215,-196 307,-333 95,-142 179,-315 250,-515l52 -148 155 21zm-3127 -1627l2896 0c-22,-150 -54,-285 -93,-402l0 0c-56,-165 -130,-304 -219,-411l-1 -1c-141,-171 -304,-301 -487,-386l-1 0c-181,-85 -388,-128 -615,-128 -208,0 -399,35 -570,103 -170,67 -327,171 -466,308 -138,136 -247,298 -324,483 -55,132 -95,277 -119,436z"/>
  <polygon class="fil1" points="57357,22118 57357,13870 57357,13676 57551,13676 58565,13676 58758,13676 58758,13870 58758,22118 58758,22312 58565,22312 57551,22312 57357,22312 "/>
  <path class="fil1" d="M51007 22422l979 138 146 20 19 146c17,129 50,239 96,329 43,83 102,153 172,205l0 1c105,77 233,137 383,178 155,42 333,63 533,63 219,0 411,-21 575,-63l0 0c156,-40 289,-101 397,-179l1 0c107,-78 200,-175 273,-287l0 1c73,-112 132,-245 171,-393 22,-91 40,-239 51,-442 6,-101 10,-215 12,-340 -147,120 -303,221 -467,298 -302,143 -632,214 -992,214 -439,0 -832,-81 -1177,-241 -345,-161 -643,-403 -886,-725 -239,-313 -418,-659 -536,-1033l1 0c-119,-375 -179,-780 -179,-1213 0,-297 27,-584 81,-858 54,-275 136,-541 244,-796 110,-256 245,-485 406,-685 162,-201 350,-373 562,-516 213,-142 444,-250 694,-321 247,-70 514,-106 796,-106 598,0 1116,191 1550,572l0 -252 0 -194 194 0 933 0 194 0 0 194 0 5163c0,475 -25,881 -73,1220 -50,348 -128,631 -232,843 -103,212 -237,402 -401,570l0 1c-163,168 -357,312 -578,433l0 0c-222,121 -468,212 -737,272 -267,60 -558,90 -870,90 -371,0 -711,-43 -1016,-127 -311,-87 -586,-217 -822,-391 -246,-179 -431,-406 -551,-678l0 0c-117,-266 -172,-577 -164,-926l5 -217 214 30zm997 -3395c0,734 140,1262 419,1584 139,159 294,279 463,357l1 0c168,77 356,117 562,117 206,0 394,-39 562,-116 170,-78 327,-197 466,-354 137,-155 242,-361 312,-613 73,-262 111,-577 111,-941 0,-347 -39,-650 -114,-906 -73,-248 -182,-455 -326,-619 -144,-164 -302,-288 -473,-368 -169,-80 -354,-120 -554,-120 -393,0 -728,161 -1004,480 -139,160 -244,364 -315,607 -73,251 -110,550 -110,893z"/>
  <path class="fil1" d="M44185 19129c0,-574 81,-1079 243,-1509 165,-438 415,-803 747,-1090 275,-237 582,-416 916,-533l1 0c335,-117 698,-177 1089,-177 874,0 1592,289 2152,865 280,288 490,632 630,1029l0 0c138,392 207,837 207,1331 0,395 -30,751 -90,1064 -60,319 -154,598 -278,836 -124,237 -277,449 -458,632 -181,183 -391,342 -627,472 -234,130 -481,228 -737,292 -256,65 -524,98 -799,98 -442,0 -846,-72 -1206,-214 -363,-143 -685,-360 -963,-648 -278,-288 -487,-641 -624,-1053 -136,-406 -204,-872 -204,-1395zm1424 2c0,716 151,1246 452,1586 149,169 318,296 503,380 185,83 392,126 618,126 224,0 429,-42 612,-126l0 1c183,-84 351,-212 500,-381 302,-345 453,-885 453,-1618 0,-349 -40,-655 -118,-915l0 -1c-76,-252 -189,-463 -337,-630l0 -1c-149,-168 -317,-296 -501,-379l0 -1c-183,-83 -387,-125 -608,-125 -227,0 -434,42 -619,124 -184,82 -353,209 -502,377l0 0c-147,167 -260,380 -334,637l0 1c-78,266 -117,582 -117,945z"/>
  <path class="fil1" d="M37778 19129c0,-574 81,-1079 243,-1509 165,-438 415,-803 747,-1090 275,-237 582,-416 916,-533l1 0c335,-117 699,-177 1089,-177 874,0 1592,289 2152,865 280,288 490,632 629,1029l1 0c138,392 207,837 207,1331 0,395 -31,751 -90,1064 -60,319 -154,598 -278,836 -124,237 -277,449 -458,632 -181,183 -391,342 -627,472 -234,130 -481,228 -737,292 -257,65 -524,98 -799,98 -443,0 -846,-72 -1206,-214 -363,-143 -685,-360 -963,-648 -278,-288 -487,-641 -624,-1053 -136,-406 -204,-872 -204,-1395zm1424 2c0,716 151,1246 452,1586 149,169 317,296 503,380 185,83 392,126 618,126 223,0 429,-42 612,-126l0 1c183,-84 352,-212 500,-381 302,-345 453,-885 453,-1618 0,-349 -40,-655 -118,-915l0 -1c-76,-252 -189,-463 -337,-630l0 -1c-149,-168 -316,-296 -501,-379l0 -1c-183,-83 -387,-125 -608,-125 -228,0 -434,42 -619,124 -184,82 -353,209 -502,377l-1 0c-147,167 -260,380 -334,637l0 1c-78,266 -117,582 -117,945z"/>
  <path class="fil1" d="M33183 18881l0 -967 0 -194 194 0 3491 0 194 0 0 194 0 3057 0 93 -73 59c-274,218 -555,411 -840,577 -284,165 -575,304 -872,416l0 0c-295,111 -596,195 -900,251 -305,56 -614,84 -923,84 -419,0 -821,-45 -1203,-135 -382,-90 -748,-226 -1094,-408 -348,-181 -655,-406 -918,-671 -264,-265 -486,-571 -662,-915 -176,-343 -309,-706 -397,-1087 -88,-381 -132,-781 -132,-1199 0,-414 44,-815 130,-1205 87,-388 218,-765 392,-1126l0 -1c177,-365 393,-685 646,-956l1 -1c256,-273 551,-500 883,-677 330,-177 685,-310 1065,-398 377,-88 779,-132 1204,-132 307,0 604,25 886,76 283,50 550,127 802,228 255,103 484,226 686,369 204,145 380,311 527,496 146,183 275,397 386,637 108,235 200,499 274,787l47 183 -183 50 -985 269 -182 50 -54 -180c-60,-202 -127,-381 -199,-536 -70,-151 -148,-283 -231,-394 -79,-104 -179,-200 -295,-284 -120,-88 -258,-166 -413,-231 -156,-66 -325,-117 -501,-150l-1 0c-175,-34 -362,-51 -558,-51 -237,0 -458,19 -661,54 -202,36 -389,89 -557,158l0 1c-170,71 -324,153 -458,245 -133,90 -251,194 -353,306l0 0c-103,114 -196,236 -277,364 -80,126 -149,259 -206,396l1 0c-100,245 -176,500 -225,762 -50,264 -76,540 -76,828 0,357 30,682 90,975 60,291 149,555 267,787 116,228 262,429 431,599l0 1c168,169 365,309 586,420l0 -1c228,113 463,199 706,255 241,57 492,85 749,85 223,0 444,-22 662,-65 218,-43 435,-109 647,-195l1 1c213,-87 403,-179 568,-273 127,-73 239,-148 332,-224l0 -1264 -2226 0 -194 0 0 -194z"/>
  <path class="fil0" d="M22858 14704c-4079,2355 -8158,4713 -12238,7066 -277,160 -594,160 -870,0 -276,-160 -435,-434 -435,-753 0,-4711 0,-9423 0,-14134 0,-320 159,-595 436,-754 278,-160 595,-159 872,2 4070,2365 8148,4726 12233,7065 278,159 437,433 438,754 1,320 -158,595 -435,755z"/>
  <path class="fil0" d="M92391 28385l-89035 0c-1851,0 -3356,-1510 -3356,-3359l0 -21673c0,-1849 1506,-3353 3356,-3353l89035 0c1849,0 3408,1504 3408,3353l0 21673c0,1849 -1559,3359 -3408,3359l0 0zm2721 -3358c0,1502 -1216,2718 -2721,2718l-89036 0c-1504,0 -2725,-1216 -2725,-2718l0 -21674c0,-1501 1221,-2721 2725,-2721l89035 0c1505,0 2721,1220 2721,2721l0 21674 1 0z"/>
  <path class="fil1" d="M33222 10118c36,108 100,115 201,115l659 0c100,0 122,-79 93,-150l-1555 -4530c-93,-279 -179,-344 -480,-344l-308 0c-272,7 -366,64 -459,344l-1548 4530c-29,79 0,150 100,150l659 0c115,0 158,-36 186,-122l315 -975 1820 0 315 982zm-1548 -2949l294 -994 36 0 301 1015 373 1201 -1376 0 373 -1222zm4400 -68c803,0 1018,358 1018,1104l0 1906c0,100 43,122 136,122l566 0c108,0 136,-14 136,-122l0 -1892c0,-1326 -566,-1835 -1835,-1835 -251,0 -738,36 -939,64 -387,65 -480,251 -480,595l0 3067c0,100 43,122 136,122l559 0c107,0 136,-14 136,-122l0 -2967c258,-43 466,-43 566,-43zm2565 1304c0,1140 451,1906 1727,1906 330,0 1634,-79 1634,-437l0 -4752c0,-108 -43,-122 -136,-122l-559 0c-107,0 -143,14 -143,122l0 1355c-308,-79 -581,-86 -767,-86 -1233,0 -1756,939 -1756,2014zm867 0c0,-932 409,-1297 968,-1297 193,0 394,14 688,86l0 2301c-165,64 -480,108 -681,108 -616,0 -975,-315 -975,-1197zm4250 1706l0 -2946c108,-22 222,-29 337,-29 380,0 702,136 975,373 64,43 108,72 158,-7l330 -473c29,-43 43,-86 -22,-136 -437,-358 -996,-502 -1577,-502 -179,0 -358,14 -530,36 -409,57 -502,229 -502,609l0 3075c0,100 43,122 136,122l552 0c108,0 143,-14 143,-122zm5368 -1777c0,-1211 -595,-1949 -1734,-1949 -1025,0 -1742,717 -1742,1971 0,1268 566,1957 1720,1957 1161,0 1756,-717 1756,-1978zm-853 22c0,667 -222,1254 -896,1254 -659,0 -882,-487 -882,-1276 0,-709 294,-1247 910,-1247 695,0 867,581 867,1268zm2644 -2867c0,-287 -229,-516 -516,-516 -287,0 -516,229 -516,516 0,287 229,516 516,516 287,0 516,-229 516,-516zm-108 4623l0 -3519c0,-108 -36,-122 -143,-122l-552 0c-93,0 -136,22 -136,122l0 3519c0,100 43,122 136,122l552 0c108,0 143,-14 143,-122zm853 -1706c0,1140 451,1906 1727,1906 330,0 1634,-79 1634,-437l0 -4752c0,-108 -43,-122 -136,-122l-559 0c-107,0 -143,14 -143,122l0 1355c-308,-79 -581,-86 -767,-86 -1233,0 -1756,939 -1756,2014zm867 0c0,-932 409,-1297 968,-1297 193,0 394,14 688,86l0 2301c-165,64 -480,108 -681,108 -616,0 -975,-315 -975,-1197zm8421 1419l0 -2150c0,-831 -452,-1290 -1441,-1290 -416,0 -932,57 -1333,208 -72,29 -86,72 -64,150l100 409c22,86 65,100 165,72 236,-72 674,-143 996,-143 616,0 738,265 738,631l0 122 -803 0c-1140,0 -1562,616 -1562,1283 0,652 344,1197 1605,1197 459,0 1039,-57 1462,-251 100,-50 136,-122 136,-236zm-846 -301c-251,93 -609,115 -745,115 -459,0 -760,-143 -760,-552 0,-573 502,-616 817,-616l688 0 0 1054zm2537 681c330,79 595,100 853,100 1132,0 1677,-889 1677,-1957 0,-1096 -495,-1957 -1742,-1957 -473,0 -1039,64 -1512,272 -93,43 -115,86 -115,172l0 4730c0,100 43,122 136,122l566 0c107,0 136,-14 136,-122l0 -1362zm1663 -1863c0,932 -401,1247 -960,1247 -193,0 -409,-22 -702,-100l0 -2279c172,-57 473,-100 667,-100 616,0 996,323 996,1233zm2415 1863c330,79 595,100 853,100 1132,0 1677,-889 1677,-1957 0,-1096 -495,-1957 -1742,-1957 -473,0 -1039,64 -1512,272 -93,43 -115,86 -115,172l0 4730c0,100 43,122 136,122l566 0c107,0 136,-14 136,-122l0 -1362zm1663 -1863c0,932 -401,1247 -960,1247 -193,0 -409,-22 -702,-100l0 -2279c172,-57 473,-100 667,-100 616,0 996,323 996,1233zm6916 -7c0,-1211 -595,-1949 -1734,-1949 -1025,0 -1742,717 -1742,1971 0,1268 566,1957 1720,1957 1161,0 1756,-717 1756,-1978zm-853 22c0,667 -222,1254 -896,1254 -659,0 -882,-487 -882,-1276 0,-709 294,-1247 910,-1247 695,0 867,581 867,1268zm2960 -1254c803,0 1018,358 1018,1104l0 1906c0,100 43,122 136,122l566 0c108,0 136,-14 136,-122l0 -1892c0,-1326 -566,-1835 -1835,-1835 -251,0 -738,36 -939,64 -387,65 -480,251 -480,595l0 3067c0,100 43,122 136,122l559 0c107,0 136,-14 136,-122l0 -2967c258,-43 466,-43 566,-43z"/>
  <path class="fil1" d="M85595 24440l-115 -937 -35 -285 277 75c103,27 201,49 291,63l1 1c83,13 164,20 239,20 102,0 190,-9 266,-24 71,-14 132,-37 182,-65l1 -1c54,-29 104,-66 146,-106 44,-42 84,-89 117,-141l-1 -1c27,-44 66,-126 112,-240 45,-111 105,-271 179,-480l0 -1 5 -14 1 0 60 -168 -2244 -5931 -99 -262 280 0 1083 0 135 0 47 128 1247 3451c85,227 164,455 235,681l0 1 19 60 9 -29c70,-226 146,-452 228,-677l1275 -3487 47 -128 135 0 1012 0 278 0 -97 261 -2260 6083c-122,327 -231,606 -327,833 -98,234 -183,416 -255,545 -96,177 -202,333 -312,463 -115,136 -239,248 -370,336l0 1c-133,88 -281,156 -440,199 -158,44 -325,66 -502,66 -108,0 -225,-12 -346,-34 -118,-21 -241,-55 -370,-98l-116 -39 -15 -120z"/>
  <path class="fil1" d="M83193 21728c-105,78 -208,150 -311,213 -193,120 -384,216 -569,287 -184,70 -376,124 -576,158 -197,35 -402,52 -612,52 -347,0 -658,-43 -930,-129 -278,-88 -517,-222 -714,-401 -197,-177 -346,-383 -446,-613 -99,-230 -149,-483 -149,-756 0,-159 19,-315 56,-464l0 -1c37,-148 94,-293 168,-429l1 -1c74,-132 160,-253 258,-361 99,-109 208,-204 326,-284l1 -1c116,-78 240,-148 372,-208 131,-60 270,-110 414,-150l3 -1c106,-27 237,-54 392,-80 157,-26 336,-52 536,-77l1 0c401,-47 752,-100 1050,-157 231,-44 428,-91 591,-140l3 -121 0 0c0,-353 -75,-594 -223,-724l0 -1c-107,-95 -244,-167 -409,-215 -174,-51 -382,-77 -619,-77 -224,0 -417,19 -579,58l0 -1c-150,36 -273,88 -365,156l-1 1c-93,68 -175,164 -244,286l0 1c-75,132 -138,298 -188,494l-43 167 -170 -23 -991 -138 -206 -29 44 -203c48,-225 111,-430 190,-613l1 0c82,-188 179,-355 292,-496 116,-145 258,-275 425,-386 162,-109 350,-202 560,-278l1 0c210,-75 434,-132 671,-168l0 1c239,-37 491,-56 754,-56 264,0 507,16 723,47 221,31 420,81 593,146 171,64 323,139 452,222 134,85 246,183 334,289 85,104 159,223 218,351l0 1c59,128 105,270 139,421l2 6c17,94 32,226 40,391 9,160 13,353 13,576l0 1344c0,473 5,855 15,1141 10,289 25,493 45,610l0 2c18,114 47,227 85,336 38,110 86,219 143,326l149 283 -320 0 -1060 0 -122 0 -52 -110c-55,-115 -102,-245 -138,-383l-22 -91zm-139 -2329c-135,43 -285,83 -451,120 -281,64 -610,123 -985,176 -204,28 -378,60 -519,92 -137,30 -244,63 -317,95l-1 1c-70,30 -132,67 -182,108l0 1c-53,43 -98,92 -132,145 -35,55 -63,115 -82,178 -18,61 -28,128 -28,197 0,107 20,204 58,289 39,85 100,164 182,236 81,70 184,125 308,162 130,39 286,59 464,59 181,0 350,-20 506,-57 156,-38 304,-97 441,-173l1 0c135,-75 253,-165 351,-267l1 -1c96,-100 177,-215 238,-342 46,-97 82,-220 106,-370l0 -1c25,-155 38,-340 38,-554l1 -2 2 -91z"/>
  <polygon class="fil1" points="76650,22118 76650,13870 76650,13676 76844,13676 77858,13676 78051,13676 78051,13870 78051,22118 78051,22312 77858,22312 76844,22312 76650,22312 "/>
  <line class="fil2" x1="74270" y1="13758" x2="74272" y2="13759"/>
  <line class="fil2" x1="74272" y1="13759" x2="74273" y2="13759"/>
  <path class="fil1" d="M69116 22118l0 -8248 0 -194 194 0 3114 0c276,0 522,7 737,20 213,13 399,35 552,62 214,36 412,87 591,155l1 0c184,70 353,157 503,259l1 1c151,105 288,231 409,377 119,143 226,309 316,492 90,184 158,377 203,580 45,202 67,413 67,629 0,373 -60,720 -180,1038 -120,317 -300,608 -541,868l0 1c-247,269 -590,470 -1026,601 -422,127 -935,190 -1538,190l-1922 0 0 3170 0 194 -194 0 -1095 0 -194 0 0 -194zm1482 -4525l1938 0c338,0 624,-31 857,-91 220,-57 393,-143 518,-253 125,-111 219,-246 282,-401 64,-161 97,-349 97,-564 0,-154 -19,-297 -57,-426 -37,-126 -93,-242 -168,-347 -74,-105 -161,-192 -258,-260l0 -1c-96,-68 -204,-119 -323,-152 -79,-20 -201,-37 -361,-48 -165,-12 -368,-18 -609,-18l-1916 0 0 2562z"/>
  <path class="fil1" d="M64236 19991l1048 138 219 28 -57 213c-86,323 -212,613 -375,866 -165,256 -369,476 -609,657 -240,182 -515,319 -822,409 -302,89 -636,135 -1001,135 -927,0 -1664,-289 -2213,-867 -274,-288 -481,-635 -618,-1038 -134,-397 -202,-849 -202,-1355 0,-522 68,-988 203,-1397l1 0c138,-415 345,-773 622,-1069 277,-297 597,-521 958,-670 359,-148 758,-223 1194,-223 423,0 810,73 1160,218 351,146 663,366 934,657 272,293 476,644 611,1052 133,401 199,860 199,1372l0 2 -2 120 0 3 -4 148 -6 189 -187 0 -4242 0c26,225 72,428 138,608 83,226 200,417 347,570l1 0c147,154 313,270 496,347l0 -1c183,76 387,115 611,115 328,0 607,-85 833,-255l1 -1c112,-83 215,-196 307,-333 95,-142 179,-315 250,-515l52 -148 155 21zm-3127 -1627l2896 0c-22,-150 -54,-285 -93,-402l0 0c-56,-165 -130,-304 -219,-411l-1 -1c-141,-171 -304,-301 -487,-386l-1 0c-181,-85 -388,-128 -615,-128 -208,0 -399,35 -570,103 -170,67 -327,171 -466,308 -138,136 -247,298 -324,483 -55,132 -95,277 -119,436z"/>
  <polygon class="fil1" points="57357,22118 57357,13870 57357,13676 57551,13676 58565,13676 58758,13676 58758,13870 58758,22118 58758,22312 58565,22312 57551,22312 57357,22312 "/>
  <path class="fil1" d="M51007 22422l979 138 146 20 19 146c17,129 50,239 96,329 43,83 102,153 172,205l0 1c105,77 233,137 383,178 155,42 333,63 533,63 219,0 411,-21 575,-63l0 0c156,-40 289,-101 397,-179l1 0c107,-78 200,-175 273,-287l0 1c73,-112 132,-245 171,-393 22,-91 40,-239 51,-442 6,-101 10,-215 12,-340 -147,120 -303,221 -467,298 -302,143 -632,214 -992,214 -439,0 -832,-81 -1177,-241 -345,-161 -643,-403 -886,-725 -239,-313 -418,-659 -536,-1033l1 0c-119,-375 -179,-780 -179,-1213 0,-297 27,-584 81,-858 54,-275 136,-541 244,-796 110,-256 245,-485 406,-685 162,-201 350,-373 562,-516 213,-142 444,-250 694,-321 247,-70 514,-106 796,-106 598,0 1116,191 1550,572l0 -252 0 -194 194 0 933 0 194 0 0 194 0 5163c0,475 -25,881 -73,1220 -50,348 -128,631 -232,843 -103,212 -237,402 -401,570l0 1c-163,168 -357,312 -578,433l0 0c-222,121 -468,212 -737,272 -267,60 -558,90 -870,90 -371,0 -711,-43 -1016,-127 -311,-87 -586,-217 -822,-391 -246,-179 -431,-406 -551,-678l0 0c-117,-266 -172,-577 -164,-926l5 -217 214 30zm997 -3395c0,734 140,1262 419,1584 139,159 294,279 463,357l1 0c168,77 356,117 562,117 206,0 394,-39 562,-116 170,-78 327,-197 466,-354 137,-155 242,-361 312,-613 73,-262 111,-577 111,-941 0,-347 -39,-650 -114,-906 -73,-248 -182,-455 -326,-619 -144,-164 -302,-288 -473,-368 -169,-80 -354,-120 -554,-120 -393,0 -728,161 -1004,480 -139,160 -244,364 -315,607 -73,251 -110,550 -110,893z"/>
  <path class="fil1" d="M44185 19129c0,-574 81,-1079 243,-1509 165,-438 415,-803 747,-1090 275,-237 582,-416 916,-533l1 0c335,-117 698,-177 1089,-177 874,0 1592,289 2152,865 280,288 490,632 630,1029l0 0c138,392 207,837 207,1331 0,395 -30,751 -90,1064 -60,319 -154,598 -278,836 -124,237 -277,449 -458,632 -181,183 -391,342 -627,472 -234,130 -481,228 -737,292 -256,65 -524,98 -799,98 -442,0 -846,-72 -1206,-214 -363,-143 -685,-360 -963,-648 -278,-288 -487,-641 -624,-1053 -136,-406 -204,-872 -204,-1395zm1424 2c0,716 151,1246 452,1586 149,169 318,296 503,380 185,83 392,126 618,126 224,0 429,-42 612,-126l0 1c183,-84 351,-212 500,-381 302,-345 453,-885 453,-1618 0,-349 -40,-655 -118,-915l0 -1c-76,-252 -189,-463 -337,-630l0 -1c-149,-168 -317,-296 -501,-379l0 -1c-183,-83 -387,-125 -608,-125 -227,0 -434,42 -619,124 -184,82 -353,209 -502,377l0 0c-147,167 -260,380 -334,637l0 1c-78,266 -117,582 -117,945z"/>
  <path class="fil1" d="M37778 19129c0,-574 81,-1079 243,-1509 165,-438 415,-803 747,-1090 275,-237 582,-416 916,-533l1 0c335,-117 699,-177 1089,-177 874,0 1592,289 2152,865 280,288 490,632 629,1029l1 0c138,392 207,837 207,1331 0,395 -31,751 -90,1064 -60,319 -154,598 -278,836 -124,237 -277,449 -458,632 -181,183 -391,342 -627,472 -234,130 -481,228 -737,292 -257,65 -524,98 -799,98 -443,0 -846,-72 -1206,-214 -363,-143 -685,-360 -963,-648 -278,-288 -487,-641 -624,-1053 -136,-406 -204,-872 -204,-1395zm1424 2c0,716 151,1246 452,1586 149,169 317,296 503,380 185,83 392,126 618,126 223,0 429,-42 612,-126l0 1c183,-84 352,-212 500,-381 302,-345 453,-885 453,-1618 0,-349 -40,-655 -118,-915l0 -1c-76,-252 -189,-463 -337,-630l0 -1c-149,-168 -316,-296 -501,-379l0 -1c-183,-83 -387,-125 -608,-125 -228,0 -434,42 -619,124 -184,82 -353,209 -502,377l-1 0c-147,167 -260,380 -334,637l0 1c-78,266 -117,582 -117,945z"/>
  <path class="fil1" d="M33183 18881l0 -967 0 -194 194 0 3491 0 194 0 0 194 0 3057 0 93 -73 59c-274,218 -555,411 -840,577 -284,165 -575,304 -872,416l0 0c-295,111 -596,195 -900,251 -305,56 -614,84 -923,84 -419,0 -821,-45 -1203,-135 -382,-90 -748,-226 -1094,-408 -348,-181 -655,-406 -918,-671 -264,-265 -486,-571 -662,-915 -176,-343 -309,-706 -397,-1087 -88,-381 -132,-781 -132,-1199 0,-414 44,-815 130,-1205 87,-388 218,-765 392,-1126l0 -1c177,-365 393,-685 646,-956l1 -1c256,-273 551,-500 883,-677 330,-177 685,-310 1065,-398 377,-88 779,-132 1204,-132 307,0 604,25 886,76 283,50 550,127 802,228 255,103 484,226 686,369 204,145 380,311 527,496 146,183 275,397 386,637 108,235 200,499 274,787l47 183 -183 50 -985 269 -182 50 -54 -180c-60,-202 -127,-381 -199,-536 -70,-151 -148,-283 -231,-394 -79,-104 -179,-200 -295,-284 -120,-88 -258,-166 -413,-231 -156,-66 -325,-117 -501,-150l-1 0c-175,-34 -362,-51 -558,-51 -237,0 -458,19 -661,54 -202,36 -389,89 -557,158l0 1c-170,71 -324,153 -458,245 -133,90 -251,194 -353,306l0 0c-103,114 -196,236 -277,364 -80,126 -149,259 -206,396l1 0c-100,245 -176,500 -225,762 -50,264 -76,540 -76,828 0,357 30,682 90,975 60,291 149,555 267,787 116,228 262,429 431,599l0 1c168,169 365,309 586,420l0 -1c228,113 463,199 706,255 241,57 492,85 749,85 223,0 444,-22 662,-65 218,-43 435,-109 647,-195l1 1c213,-87 403,-179 568,-273 127,-73 239,-148 332,-224l0 -1264 -2226 0 -194 0 0 -194z"/>
  <path class="fil0" d="M22858 14704c-4079,2355 -8158,4713 -12238,7066 -277,160 -594,160 -870,0 -276,-160 -435,-434 -435,-753 0,-4711 0,-9423 0,-14134 0,-320 159,-595 436,-754 278,-160 595,-159 872,2 4070,2365 8148,4726 12233,7065 278,159 437,433 438,754 1,320 -158,595 -435,755z"/>
 </g>
</svg>