<?xml version="1.0" encoding="UTF-8"?>
<!DOCTYPE svg PUBLIC "-//W3C//DTD SVG 1.1//EN" "http://www.w3.org/Graphics/SVG/1.1/DTD/svg11.dtd">
<!-- Creator: CorelDRAW X6 -->
<svg xmlns="http://www.w3.org/2000/svg" xml:space="preserve" width="65" height="65" version="1.1" style="shape-rendering:geometricPrecision; text-rendering:geometricPrecision; image-rendering:optimizeQuality; fill-rule:evenodd; clip-rule:evenodd" viewBox="0 0 6363 9544" xmlns:xlink="http://www.w3.org/1999/xlink">
 <defs>
  <style type="text/css">
   <![CDATA[
    .fil0 {fill:#FEFEFE}
   ]]>
  </style>
 </defs>
 <g id="Слой_x0020_1">
  <metadata id="CorelCorpID_0Corel-Layer"/>
  <g id="_471899888">
   <path class="fil0" d="M5479 9191l-4595 0c-292,0 -530,-238 -530,-530l0 -1237 5656 0 0 1237c0,292 -238,530 -530,530zm-4595 -8837l4595 0c292,0 530,238 530,530l0 353 -5656 0 0 -354c0,-292 238,-530 530,-530zm-530 1237l5656 0 0 5479 -5656 0 0 -5479zm5126 -1591l-4595 0c-487,0 -884,396 -884,884l0 7777c0,487 396,884 884,884l4595 0c487,0 884,-396 884,-884l0 -7777c0,-487 -396,-884 -884,-884z"/>
   <path class="fil0" d="M3535 8130l-707 0c-98,0 -177,79 -177,177 0,98 79,177 177,177l707 0c98,0 177,-79 177,-177 0,-98 -79,-177 -177,-177z"/>
  </g>
 </g>
</svg>