<?xml version="1.0" encoding="utf-8"?>
<!-- Generator: Adobe Illustrator 20.1.0, SVG Export Plug-In . SVG Version: 6.00 Build 0)  -->
<svg version="1.1" id="Слой_1" xmlns="http://www.w3.org/2000/svg" xmlns:xlink="http://www.w3.org/1999/xlink" x="0px" y="0px"
	 viewBox="0 0 113.4 113.4" style="enable-background:new 0 0 113.4 113.4;" xml:space="preserve">
<style type="text/css">
	.st0{fill:#FFFFFF;}
</style>
<path class="st0" d="M39.2,14.3c0.3-0.3,0.8-0.6,1.3-0.9v16.9c0,1-0.8,1.8-1.8,1.8H21.8c0.3-0.5,0.6-0.9,0.9-1.3L39.2,14.3
	L39.2,14.3z M87.2,77c-1,0-1.8,0.8-1.8,1.8v21.6c0,1-0.8,1.8-1.8,1.8H22.4c-1,0-1.8-0.8-1.8-1.8V35.6h18c3,0,5.4-2.4,5.4-5.4v-18
	h39.6c1,0,1.8,0.8,1.8,1.8v28.8c0,1,0.8,1.8,1.8,1.8c1,0,1.8-0.8,1.8-1.8V14c0-3-2.4-5.4-5.4-5.4H44c-2.4,0-5.7,1.3-7.4,3.1
	L20.1,28.2c-1.7,1.7-3.1,5-3.1,7.4v64.8c0,3,2.4,5.4,5.4,5.4h61.2c3,0,5.4-2.4,5.4-5.4V78.9C89,77.9,88.2,77.1,87.2,77L87.2,77z"/>
<path class="st0" d="M41.2,63.7c-0.7-0.7-0.7-1.9,0-2.7c0.7-0.7,1.9-0.7,2.7,0L62,79.1l30.5-30.5c0.7-0.7,1.9-0.7,2.7,0
	c0.7,0.7,0.7,1.9,0,2.7L63.4,83.2c-0.7,0.7-1.9,0.7-2.7,0L41.2,63.7z"/>
</svg>
