<?xml version="1.0" encoding="utf-8"?>
<!-- Generator: Adobe Illustrator 20.1.0, SVG Export Plug-In . SVG Version: 6.00 Build 0)  -->
<svg version="1.1" id="Слой_1" xmlns="http://www.w3.org/2000/svg" xmlns:xlink="http://www.w3.org/1999/xlink" x="0px" y="0px"
	 viewBox="0 0 113.4 113.4" style="enable-background:new 0 0 113.4 113.4;" xml:space="preserve">
<style type="text/css">
	.st0{fill:#FFFFFF;}
</style>
<path class="st0" d="M104.6,88.2c0,3.2-2.6,5.8-5.8,5.8h-2.2c-1.3-5.7-6.4-10-12.4-10c-6.1,0-11.2,4.3-12.4,10h-3.9V43.7h7.7v19.4
	c0,5.3,4.3,9.7,9.7,9.7h18.3c0.6,2.1,1,4.1,1,5.8V88.2L104.6,88.2z M84.2,105.6c-4.9,0-8.9-4-8.9-8.8c0-4.9,4-8.9,8.9-8.9
	c4.9,0,8.9,4,8.9,8.9C93.1,101.7,89.1,105.6,84.2,105.6z M30,84.1c-6.1,0-11.2,4.3-12.4,10c-1.2,0-2.5-0.1-3.2-0.4
	c-0.3-0.1-0.7-0.3-0.7-1.5v-0.6c0.1-1.7,0.1-4.2-1.5-5.8c-0.6-0.6-1.7-1.3-3.4-1.3c-0.3,0-0.4,0-0.5-0.1c-0.5-0.5-0.5-2.9-0.5-4.6
	V34.1c0-3.2,2.6-5.8,5.8-5.8h2c1,10.8,10.1,19.4,21.2,19.4s20.2-8.5,21.2-19.3h0.1c3.2,0,5.8,2.6,5.8,5.8v60h-3.9H42.3
	C41.1,88.4,36,84.1,30,84.1L30,84.1z M30,105.6c-4.9,0-8.9-4-8.9-8.8c0-4.9,4-8.9,8.9-8.9c4.9,0,8.9,4,8.9,8.9
	C38.8,101.7,34.9,105.6,30,105.6z M36.9,8.9c9.6,0,17.4,7.8,17.4,17.4s-7.8,17.4-17.4,17.4s-17.4-7.8-17.4-17.4S27.3,8.9,36.9,8.9z
	 M89.4,48.6l10.9,17.2c0.6,0.8,1.3,1.9,1.8,3H85.3c-3.2,0-5.8-2.6-5.8-5.8V43.7C83,43.7,87.3,45.8,89.4,48.6L89.4,48.6z M103.5,63.6
	L92.6,46.4c-3-3.9-8.3-6.6-13.1-6.6H67.8V34c0-5.3-4.3-9.7-9.7-9.7h-0.1C57.1,13.5,48,5,36.9,5s-20.2,8.5-21.2,19.4h-2
	C8.3,24.4,4,28.7,4,34v44.5v1c0,3.1,0,5.8,1.6,7.4c0.8,0.8,1.9,1.3,3.3,1.3c0.2,0,0.5,0,0.6,0.1c0.5,0.5,0.4,2.2,0.4,3
	c0,0.3,0,0.5,0,0.7c0,3.1,1.6,4.4,2.9,5c1.3,0.6,2.9,0.7,4.6,0.7c0.6,6.5,6,11.6,12.7,11.6s12.1-5.1,12.7-11.6h25.2h3.7
	c0.6,6.5,6,11.6,12.7,11.6c6.6,0,12.1-5.1,12.7-11.6h1.9c5.3,0,9.7-4.3,9.7-9.7v-9.7C108.5,73.9,106.2,67.3,103.5,63.6L103.5,63.6z"
	/>
<path class="st0" d="M31.1,34c0.5,0,1-0.2,1.4-0.6l5.8-5.8c0.4-0.4,0.6-0.9,0.6-1.4V12.7c0-1.1-0.9-1.9-1.9-1.9
	c-1.1,0-1.9,0.9-1.9,1.9v12.7l-5.2,5.2c-0.8,0.8-0.8,2,0,2.7C30.1,33.8,30.6,34,31.1,34z"/>
</svg>
