<?xml version="1.0" encoding="utf-8"?>
<!-- Generator: Adobe Illustrator 20.1.0, SVG Export Plug-In . SVG Version: 6.00 Build 0)  -->
<svg version="1.1" id="Слой_1" xmlns="http://www.w3.org/2000/svg" xmlns:xlink="http://www.w3.org/1999/xlink" x="0px" y="0px"
	 viewBox="0 0 113.4 113.4" style="enable-background:new 0 0 113.4 113.4;" xml:space="preserve">
<style type="text/css">
	.st0{fill:#FFFFFF;}
</style>
<path class="st0" d="M98.8,84.1H14.6c-3.2,0-5.7-2.6-5.7-5.7v-9.6h95.7v9.6C104.6,81.5,102,84.1,98.8,84.1L98.8,84.1z M14.6,9.4
	h84.2c3.2,0,5.7,2.6,5.7,5.7v49.8H8.9V15.1C8.9,12,11.4,9.4,14.6,9.4L14.6,9.4z M98.8,5.6H14.6C9.3,5.6,5,9.9,5,15.2v63.2
	c0,5.3,4.3,9.6,9.6,9.6h84.2c5.3,0,9.6-4.3,9.6-9.6V15.2C108.4,9.9,104.1,5.6,98.8,5.6z"/>
<path class="st0" d="M72,96.8v-5.1h-3.8v5.7c0,0.4,0.1,0.9,0.4,1.2l5.2,6.5H39.7l5.2-6.5c0.3-0.3,0.4-0.8,0.4-1.2v-5.7h-3.8v5.1
	l-4.8,6c-1.1,1.4-1.4,2.9-0.8,4.1s2,2,3.7,2H74c1.8,0,3.1-0.7,3.7-2c0.6-1.3,0.3-2.8-0.8-4.1L72,96.8L72,96.8z"/>
</svg>
