<?xml version="1.0" encoding="utf-8"?><svg version="1.1" id="Слой_1" xmlns="http://www.w3.org/2000/svg" xmlns:xlink="http://www.w3.org/1999/xlink" x="0px" y="0px" viewBox="0 0 34 30" style="enable-background:new 0 0 34 30;" xml:space="preserve"><style type="text/css">.st0{fill:#FFFFFF;}</style><path class="st0" d="M11.5,28.9c-0.2,0.2-0.5,0.3-0.8,0.4l0,0c-0.4,0.2-0.8,0.3-1.2,0.4s-0.8,0.2-1.3,0.2c-0.3,0-0.6,0-0.8-0.1c-0.3,0-0.6-0.1-0.8-0.2l0,0c-0.3-0.1-0.5-0.2-0.8-0.3c-0.2-0.1-0.5-0.3-0.7-0.4l0,0l0,0c-0.3-0.2-0.5-0.5-0.5-0.8c-0.1-0.3,0-0.6,0.2-0.9l0,0l0,0c0,0,0.1-0.1,0.1-0.2l0,0l0.3-0.2c0.3-0.2,0.6-0.3,0.8-0.6s0.5-0.5,0.6-0.8c0.2-0.2,0.3-0.5,0.4-0.7l0,0c0.2-0.2,0.2-0.4,0.3-0.7c-0.3-0.4-0.5-0.8-0.7-1.3S6.2,21.8,6,21.2s-0.3-1.1-0.4-1.7s-0.1-1.2-0.1-1.8c0-1.6,0.3-3.2,0.9-4.6C7,11.6,7.9,10.3,9,9.2l0,0c1.1-1.1,2.4-2,3.9-2.6c1.4-0.6,3-0.9,4.6-0.9l0,0c1.6,0,3.2,0.3,4.6,0.9l0,0c1.5,0.6,2.8,1.5,3.9,2.6l0,0c1.1,1.1,2,2.4,2.6,3.9c0.5,1.3,0.9,2.8,0.9,4.3l0,0v0.3l0,0c0,1.6-0.3,3.2-0.9,4.6c-0.6,1.5-1.5,2.8-2.6,3.9l0,0c-1.1,1.1-2.4,2-3.9,2.6c-1.4,0.6-3,0.9-4.6,0.9c-0.6,0-1.1,0-1.6-0.1s-1.1-0.2-1.6-0.3c-0.4-0.1-0.8-0.3-1.2-0.4c-0.3-0.2-0.6-0.3-1-0.5C11.9,28.6,11.8,28.7,11.5,28.9L11.5,28.9z M10.4,26.7c0.2-0.2,0.4-0.3,0.5-0.5c0.2-0.2,0.5-0.4,0.8-0.4l0,0c0.3,0,0.6,0,0.8,0.2c0.4,0.2,0.8,0.4,1.2,0.6l0,0c0.4,0.2,0.8,0.3,1.2,0.5c0.4,0.1,0.8,0.2,1.3,0.3c0.4,0.1,0.9,0.1,1.3,0.1c1.3,0,2.5-0.3,3.6-0.7c1.2-0.5,2.2-1.2,3.1-2.1s1.6-1.9,2.1-3.1c0.5-1.1,0.7-2.4,0.7-3.6l0,0v-0.3c0-1.2-0.3-2.3-0.7-3.4c-0.5-1.3-1.1-2.3-2-3.2l0,0c-0.9-0.9-1.9-1.6-3.1-2.1s-2.4-0.7-3.6-0.7l0,0c-1.3,0-2.5,0.3-3.6,0.7c-1.2,0.5-2.2,1.2-3.1,2.1l0,0C10,12,9.3,13,8.8,14.2s-0.7,2.4-0.7,3.6c0,0.5,0,0.9,0.1,1.4s0.2,0.9,0.3,1.4c0.2,0.5,0.3,0.9,0.5,1.3s0.5,0.8,0.7,1.2l0.2,0.2l0,0c0,0,0,0.1,0,0.2c0,0.2,0,0.3,0,0.5c-0.1,0.5-0.2,1-0.4,1.5S9,26.4,8.8,26.9l0,0c-0.3,0.1-0.4,0.3-0.5,0.4l0,0c0.3,0,0.5,0,0.8-0.1c0.2,0,0.5-0.1,0.7-0.2C10,26.9,10.2,26.8,10.4,26.7L10.4,26.7z"/><path class="st0" d="M17,24.5c-0.1-0.2-0.2-0.3-0.3-0.5c-0.1-0.2-0.1-0.3-0.1-0.5s0-0.4,0.1-0.6s0.2-0.3,0.3-0.5c0.2-0.1,0.3-0.2,0.5-0.3C17.7,22,17.8,22,18,22s0.3,0,0.5,0.1s0.3,0.2,0.5,0.3c0.2,0.2,0.2,0.3,0.3,0.5l0,0c0.1,0.2,0.1,0.3,0.1,0.6c0,0.2,0,0.4-0.1,0.6l0,0c-0.1,0.2-0.2,0.3-0.3,0.5c-0.2,0.1-0.3,0.2-0.5,0.3C18.3,25,18.1,25,17.9,25c-0.2,0-0.4,0-0.5-0.1S17.1,24.7,17,24.5L17,24.5z"/><path class="st0" d="M16.5,16h-1.9h-0.3v-0.3v-0.9c0-0.4,0.1-0.8,0.3-1.2s0.5-0.7,0.8-1c0.3-0.3,0.7-0.5,1.2-0.7c0.4-0.2,0.9-0.2,1.4-0.2s0.9,0.1,1.4,0.2s0.8,0.4,1.2,0.7c0.7,0.6,1.1,1.4,1.1,2.2v0.6c0,0.2,0,0.5-0.1,0.7c-0.1,0.2-0.2,0.5-0.3,0.7c-0.1,0.2-0.2,0.5-0.4,0.6c-0.2,0.2-0.3,0.4-0.4,0.5l-0.9,1.3l0,0c-0.1,0.2-0.2,0.3-0.2,0.5s-0.1,0.3-0.1,0.5v0.1l0,0v0.1c0,0.7-0.6,1.3-1.3,1.3s-1.3-0.6-1.3-1.3v-0.1l0,0v-0.1c0-0.3,0-0.6,0.2-0.9c0.1-0.3,0.3-0.6,0.5-0.9l0,0c0.2-0.3,0.4-0.6,0.6-0.8l0,0c0.2-0.3,0.4-0.5,0.6-0.8c0.2-0.2,0.3-0.5,0.4-0.7c0.1-0.2,0.1-0.4,0.1-0.6v-0.7c0-0.1,0-0.2-0.1-0.3l0,0c0-0.1-0.1-0.2-0.2-0.3S18.6,14,18.4,14c-0.2,0-0.3-0.1-0.5-0.1c-0.3,0-0.6,0.1-0.8,0.3c-0.1,0.1-0.2,0.2-0.2,0.3l0,0c0,0.1-0.1,0.2-0.1,0.3v1.1V16H16.5z"/></svg>