<?xml version="1.0" encoding="utf-8"?><svg version="1.1" id="Слой_1" xmlns="http://www.w3.org/2000/svg" xmlns:xlink="http://www.w3.org/1999/xlink" x="0px" y="0px" viewBox="0 0 34 34" style="enable-background:new 0 0 34 34;" xml:space="preserve"><style type="text/css">.st0{fill:#FFFFFF;}</style><path class="st0" d="M26.6,16.6c-2.2,2.2-4.3,4.3-6.5,6.5c-1.8,1.8-4.7,1.8-6.5,0c-2.1-2.1-4.3-4.3-6.5-6.5c0.8-1.2,2.2-2,3.8-2c3.9,0,7.9,0,11.8,0C24.4,14.6,25.8,15.4,26.6,16.6z M11.8,24.9c2.8,2.8,7.3,2.8,10.1,0c2.5-2.5,5.2-5.2,7.7-7.7c-0.8-2.7-3.1-4.7-6-5c-0.1,0-0.2,0-0.4,0c-4.1,0-8.2,0-12.4,0c-3.2,0-6,2.2-6.9,5.1C6.6,19.8,9.2,22.3,11.8,24.9L11.8,24.9z M27.4,22.9v3.9c0,2.5-2.1,4.6-4.6,4.6c-3.9,0-7.9,0-11.8,0c-2.5,0-4.6-2.1-4.6-4.6v-3.9l-2.5-2.5v6.5c0,3.6,2.7,6.6,6.3,7.1c0.1,0,0.2,0,0.4,0c4.1,0,8.2,0,12.4,0c3.9,0,7.1-3.2,7.1-7.1v-6.5L27.4,22.9L27.4,22.9z"/></svg>