<?xml version="1.0" encoding="utf-8"?><svg version="1.1" id="Слой_1" xmlns="http://www.w3.org/2000/svg" xmlns:xlink="http://www.w3.org/1999/xlink" x="0px" y="0px" viewBox="0 0 29 24" style="enable-background:new 0 0 29 24;" xml:space="preserve" width="29" height="24"><style type="text/css">.st0{fill:#FFFFFF;}</style><path class="st0" d="M28.9,2.8c-1.1,0.4-2.3,0.8-3.4,1.1c1.3-0.6,2.1-1.9,2.8-3.4c-1.1,0.6-2.3,1.3-3.8,1.5C23.4,0.7,21.7,0,20,0c-3.4,0-5.9,2.8-5.9,5.9c0,0.4,0,1.1,0.2,1.3C9.2,7,5,4.5,2,0.9c-0.4,0.8-0.8,1.9-0.8,3c0,2.1,1.1,4,2.8,5.1C2.8,8.9,2,8.5,1.2,8.3l0,0c0,3,2.1,5.3,4.9,5.9c-0.4,0.2-1.1,0.2-1.7,0.2c-0.4,0-0.8,0-1.1,0c0.8,2.3,3,4,5.7,4.2c-2.1,1.7-4.7,2.5-7.4,2.5c-0.4,0-1.1,0-1.5,0C2.8,22.9,5.8,24,9.4,24c11,0,17.2-9.1,17.2-17.2c0-0.2,0-0.4,0-0.8C27,5.1,27.8,4.1,28.9,2.8L28.9,2.8z"/></svg>