<?xml version="1.0" encoding="utf-8"?><svg version="1.1" id="Слой_1" xmlns="http://www.w3.org/2000/svg" xmlns:xlink="http://www.w3.org/1999/xlink" x="0px" y="0px" viewBox="0 0 34 34" style="enable-background:new 0 0 34 34;" xml:space="preserve"><style type="text/css">.st0{fill:#FFFFFF;}</style><path class="st0" d="M24.8,22.5v-3.6c0-2.4-2-4.3-4.3-4.3h-7.2c-2.4,0-4.3,2-4.3,4.3v3.6l0,0c0,1,0.5,2.1,1.3,2.9l5.1,5.1c1.2,1.2,2,1.2,3.2,0l5.1-5.1C24.4,24.5,24.8,23.5,24.8,22.5z M6.6,22.7L6.6,22.7c0-1.5,0-2.3,0-3.9c0-3.7,3-6.7,6.7-6.7h7.2c3.4,0,6.2,2.5,6.7,5.9c0,0.1,0,0.2,0,0.4V19l0,0c0,1.5,0,2.3,0,3.9l0,0c-0.1,1.6-0.8,3.1-2,4.3l-5.1,5.1c-2.4,2.4-4.2,2.4-6.5,0l-5.1-5.1C7.3,25.8,6.7,24.3,6.6,22.7L6.6,22.7z"/><path class="st0" d="M17.7,20.2c-0.2-0.2-0.5-0.4-0.8-0.4l0,0c-0.3,0-0.6,0.2-0.8,0.4c-0.2,0.2-0.4,0.5-0.4,0.8c0,0.4,0.2,0.6,0.4,0.8c0.2,0.3,0.5,0.4,0.8,0.4l0,0c0.3,0,0.6-0.2,0.8-0.4c0.3-0.2,0.4-0.5,0.4-0.8C18.1,20.7,18,20.4,17.7,20.2z M19.4,23.5c-0.7,0.7-1.5,1-2.5,1s-1.9-0.4-2.5-1c-0.7-0.7-1-1.5-1-2.5s0.4-1.9,1-2.5c0.7-0.7,1.5-1,2.5-1s1.9,0.4,2.5,1c0.7,0.7,1,1.5,1,2.5S20,22.9,19.4,23.5z"/></svg>