<?xml version="1.0" encoding="utf-8"?><svg version="1.1" id="Слой_1" xmlns="http://www.w3.org/2000/svg" xmlns:xlink="http://www.w3.org/1999/xlink" x="0px" y="0px" viewBox="0 0 24 24" style="enable-background:new 0 0 24 24;" xml:space="preserve" width="24" height="24"><style type="text/css">.st0{fill:#FFFFFF;}</style><path class="st0" d="M2.9,0c1.6,0,2.9,1.2,2.9,2.9S4.7,5.9,2.9,5.9S0,4.7,0,2.9C0,1.4,1.2,0,2.9,0z M0.4,8h4.9v16H0.4V8z"/><path class="st0" d="M8.6,8h4.7v2.1l0,0C13.9,9,15.6,7.6,18,7.6c5.1,0,6,3.3,6,7.6V24h-4.9v-7.8c0-1.8,0-4.3-2.5-4.3s-2.9,2-2.9,4.1v8H8.6V8L8.6,8z"/></svg>