<?xml version="1.0" encoding="utf-8"?><svg version="1.1" id="Слой_1" xmlns="http://www.w3.org/2000/svg" xmlns:xlink="http://www.w3.org/1999/xlink" x="0px" y="0px" viewBox="0 0 43 36" style="enable-background:new 0 0 43 36;" xml:space="preserve" width="43" height="36"><style type="text/css">.st0{fill:#FFFFFF;}</style><path class="st0" d="M12.4,20.4L34.2,6.8c1.1-0.7,1.3,0,0.9,0.7l-18,16.2l-0.9,8L12.4,20.4L12.4,20.4z M40,0.3L1.7,14.8c-2,0.7-2,2.7-0.4,3.1l9.6,2.9l3.6,11.3c0.4,1.3,0.9,1.8,1.6,1.8c0.7,0,1.1-0.2,2-1.1c0.9-0.9,2.4-2.4,4.9-4.7l10,7.3c1.8,1.1,3.1,0.4,3.6-1.8l6.2-30.9C43.3,0.3,41.8-0.6,40,0.3L40,0.3z"/></svg>