<?xml version="1.0" encoding="utf-8"?><svg version="1.1" id="Слой_1" xmlns="http://www.w3.org/2000/svg" xmlns:xlink="http://www.w3.org/1999/xlink" x="0px" y="0px" viewBox="0 0 42 24" style="enable-background:new 0 0 42 24;" xml:space="preserve" width="42" height="24"><style type="text/css">.st0{fill:#FFFFFF;}</style><path class="st0" d="M20.4,23.9H23c0,0,0.7,0,1.2-0.5c0.5-0.5,0.5-1.2,0.5-1.2s0-3.3,1.4-3.8c1.4-0.5,3.5,3.3,5.7,4.7c1.7,1.2,2.8,0.7,2.8,0.7h5.7c0,0,2.8-0.2,1.4-2.6c0-0.2-0.7-1.7-4-4.7c-4-3.1-3.5-2.6,0.7-8.3C40.9,5,41.8,2.9,41.6,2c-0.2-0.7-2.1-0.7-2.1-0.7h-6.4c0,0-0.5,0-0.7,0.2c-0.5,0.2-0.5,0.7-0.5,0.7s-0.9,2.6-2.4,5c-2.8,4.7-4,5-4.5,4.7c-1.2-0.7-0.7-2.8-0.7-4.2c0-4.5,0.7-6.6-1.4-7.1c-0.7-0.2-1.2-0.2-3.1-0.2c-2.1,0-4,0-5.2,0.5C14,1.3,13.5,2,13.8,2c0.5,0,1.4,0.2,1.9,0.9c0.7,0.9,0.7,2.8,0.7,2.8s0.5,5.4-0.9,6.1c-0.7,0.5-1.9-0.5-4.5-4.7C9.8,5,8.8,2.4,8.8,2.4S8.6,2,8.4,1.7C7.9,1.5,7.4,1.3,7.4,1.3H1.3c0,0-0.9,0-1.2,0.5s0,1.2,0,1.2S4.8,13.8,10,19.2C14.7,24.1,20.4,23.9,20.4,23.9L20.4,23.9z"/></svg>