<?xml version="1.0" encoding="utf-8"?>
<!-- Generator: Adobe Illustrator 24.2.3, SVG Export Plug-In . SVG Version: 6.00 Build 0)  -->
<svg version="1.1" id="Слой_1" xmlns="http://www.w3.org/2000/svg" xmlns:xlink="http://www.w3.org/1999/xlink" x="0px" y="0px"
	 viewBox="0 0 34 34" style="enable-background:new 0 0 34 34;" xml:space="preserve">
<style type="text/css">
	.st0{fill:#CB3739;}
</style>
<path class="st0" d="M25.2,6c0.7,0.8,1.1,1.5,1.3,2.5c0.2,0.9,0.2,1.8-0.2,2.7l0,0c-0.2,0.5-0.6,0.8-1.1,0.8c-0.6,0-1.1-0.5-1.1-1.1
	c0-0.2,0.1-0.5,0.2-0.6l0,0v-0.2c0.1-0.5,0-0.9-0.1-1.2c-0.1-0.4-0.4-0.8-0.7-1.1c-0.3-0.3-0.7-0.5-1.1-0.6s-0.9-0.2-1.2,0H21l0,0
	c-0.2,0.1-0.4,0.2-0.6,0.2c-0.6,0-1.1-0.5-1.1-1.1c0-0.5,0.3-0.9,0.8-1.1l0,0c0.9-0.3,1.7-0.5,2.7-0.3C23.7,4.9,24.6,5.3,25.2,6
	L25.2,6z"/>
<path class="st0" d="M21.3,23.1v3.6v0.5c0,2.4-2,4.4-4.4,4.4H9.5c-2.4,0-4.4-2-4.4-4.4c0-2.9,0-1.1,0-4H2.6v3.3l0,0v0.8
	c0,3.7,3.1,6.8,6.8,6.8h7.4c3.4,0,6.3-2.6,6.8-6c0-0.1,0-0.2,0-0.4v-0.5l0,0c0-2.9,0-1.1,0-4L21.3,23.1L21.3,23.1z"/>
<path class="st0" d="M21.3,19.7v-3.5v-0.5c0-2.4-2-4.4-4.4-4.4H9.6c-2.4,0-4.4,2-4.4,4.4c0,2.9,0,1.1,0,4H2.8v-3.3l0,0v-0.8
	c0-3.7,3.1-6.8,6.8-6.8H17c3.4,0,6.3,2.6,6.8,5.9c0,0.1,0,0.2,0,0.4v0.5l0,0c0,2.9,0,1.1,0,4h-2.5V19.7z"/>
<path class="st0" d="M28.4,2.8C30,4.4,31,6.4,31.2,8.5c0.3,2.1-0.3,4.4-1.5,6.2L29.4,15l0,0c-0.2,0.3-0.5,0.4-0.9,0.4
	c-0.6,0-1.1-0.5-1.1-1.1c0-0.3,0.2-0.7,0.4-0.9l0,0l0.2-0.3c0.9-1.4,1.2-3.1,1-4.7c-0.2-1.5-0.9-3.1-2.1-4.2c-1.2-1.2-2.8-1.8-4.3-2
	C21,2,19.3,2.5,17.9,3.3l-0.3,0.2l0,0c-0.2,0.2-0.5,0.4-0.9,0.4c-0.6,0-1.1-0.5-1.1-1.1c0-0.3,0.2-0.6,0.4-0.8l0,0h0l0.1-0.1
	l0.2-0.2c1.8-1.3,4-1.8,6.1-1.7C24.8,0.3,26.8,1.2,28.4,2.8z"/>
</svg>
