<?xml version="1.0" encoding="utf-8"?><svg version="1.1" id="Слой_1" xmlns="http://www.w3.org/2000/svg" xmlns:xlink="http://www.w3.org/1999/xlink" x="0px" y="0px" viewBox="0 0 40 40" style="enable-background:new 0 0 40 40;" xml:space="preserve" width="40" height="40"><style type="text/css">.st0{fill:#FFFFFF;}</style><g id="Слой_x0020_1"><g id="_-1136939416"><path class="st0" d="M8.3,0h23.3c2.3,0,4.4,0.9,5.9,2.5C39.1,4,40,6.1,40,8.3v23.3c0,2.3-0.9,4.4-2.5,5.9C36,39.1,33.9,40,31.7,40H8.3c-2.3,0-4.4-0.9-5.9-2.5S0,33.9,0,31.7V8.3C0,6.1,0.9,4,2.5,2.5S5.9,0,8.3,0z M31.7,3H8.3C6.8,3,5.5,3.6,4.5,4.5S3,6.8,3,8.3v23.3c0,1.5,0.6,2.8,1.5,3.8S6.8,37,8.3,37h23.3c1.5,0,2.8-0.6,3.8-1.5s1.5-2.3,1.5-3.8V8.3c0-1.5-0.6-2.8-1.5-3.8C34.3,3.6,33.2,3,31.7,3z"/><polygon class="st0" points="27.9,20.1 21.6,16.5 15.4,13.1 15.4,20.1 15.4,26.9 21.6,23.5"/></g></g></svg>