<?xml version="1.0" encoding="utf-8"?><svg version="1.1" id="Слой_1" xmlns="http://www.w3.org/2000/svg" xmlns:xlink="http://www.w3.org/1999/xlink" x="0px" y="0px" viewBox="0 0 40 40" style="enable-background:new 0 0 40 40;" xml:space="preserve" width="40" height="40"><style type="text/css">.st0{fill:#FFFFFF;}</style><path class="st0" d="M8.4,0h23.3C33.9,0,36,1,37.5,2.5C39.1,4,40,6.1,40,8.4v23.3c0,2.3-0.9,4.4-2.5,5.9C36,39,33.9,40,31.7,40H8.4C6.1,40,4,39,2.5,37.5s-2.5-3.6-2.5-5.9V8.4C0.1,6.1,1,4,2.5,2.5C3.8,1,5.9,0,8.4,0z M31.7,3.1H8.4c-1.5,0-2.8,0.6-3.8,1.5C3.5,5.5,2.9,6.8,2.9,8.4v23.3c0,1.5,0.6,2.8,1.5,3.8c0.9,0.9,2.3,1.5,3.8,1.5h23.3c1.5,0,2.8-0.6,3.8-1.5c0.9-0.9,1.5-2.3,1.5-3.8V8.4c0-1.5-0.6-2.8-1.5-3.8C34.3,3.6,33.2,3.1,31.7,3.1z"/><path class="st0" d="M19.9,8.5c3.2,0,6.1,1.3,8.1,3.4s3.4,4.9,3.4,8.1s-1.3,6.1-3.4,8.1c-2.1,2.1-4.9,3.4-8.1,3.4s-6.1-1.3-8.1-3.4s-3.4-4.9-3.4-8.1S9.7,14,11.8,12S16.7,8.5,19.9,8.5z M26,14c-1.5-1.5-3.6-2.5-6.1-2.5s-4.5,0.9-6.1,2.5s-2.5,3.6-2.5,6.1c0,2.5,0.9,4.5,2.5,6.1c1.5,1.5,3.6,2.5,6.1,2.5s4.5-0.9,6.1-2.5c1.5-1.5,2.5-3.6,2.5-6.1S27.5,15.6,26,14z"/><circle class="st0" cx="31.3" cy="20.1" r="2.3"/></svg>