<?xml version="1.0" encoding="utf-8"?>
<!-- Generator: Adobe Illustrator 20.1.0, SVG Export Plug-In . SVG Version: 6.00 Build 0)  -->
<svg version="1.1" id="Слой_1" xmlns="http://www.w3.org/2000/svg" xmlns:xlink="http://www.w3.org/1999/xlink" x="0px" y="0px"
	 viewBox="0 0 283.5 283.5" style="enable-background:new 0 0 283.5 283.5;" xml:space="preserve">
<style type="text/css">
	.st0{fill:#FFFFFF;}
</style>
<g id="_-1026243672">
	<path class="st0" d="M202.8,94.4c10.5,9.2,17.6,20.3,18,34.1c0.4,12.2,0.2,30.5,0,49c-0.2,21.2-0.5,42.7-0.5,54.2v0v0.1l0,0v3.5
		c0,0.5,0,1.1-0.1,1.7l0,0c-0.1,0.5-0.2,0.9-0.3,1.5c-1.7,12.9-8,24.3-17.3,32.4c-9.2,8.1-21.3,13-34.5,13h-53.4
		c-14.4,0-27.5-5.9-36.9-15.3c-9.4-9.4-15.3-22.5-15.3-36.9l0,0V226l0,0v0v-0.1c0-11.4,0.2-27,0.4-42.7c0.2-15.4,0.4-31,0.4-43.8
		l0,0v-0.1v-5.7l0,0c0-14.4,5.8-27.4,15.3-36.8l0,0c9.4-9.4,22.4-15.3,36.8-15.3h53.3C181.6,81.5,193.7,86.4,202.8,94.4L202.8,94.4z
		 M197.8,231.7v-3.2l0,0c0-10.6,0.1-28.2,0.1-45.6c0.1-14.7,0.1-29.4,0.1-46.2l0,0v-3.2c0-8.2-3.3-15.6-8.7-20.9l0,0
		c-5.4-5.4-12.8-8.7-20.9-8.7l0,0h-53.3l0,0c-8.2,0-15.6,3.4-20.9,8.7l0,0c-5.4,5.4-8.7,12.8-8.7,20.9l0,0c0,13.3-0.2,30.8-0.3,48.5
		c-0.1,16.7-0.3,33.4-0.3,49.7l0,0c0,8.2,3.4,15.6,8.7,21l0,0c5.4,5.4,12.8,8.7,21,8.7l0,0h53.4l0,0c8.2,0,15.6-3.4,21-8.7l0,0
		C194.5,247.3,197.8,239.9,197.8,231.7L197.8,231.7z"/>
	<path class="st0" d="M258.8,120.3c-5.3-27.1-18.6-51.1-37.1-68.9c-20.6-19.7-47.8-31.8-77.4-31.8h-4.5c-29.7,0-56.8,12-77.4,31.8
		c-18.5,17.7-31.8,41.7-37.1,68.9c7.2-3.3,17.5-6.1,23.5-0.1l0,0c2,1.9,3.2,4.6,3.2,7.6l0,0v109.3c-0.4,7.4-4.2,10.5-11,10.8l-1.2,0
		l-0.1,0c-10.2,0-19.4-4.4-26-11.6C7.1,229.4,3,219.6,3,208.9v-1.2v-5h0.1v-34H3v-5v-7.5v-9.8c0-40.3,15.3-76.9,40-103.4
		C67.8,16.5,102,0,139.8,0h4.5c37.7,0,72,16.5,96.8,43.1c24.7,26.5,40,63.1,40,103.4v9.8v7.5v5H281v34h0.1v5v1.2
		c0,10.7-4.1,20.4-10.6,27.5c-6.7,7.2-15.9,11.6-26,11.6l-1.5,0l-1.5-0.1h0l-0.4-0.1c-2.3-0.4-4.4-1.6-5.9-3.2
		c-1.5-1.6-2.6-3.7-2.9-6l-0.1-0.4V238V127.4v-0.1l0-0.4c0.3-2.7,1.6-5.2,3.5-6.9C241.9,114.5,251.8,117.1,258.8,120.3L258.8,120.3z
		 M22.7,208.9c0,5.1,1.7,9.7,4.4,13.1l0,0c1.4,1.8,3.1,3.3,5,4.3v-87.5c-1.9,1.1-3.6,2.6-5,4.3l0,0c-2.8,3.5-4.4,8.1-4.4,13.1v0.9
		v0.9v0.9v0.9v0.9v0.8v0.8v0.8h0L22.7,208.9L22.7,208.9L22.7,208.9z M256.8,222c2.8-3.5,4.4-8.1,4.4-13.1h0c0-17.6,0-35.1,0-52.6
		c0-5.1-1.7-9.7-4.4-13.1c-1.4-1.8-3.1-3.3-5-4.3v87.5C253.7,225.3,255.4,223.8,256.8,222L256.8,222z"/>
</g>
</svg>
