<?xml version="1.0" encoding="utf-8"?><svg version="1.1" id="Слой_1" xmlns="http://www.w3.org/2000/svg" xmlns:xlink="http://www.w3.org/1999/xlink" x="0px" y="0px" viewBox="0 0 22.7 22.7" style="enable-background:new 0 0 22.7 22.7;" xml:space="preserve"><style type="text/css">.st0{fill-rule:evenodd;clip-rule:evenodd;fill:#70706E;}.st1{fill:#FFFFFF;}.st2{fill:none;stroke:#FFFFFF;stroke-width:0.216;stroke-miterlimit:22.9256;}.st3{fill-rule:evenodd;clip-rule:evenodd;fill:#E8383B;}.st4{fill-rule:evenodd;clip-rule:evenodd;fill:#5C5C5C;}.st5{fill:#FFFFFF;stroke:#5C5C5C;stroke-width:0.216;stroke-miterlimit:22.9256;}.st6{fill:#2B2929;}.st7{fill-rule:evenodd;clip-rule:evenodd;fill:#FFFFFF;}.st8{clip-path:url(#SVGID_16_);fill-rule:evenodd;clip-rule:evenodd;fill:#E8383B;}.st9{fill:#424242;}</style><path class="st7" d="M9.3,10.5c0,0.4-0.3,0.8-0.8,0.8c-0.4,0-0.8-0.3-0.8-0.8c0-0.4,0.3-0.8,0.8-0.8C9,9.8,9.3,10.1,9.3,10.5L9.3,10.5z"/><path class="st7" d="M12.1,10.5c0,0.4-0.3,0.8-0.8,0.8c-0.4,0-0.8-0.3-0.8-0.8c0-0.4,0.3-0.8,0.8-0.8C11.8,9.8,12.1,10.1,12.1,10.5L12.1,10.5z"/><path class="st7" d="M14.9,10.5c0,0.4-0.3,0.8-0.8,0.8c-0.4,0-0.8-0.3-0.8-0.8c0-0.4,0.3-0.8,0.8-0.8C14.5,9.8,14.9,10.1,14.9,10.5L14.9,10.5z"/><path class="st7" d="M13.3,14.3l1.8,1.1l-0.4-1.8l0.2-0.2c1-0.8,1.5-1.8,1.5-2.9c0-2.3-2.3-4.1-5.2-4.1c-2.8,0-5.2,1.8-5.2,4.1c0,2.3,2.3,4.1,5.2,4.1c0.6,0,1.2-0.1,1.8-0.3L13.3,14.3L13.3,14.3z M16.4,17l-3.1-1.8c-0.6,0.2-1.2,0.2-1.9,0.2c-3.3,0-6-2.2-6-4.9c0-2.7,2.7-4.9,6-4.9c3.3,0,6,2.2,6,4.9c0,1.3-0.6,2.5-1.6,3.4L16.4,17L16.4,17z"/></svg>