<svg version="1.1" xmlns="http://www.w3.org/2000/svg" viewBox="0 0 50.1 57.7" >
<path class="st2" d="M40.8,18.2c0,0.1,0,0.1,0,0.2c0,8.4,0,16.8,0,25.1c0,1.2-0.5,2-1.6,2.6c-0.4,0.2-0.8,0.3-1.3,0.3c-0.9,0-1.9,0-2.8,0c-0.1,0-0.1,0-0.2,0c0,0.1,0,0.2,0,0.2c0,2.5,0,5.1,0,7.6c0,1.7-1.3,3.2-3,3.5c-1.9,0.3-3.7-1-4-2.9c0-0.2-0.1-0.5-0.1-0.7c0-2.5,0-4.9,0-7.4c0-0.1,0-0.2,0-0.2c-1.8,0-3.6,0-5.5,0c0,0.1,0,0.1,0,0.2c0,2.5,0,5.1,0,7.6c0,2.1-1.8,3.7-3.9,3.5c-1.7-0.2-3.2-1.6-3.2-3.7c0-2.5,0-4.9,0-7.4c0-0.1,0-0.2,0-0.3c-0.1,0-0.2,0-0.2,0c-0.9,0-1.9,0-2.8,0c-1.2,0-2.2-0.7-2.7-1.7c-0.1-0.3-0.2-0.7-0.2-1.1c0-5.5,0-10.9,0-16.4c0-2.9,0-5.8,0-8.8c0-0.1,0-0.1,0-0.2C19.9,18.2,30.3,18.2,40.8,18.2z"/>
<path class="st2" d="M9.4,15.9c0.1-1,0.3-2,0.6-2.9c0.7-2.1,1.9-3.8,3.5-5.3c1.2-1.1,2.5-2,3.9-2.7c0,0,0.1,0,0.2-0.1c-0.2-0.3-0.4-0.5-0.5-0.8c-0.8-1.1-1.6-2.2-2.3-3.4c-0.1-0.1-0.1-0.3-0.1-0.4c0-0.3,0.3-0.5,0.6-0.4c0.1,0.1,0.3,0.2,0.4,0.3c0.9,1.4,1.9,2.7,2.8,4.1c0.1,0.1,0.2,0.1,0.3,0.1c2.2-0.8,4.5-1.2,6.9-1.1c2,0.1,3.9,0.4,5.7,1.1c0.1,0.1,0.2,0,0.3-0.1c0.9-1.4,1.9-2.7,2.8-4.1c0-0.1,0.1-0.1,0.1-0.2c0.2-0.2,0.5-0.2,0.7-0.1c0.2,0.2,0.2,0.4,0.1,0.7c-0.1,0.2-0.3,0.4-0.4,0.7c-0.8,1.2-1.6,2.3-2.4,3.5c0,0,0,0.1-0.1,0.1c0.3,0.1,0.6,0.3,0.8,0.4c2.1,1.2,3.9,2.7,5.3,4.7c1.1,1.6,1.7,3.3,2,5.1c0,0.2,0.1,0.4,0.1,0.6C30.2,15.9,19.8,15.9,9.4,15.9z M16.7,9.9c0,1,0.8,1.7,1.7,1.7c1,0,1.7-0.8,1.7-1.7c0-1-0.8-1.7-1.7-1.7C17.5,8.2,16.7,8.9,16.7,9.9z M30.1,9.8c0,1,0.7,1.7,1.7,1.8c0.9,0,1.7-0.8,1.8-1.7c0-0.9-0.7-1.7-1.7-1.7C30.9,8.1,30.2,8.9,30.1,9.8z"/>
<path class="st2" d="M49.8,28.6c0,2.3,0,4.6,0,6.9c0,1.1-0.4,2.1-1.3,2.8c-1.9,1.6-4.8,0.7-5.5-1.6c-0.1-0.4-0.2-0.8-0.2-1.2c0-4.6,0-9.2,0-13.8c0-1.7,1.1-3.1,2.6-3.5c2.1-0.5,4.1,0.9,4.4,3c0,0.2,0,0.4,0,0.6C49.8,24.1,49.8,26.4,49.8,28.6z"/>
<path class="st2" d="M7.4,28.6c0,2.3,0,4.6,0,6.9c0,1.3-0.5,2.3-1.6,3.1C3.7,40,1,38.8,0.4,36.4c-0.1-0.3-0.1-0.5-0.1-0.8c0-4.6,0-9.3,0-13.9c0-1.8,1.4-3.3,3.2-3.5c1.8-0.2,3.5,1.2,3.8,3c0,0.2,0,0.5,0,0.7C7.4,24.1,7.4,26.4,7.4,28.6z"/>
</svg>