<?xml version="1.0" encoding="utf-8"?><svg version="1.1" id="Слой_1" xmlns="http://www.w3.org/2000/svg" xmlns:xlink="http://www.w3.org/1999/xlink" x="0px" y="0px" viewBox="0 0 371.3 368.5" style="enable-background:new 0 0 371.3 368.5;" xml:space="preserve"><style type="text/css">.st0{fill:#ff383d;}</style><path class="st0" d="M119.8,7.3h131.1c32.7,0,62.4,13.4,83.9,34.9c21.5,21.5,34.9,51.2,34.9,83.9v117.8c0,32.7-13.4,62.4-34.9,83.9c-21.5,21.5-51.2,34.9-83.9,34.9H119.8c-32.7,0-62.4-13.4-83.9-34.9C14.4,306.3,1,276.6,1,243.9V126.1c0-32.7,13.4-62.4,34.9-83.9S87.1,7.3,119.8,7.3z M269.6,105.3c-4.2-4.2-10.1-6.8-16.5-6.8c-6.5,0-12.3,2.6-16.5,6.8c-4.2,4.2-6.8,10.1-6.8,16.5s2.6,12.3,6.8,16.5c4.2,4.2,10.1,6.8,16.5,6.8c6.5,0,12.3-2.6,16.5-6.8s6.8-10.1,6.8-16.5S273.8,109.5,269.6,105.3z M52.3,272c-1.1,1.1-1.8,2.7-1.8,4.4c0,3.5,2.8,6.3,6.2,6.4v0.2c15.4,0,30.7,0.1,46.1,0.1v-12.3c0-8,6.6-14.6,14.6-14.6h21.4v-12.3c0-8,6.6-14.6,14.6-14.6h28.2v-14.2c0-8.2,6.7-14.9,14.9-14.9l0,0c0.8,0,1.6,0.1,2.3,0.2c2.1-0.1,4.3,0.3,6.5,1.1c0.2,0.1,0.4,0.2,0.7,0.3l0.1-0.3c3,1.6,6,3,9.3,4.3c40.3,15.5,85.6-4.6,101.1-44.9c8.9-23.2,6-48.2-5.8-68c-18.1-29.8-54.8-44.7-89.7-34c-41.3,12.6-64.5,56.4-51.9,97.7c1,3.3,2.2,6.5,3.6,9.5l-0.3,0.1c0.1,0.2,0.2,0.5,0.2,0.7c2.5,8.3-1.6,17-9.2,20.4C127.2,216,89.5,243.9,52.3,272L52.3,272z M37.1,245.7l100.7-75.9l0.4-0.3c-0.4-1.2-0.8-2.5-1.2-3.7c-9-29.5-5.3-60,8.2-85.3c7.7-14.5,18.5-27.3,32-37.3h-57.3c-22.7,0-43.4,9.3-58.4,24.3S37,103.3,37,126v117.8C37,244.5,37,245.1,37.1,245.7L37.1,245.7z M333.7,199.6c-11.6,15.6-27,27.7-44.3,35.4c-23.4,10.4-50.3,12.8-76.3,5.3v3.5c0,8-6.6,14.6-14.6,14.6h-21.4v12.3c0,8-6.6,14.6-14.6,14.6H141v12.3c0,8-6.6,14.6-14.6,14.6H73.4c13.3,9.1,29.3,14.4,46.5,14.4H251c22.7,0,43.4-9.3,58.4-24.3c15-15,24.3-35.7,24.3-58.4L333.7,199.6L333.7,199.6z"/></svg>