<?xml version="1.0" encoding="utf-8"?><svg version="1.1" id="Слой_1" xmlns="http://www.w3.org/2000/svg" xmlns:xlink="http://www.w3.org/1999/xlink" x="0px" y="0px" viewBox="0 0 371.3 368.5" style="enable-background:new 0 0 371.3 368.5;" xml:space="preserve"><style type="text/css">.st0{fill:#ff383d;}</style><path class="st0" d="M217.4,258.2c-3.8,1.6-7.3,3.9-10.3,6.9s-5.3,6.4-6.9,10.3c-1.5,3.7-2.4,7.8-2.4,12.1s0.8,8.4,2.4,12.1c1.6,3.8,3.9,7.3,6.9,10.3s6.4,5.3,10.3,6.9c3.7,1.5,7.8,2.4,12.1,2.4c4.3,0,8.4-0.8,12.1-2.4c3.8-1.6,7.3-3.9,10.3-6.9c3-3,5.3-6.4,6.9-10.3c1.5-3.7,2.4-7.8,2.4-12.1s-0.8-8.4-2.4-12.1c-1.6-3.8-3.9-7.3-6.9-10.3c-2.9-2.9-6.4-5.3-10.2-6.9c-3.7-1.5-7.8-2.4-12.1-2.4h-1.4C224.3,256,220.7,256.8,217.4,258.2L217.4,258.2z M107.1,258.2c-3.9,1.6-7.4,4-10.3,6.9l-0.1,0.1c-2.9,2.9-5.2,6.3-6.8,10.1c-1.5,3.7-2.4,7.8-2.4,12.1s0.8,8.4,2.4,12.1l0,0c1.6,3.9,3.9,7.3,6.9,10.3c3,3,6.4,5.3,10.3,6.9c3.7,1.5,7.8,2.4,12.1,2.4s8.4-0.8,12.1-2.4c3.8-1.6,7.3-3.9,10.3-6.9c3-3,5.3-6.4,6.9-10.3c1.5-3.7,2.4-7.8,2.4-12.1s-0.8-8.4-2.4-12.1c-1.6-3.8-3.9-7.3-6.9-10.3c-2.9-2.9-6.4-5.3-10.2-6.9c-3.7-1.5-7.8-2.4-12.1-2.4h-1.3C114,256,110.3,256.8,107.1,258.2L107.1,258.2z M149.7,250.2L149.7,250.2 M149.7,250.2L149.7,250.2 M120.8,10.5h131.1c15.8,0,30.9,3.1,44.8,8.8c7.3-6.8,16.1-11.4,24.6-13.7c11.4-3.6,30.7-2,41.7-2v0c1.2,0,2.4,0.1,3.5,0.3c1.2,0.2,2.3,0.6,3.3,1c1.1,0.4,2.1,1,3,1.6c0.7,0.5,1.5,1.1,2.1,1.7l0.6,0.6c0.9,0.9,1.6,1.8,2.2,2.7c0.6,0.9,1.2,2,1.6,3.1c0.4,1,0.8,2.1,1,3.3c0.2,1.1,0.3,2.3,0.3,3.5s-0.1,2.4-0.3,3.5c-0.2,1.2-0.6,2.3-1,3.3l0,0c-0.4,1-0.9,1.9-1.4,2.8v0c-0.5,0.8-1.2,1.7-1.9,2.5l-0.5,0.5c-0.8,0.8-1.7,1.6-2.7,2.2c-0.9,0.6-2,1.2-3.1,1.6c-1.1,0.4-2.1,0.8-3.3,1c-1.1,0.2-2.3,0.3-3.5,0.3h-26.7c-2.4,0-4.6,0.3-6.5,0.8c2.1,1.8,4,3.6,6,5.6c21.5,21.5,34.9,51.2,34.9,83.9c0,45.2,0,74.2,0,117.8c0,32.7-13.4,62.4-34.9,83.9S284.6,366,251.9,366H120.8c-32.7,0-62.4-13.4-83.9-34.9S2,279.9,2,247.2V129.4C2,96.7,15.3,67,36.9,45.4S88.1,10.6,120.8,10.5L120.8,10.5z M334.7,129.4c0-22.7-9.3-43.4-24.3-58.4c-0.3-0.3-0.6-0.6-0.9-0.9l-43.1,124.1l-2.2,4.2l-0.6,1.1l0,0l0,0.1l0,0c-1.8,3.1-3.7,6.1-5.8,8.9c-2.1,2.8-4.4,5.5-7,8c-2.5,2.5-5.2,4.9-8,7.1c-2.8,2.1-5.7,4.1-8.8,5.9c-3,1.8-6.2,3.4-9.5,4.7c-3.2,1.3-6.6,2.5-10,3.4c-3.4,0.9-6.9,1.6-10.4,2.1c-5.7,0.7-67.3,0.6-67.3,0.6c-37.4-1.8-68.6-28.2-75.8-64.8c-2-10.1-2.4-26.6-0.5-36.8c0.4-2.1,0.8-4,1.4-6c0.6-1.9,1.2-3.8,2-5.6c0.7-1.8,1.6-3.6,2.6-5.4c1-1.7,2-3.4,3.1-4.9c8.2-11.5,21-18.2,34.8-20.4c1.7-0.2,3.5-0.5,5.4-0.6c28-2.1,74.8-0.2,103.5-0.2h1.1l0,0c1,0.1,1.9,0.2,2.8,0.4c0.9,0.2,1.8,0.5,2.7,0.8l0.2,0.1c5.4,2.3,9.5,7.2,10.6,12.9c0.2,1.1,0.3,2.3,0.3,3.5c0,5.9-3,11.5-7.9,14.8c-0.9,0.6-2,1.2-3.1,1.6c-1,0.4-2.1,0.8-3.3,1c-1.1,0.2-2.3,0.3-3.5,0.3h-91.9v0h-4.8h-1.2c-0.7,0-1.5,0-2.3,0.1c-11,0.7-17,5-18,17.1c-1,11.7-1.3,17.7,3.3,28.9c4.3,10.4,11.8,18.5,22.3,23.5c2.3,1.1,4.7,2.1,7.1,2.7c2.4,0.7,4.9,1.2,7.5,1.5l1.3,0.2c15.1,1.6,40.1,0.1,56.8,0.1h4.8v-0.3c0.3,0,0.7-0.1,1-0.1c2-0.2,3.9-0.7,5.7-1.1c1.9-0.5,3.8-1.1,5.6-1.9c1.9-0.8,3.6-1.6,5.3-2.6s3.2-2,4.8-3.2c1.5-1.1,3-2.4,4.3-3.7c1.4-1.4,2.7-2.8,3.9-4.3c1.2-1.5,2.3-3,3.3-4.7v0l0.1-0.1l0.2-0.2l0.1-0.2l0,0h0l46.2-131.5c-8.4-2.9-17.4-4.5-26.7-4.5H120.8c-22.7,0-43.4,9.3-58.4,24.3S38,106.6,38,129.4v117.8c0,22.7,9.3,43.4,24.3,58.4s35.7,24.3,58.4,24.3h131.1c22.7,0,43.4-9.3,58.4-24.3s24.3-35.7,24.3-58.4C334.7,204.1,334.7,173.8,334.7,129.4L334.7,129.4z"/></svg>