<?xml version="1.0" encoding="UTF-8"?>
<!DOCTYPE svg PUBLIC "-//W3C//DTD SVG 1.1//EN" "http://www.w3.org/Graphics/SVG/1.1/DTD/svg11.dtd">
<!-- Creator: CorelDRAW X6 -->
<svg xmlns="http://www.w3.org/2000/svg" xml:space="preserve" width="160.083mm" height="100.23mm" version="1.1" style="shape-rendering:geometricPrecision; text-rendering:geometricPrecision; image-rendering:optimizeQuality; fill-rule:evenodd; clip-rule:evenodd"
viewBox="0 0 16034 10039"
 xmlns:xlink="http://www.w3.org/1999/xlink">
 <defs>
  <style type="text/css">
   <![CDATA[
    .str0 {stroke:#FEFEFE;stroke-width:84.8066}
    .fil3 {fill:none;fill-rule:nonzero}
    .fil2 {fill:#FEFEFE}
    .fil1 {fill:#525252}
    .fil0 {fill:#E63739}
    .fil4 {fill:#FEFEFE;fill-rule:nonzero}
    .fil5 {fill:#E63739;fill-rule:nonzero}
   ]]>
  </style>
 </defs>
 <g id="Слой_x0020_1">
  <metadata id="CorelCorpID_0Corel-Layer"/>
  <path class="fil0" d="M3190 829l1020 1756 220 370c114,192 223,387 337,579 262,443 638,1000 1175,1120 448,100 894,-125 1261,-389l0 0 11 -8 -1538 2555c-122,191 -163,240 -335,411 -85,73 -171,137 -258,189l0 0c-811,487 -1880,226 -2359,-590l-2484 -4223c-425,-722 -271,-1633 333,-2171 16,-16 33,-32 50,-48 101,-92 267,-189 394,-242l2 -1 0 0 1 0 0 0 0 0 0 0c27,-10 53,-20 80,-29 1,0 3,-1 4,-1 787,-272 1649,-21 2085,722z"/>
  <path class="fil1" d="M4210 2584l11 -17 1059 -1755c488,-810 1565,-1052 2368,-553l0 0c803,500 1044,1560 553,2369l-989 1635 3 -5 -11 8 0 0c-367,264 -813,489 -1261,389 -537,-120 -913,-677 -1175,-1120 -114,-192 -223,-387 -337,-579l-220 -370 0 -1z"/>
  <path class="fil2" d="M6691 1071c-118,-71 -272,-34 -344,84 -71,118 -34,272 84,344 118,71 272,34 344,-84 71,-118 34,-272 -84,-344z"/>
  <path class="fil2" d="M7299 1441c-118,-71 -272,-34 -344,84 -71,118 -34,272 84,344 118,71 272,34 344,-84 71,-118 34,-272 -84,-344z"/>
  <path class="fil2" d="M6313 1691c-118,-71 -272,-34 -344,84 -71,118 -34,272 84,344 118,71 272,34 344,-84 71,-118 34,-272 -84,-344z"/>
  <path class="fil2" d="M6922 2061c-118,-71 -272,-34 -344,84 -71,118 -34,272 84,344 118,71 272,34 344,-84 71,-118 34,-272 -84,-344z"/>
  <path class="fil3" d="M4226 4039c1,-2 1,-5 2,-7"/>
  <path class="fil4" d="M2360 3433l0 0c5,-10 10,-20 20,-30l25 -24 17 30 26 44 471 801 124 -73c48,-28 92,-58 132,-89 40,-31 77,-64 110,-99 33,-35 62,-71 88,-109 26,-38 48,-77 66,-118l0 0 0 0 0 0c40,-93 56,-186 49,-278 -8,-93 -39,-187 -95,-282 -29,-50 -60,-94 -93,-134 -33,-39 -68,-74 -105,-103 -37,-30 -76,-55 -117,-74 -41,-20 -84,-35 -130,-45 -91,-20 -183,-21 -277,-3 -95,19 -192,57 -291,115 -47,28 -90,57 -128,89 -38,32 -72,66 -101,102 -29,36 -54,74 -75,115 -21,41 -37,83 -49,128 -12,45 -19,90 -21,135 -2,45 1,90 8,136 8,46 20,91 38,137 17,46 40,92 67,139 8,13 16,25 24,35 8,10 17,19 26,27 9,7 18,14 28,19 10,5 20,9 30,12l0 0c11,3 21,5 31,5 10,1 20,0 30,-1l0 0c10,-1 20,-4 29,-7 10,-3 19,-8 29,-13 10,-6 19,-12 27,-19 8,-7 15,-15 22,-23 6,-8 12,-17 17,-27 5,-10 9,-20 12,-32l0 0c3,-11 5,-22 6,-34 1,-11 0,-22 -2,-34l0 0c-2,-12 -5,-23 -10,-35 -5,-12 -11,-24 -18,-37 -20,-34 -36,-67 -47,-100 -12,-33 -18,-65 -21,-96 -2,-26 -1,-51 3,-75 4,-25 11,-49 21,-72l1 -1 1 -1zm631 348l-329 -560 -17 -28 31 -12c55,-20 108,-26 158,-19 55,7 105,28 149,58 23,16 45,35 64,56 19,21 36,45 51,70 14,25 26,52 35,79 9,27 15,55 17,83 5,52 -2,105 -23,155 -19,46 -50,88 -94,125l-25 21 -16 -28z"/>
  <path class="fil4" d="M3149 5374c6,-3 12,-6 18,-10l1261 -741c6,-3 11,-7 17,-11 6,-4 11,-8 15,-12 4,-4 9,-8 13,-12 4,-4 8,-8 11,-13l3 -4c2,-3 4,-6 6,-10 2,-4 4,-8 6,-11l2 -4c2,-5 4,-11 6,-16 2,-5 3,-10 4,-17l0 0 0 0c1,-6 2,-11 3,-17 1,-5 1,-11 1,-17 0,-6 0,-11 0,-16 0,-5 -1,-11 -2,-16l0 0c-1,-6 -2,-11 -4,-16 -1,-5 -3,-10 -5,-15l0 0c-2,-5 -4,-10 -6,-15 -2,-5 -5,-10 -8,-15 -3,-5 -6,-10 -10,-15 -3,-5 -7,-9 -10,-14 -3,-4 -7,-8 -11,-12 -4,-4 -8,-7 -12,-11l0 0c-4,-3 -8,-6 -12,-9 -5,-3 -9,-6 -13,-8l0 0 0 0c-5,-3 -9,-5 -14,-7l0 0c-4,-2 -7,-3 -11,-4l0 0 -5 -1c-6,-2 -12,-4 -18,-5 -6,-1 -11,-2 -17,-3l0 0c-5,-1 -11,-1 -17,-1 -6,0 -12,1 -18,1l0 0c-6,1 -12,2 -18,3 -5,1 -11,3 -17,5l0 0c-6,2 -12,5 -18,7 -5,2 -11,6 -17,9l-1261 741c-7,4 -12,8 -17,11 -5,4 -10,8 -15,12l-1 1c-4,4 -8,8 -12,11l0 0c-4,5 -8,9 -12,14l-1 2c-3,4 -6,8 -8,13 -3,5 -5,10 -8,16 -2,6 -4,11 -6,16l0 0c-1,4 -2,8 -3,11l-1 6c-1,6 -2,11 -2,16 0,3 -1,7 -1,10l0 5c0,6 0,11 0,16 0,5 1,10 2,15l0 0c1,5 2,11 3,15l0 0c1,5 3,10 5,15l0 0c2,5 4,10 7,16 2,5 5,10 8,15 3,5 6,10 9,14 3,5 7,9 10,13l0 0c3,4 7,8 11,12 4,4 8,8 12,11l0 0c4,3 8,6 13,10 5,3 10,6 14,9l0 0c5,3 10,5 15,7 5,2 11,5 16,6 6,2 11,4 16,5l0 0c6,1 11,2 17,3 5,1 11,1 17,1 6,0 11,-1 17,-1 6,-1 11,-2 17,-3 6,-1 11,-3 18,-6 6,-2 12,-5 18,-8z"/>
  <path class="fil4" d="M2866 4893c6,-3 12,-6 18,-10l1261 -741c6,-3 11,-7 17,-11 6,-4 11,-8 15,-12 4,-4 9,-8 13,-12 4,-4 8,-8 11,-13l3 -4c2,-3 4,-6 6,-10 2,-4 4,-8 6,-11l2 -4c2,-5 4,-11 6,-16 2,-5 3,-10 4,-17l0 0 0 0c1,-6 2,-11 3,-17 1,-5 1,-11 1,-17 0,-6 0,-11 0,-17 0,-5 -1,-11 -2,-16l0 0c-1,-6 -2,-11 -4,-16 -1,-5 -3,-10 -5,-15l0 0c-2,-5 -4,-10 -6,-15 -2,-5 -5,-10 -8,-15 -3,-5 -6,-10 -10,-15 -3,-5 -7,-9 -10,-14 -3,-4 -7,-8 -11,-12 -4,-4 -8,-7 -12,-11l0 0c-4,-3 -8,-6 -12,-9 -5,-3 -9,-6 -13,-8l0 0 0 0c-5,-3 -9,-5 -14,-7l0 0c-4,-2 -7,-3 -11,-4l0 0 -5 -1c-6,-2 -12,-4 -18,-5 -6,-1 -11,-2 -17,-3l0 0c-5,-1 -11,-1 -17,-1 -6,0 -12,1 -18,1l0 0c-6,1 -12,2 -18,3 -5,1 -11,3 -17,5l0 0c-6,2 -12,5 -18,7 -5,2 -11,6 -17,9l-1261 741c-7,4 -12,8 -17,11 -5,4 -10,8 -15,12l-1 1c-4,4 -8,8 -12,11l0 0c-4,5 -8,9 -12,14l-1 2c-3,4 -6,8 -8,13 -3,5 -5,10 -8,16 -2,6 -4,11 -6,16l0 0c-1,4 -2,8 -3,11l-1 6c-1,6 -2,11 -2,16 0,3 -1,7 -1,10l0 5c0,6 0,11 0,16 0,5 1,10 2,15l0 0c1,5 2,11 3,15l0 0c1,5 3,10 5,15l0 0c2,5 4,10 7,16 2,5 5,10 8,15 3,5 6,10 9,14 3,5 7,9 10,13l0 0c3,4 7,8 11,12 4,4 8,8 12,11l0 0c4,3 8,6 13,10 5,3 10,6 14,9l0 0c5,3 10,5 15,7 5,2 11,5 16,6 6,2 11,4 16,5l0 0c6,1 11,2 17,3 5,1 11,1 17,1 6,0 11,-1 17,-1 6,-1 11,-2 17,-3 6,-1 11,-3 18,-6 6,-2 12,-5 18,-8z"/>
  <path class="fil4" d="M2894 2357l190 324c3,4 4,7 5,9 1,2 3,5 6,8l0 0c2,3 4,6 5,8 1,2 4,4 6,7l0 0c2,2 4,5 6,7l2 2 4 4c2,2 4,4 6,6l0 0c3,2 5,4 7,6 2,2 4,3 7,5l0 0c3,2 5,4 7,5l0 0c2,1 5,3 7,4 3,1 5,3 8,4l4 2 3 1 0 0c2,1 4,1 6,2l2 1c2,1 5,1 8,2l0 0c4,1 7,2 8,2l0 0c4,1 7,1 8,2 3,0 6,1 8,1l0 0c3,0 6,1 8,1l0 0c3,0 5,0 8,0l0 0c3,0 6,0 8,0 1,0 4,0 9,-1 4,0 7,-1 8,-1l0 0c3,0 5,-1 7,-1l0 0 0 0 1 0c1,0 4,-1 9,-2 3,-1 6,-1 7,-2l0 0c2,0 4,-1 8,-2l0 0c3,-1 6,-2 8,-3 3,-1 6,-2 8,-3 2,-1 4,-2 7,-3l0 0c4,-2 6,-3 8,-4 1,-1 4,-2 8,-4 4,-2 6,-4 7,-4 1,-1 4,-3 7,-5 3,-2 5,-4 6,-5 2,-2 4,-3 7,-5l0 0c2,-2 4,-3 6,-5l0 0c3,-3 5,-4 6,-6 2,-2 4,-4 5,-5l0 0c3,-3 4,-5 6,-6 2,-2 4,-4 5,-6 1,-2 3,-4 5,-7l0 0c1,-1 2,-4 4,-7 1,-2 3,-5 4,-7l0 0c1,-2 2,-4 3,-7l2 -4 1 -2 1 -1 4 -9 1 -4 0 0 1 -4 0 0c1,-2 1,-5 2,-8 1,-2 1,-5 2,-8l0 0c1,-3 1,-6 1,-8l0 0c0,-2 1,-5 1,-9 1,-6 1,-11 1,-17 0,-5 -1,-11 -1,-17l0 0c0,-2 -1,-5 -2,-8 -1,-3 -1,-6 -2,-8l0 0 0 0c-1,-4 -2,-6 -2,-9 -1,-2 -2,-5 -3,-9l0 0c-1,-4 -3,-7 -4,-9 -1,-2 -2,-5 -4,-8l0 0c-2,-4 -3,-7 -5,-9 -1,-2 -3,-5 -5,-9l-611 -1040c-2,-4 -4,-7 -5,-9 -1,-2 -3,-4 -5,-8l0 0c-2,-3 -4,-6 -5,-7 -1,-2 -4,-4 -6,-8 -2,-2 -4,-5 -6,-7 -2,-3 -4,-4 -6,-6l0 0c-2,-2 -4,-4 -6,-6l0 0 -2 -1 -5 -4c-2,-2 -5,-3 -7,-5 -2,-1 -4,-3 -7,-5l0 0c-2,-1 -4,-2 -7,-4 -3,-1 -5,-3 -7,-4l0 0c-3,-1 -6,-2 -8,-3l0 0c-2,-1 -5,-2 -8,-3l0 0c-3,-1 -6,-2 -8,-2 -2,-1 -5,-1 -9,-2l-3 -1c-2,0 -4,-1 -5,-1l-4 -1 -4 0c-2,0 -5,0 -8,-1l-4 0 -4 0c-3,0 -6,0 -8,0l0 0c-2,0 -5,0 -8,0l-5 0 0 0 -3 0 0 0c-3,0 -6,1 -8,1 -2,0 -4,1 -8,2 -2,1 -5,1 -8,2l-7 2 -1 0c-1,0 -4,1 -8,3l0 0 0 0c-5,2 -10,4 -15,6l0 0c-5,2 -10,5 -15,8 -5,3 -10,6 -15,10 -5,3 -9,7 -14,11 -3,2 -5,4 -6,6l0 0c-2,2 -4,4 -6,6l0 0c-2,2 -4,4 -5,5l0 0c-2,3 -4,5 -6,7l0 0c-2,3 -4,5 -5,6 -1,1 -2,4 -5,7 -2,3 -3,5 -4,7 -1,1 -2,3 -3,5l0 0 0 0 -1 2c-2,3 -3,5 -3,7l0 0c-1,3 -2,5 -3,6l0 0 -5 12 0 1 -1 4 0 0c-1,3 -2,6 -2,8 -1,2 -1,5 -2,8l-1 3 -1 5c0,4 -1,7 -1,8l0 0c0,2 0,5 0,9 0,3 0,6 0,8l0 0c0,3 0,6 1,9 0,2 1,4 1,8l0 0c0,3 1,6 2,9 1,3 1,5 2,8 1,3 2,6 3,9 1,3 2,5 3,8 1,4 3,7 3,9 1,2 2,5 4,8l0 0c2,4 3,7 4,9 1,2 2,4 5,9l217 370 14 24 -24 14 -1087 639c-4,3 -7,4 -9,5 -2,1 -5,3 -8,6l0 0c-4,3 -6,4 -8,6l0 0c-2,2 -5,4 -8,6l0 0c-3,2 -5,4 -7,6 -2,2 -5,4 -7,7l0 0c-3,3 -5,5 -6,6 -1,1 -3,4 -6,7l-3 4 -2 3 0 0c-1,2 -3,4 -5,7l0 0c-1,2 -2,4 -4,7 -2,3 -3,6 -4,8l0 0c-2,3 -3,6 -3,8l0 0c-1,2 -2,5 -2,6l0 0 0 0 0 1c-1,3 -2,5 -2,8l0 0c-1,4 -2,7 -2,8l0 0 0 0c-1,3 -1,6 -1,8 0,2 -1,5 -1,9l0 1 0 1c0,2 0,4 0,6 0,2 0,5 0,8 0,2 0,5 0,8l0 0c0,3 0,5 0,8l0 0 0 0 0 0 0 0c0,2 1,4 1,8 0,3 1,6 1,8l0 1 0 0 0 0c0,2 1,4 1,6 0,2 1,5 2,8l0 0c0,1 1,4 3,8 1,2 2,5 2,6l1 2c2,5 4,10 7,16 2,5 5,10 8,15 2,4 4,6 4,7 1,1 3,4 5,7l0 0c2,3 4,5 5,7 1,1 3,4 5,6l0 0c1,2 3,4 5,6l0 0 6 6c1,1 3,2 4,4l0 0c1,1 3,2 5,4l3 2 1 0c3,2 5,4 6,5 1,1 4,3 6,4l0 0c2,1 4,3 6,4 2,1 4,2 7,4l0 0c2,1 4,2 7,4 3,2 6,3 8,4l0 0c2,1 4,2 7,3 3,1 6,2 8,3l0 0c3,1 5,2 8,3 3,1 5,1 8,2l0 0c2,0 5,1 8,1l0 0c2,0 5,1 8,1 3,0 6,0 8,1 3,0 5,0 9,0l0 0c3,0 6,0 8,0l0 0c3,0 6,-1 9,-1l1 0c3,0 5,-1 7,-1 3,-1 6,-1 8,-2l0 0c3,-1 6,-2 9,-3 3,-1 6,-2 9,-3 4,-2 7,-3 9,-4l0 0c2,-1 5,-2 9,-4 4,-2 7,-3 9,-4l0 0c2,-1 5,-3 9,-5l1087 -639 24 -14 14 24z"/>
  <path class="fil4" d="M758 9815c-133,0 -186,-88 -186,-251 0,-165 68,-254 190,-254 64,0 103,8 173,30 31,10 38,7 50,-26l46 -107c16,-35 17,-41 -12,-56 -76,-43 -167,-57 -268,-57 -290,0 -439,190 -439,471 0,271 114,472 424,472 61,0 220,-5 334,-69 37,-21 39,-50 39,-79l0 -237c0,-99 -31,-148 -107,-167 -30,-8 -63,-12 -107,-12 -84,0 -169,22 -230,44 -22,9 -18,21 -14,34l38 136c8,22 14,22 42,12 31,-12 67,-21 103,-25 10,-1 27,-3 38,-3l-1 129c-37,10 -71,14 -110,14zm1275 -76c-16,-68 -39,-126 -99,-153l0 -3c75,-37 123,-115 123,-210 0,-167 -106,-269 -311,-269l-334 0c-72,0 -85,33 -85,86l0 804c0,18 8,26 30,26l186 0c29,0 31,-5 31,-26l0 -332 102 0c67,0 90,33 109,107l52 218c9,34 26,33 54,33l180 0c31,0 26,-22 24,-34l-61 -249zm-232 -346c0,51 -37,77 -78,77l-149 0 0 -152 149 0c58,0 78,38 78,75zm1287 169c0,-286 -132,-471 -415,-471 -271,0 -413,186 -413,473 0,293 126,471 409,471 298,0 419,-180 419,-473zm-260 1c0,133 -34,251 -149,251 -119,0 -157,-99 -157,-260 0,-131 48,-243 150,-243 123,0 153,115 156,252zm1255 -431c0,-21 -3,-28 -31,-28l-184 0c-22,0 -30,9 -30,28l0 684c-26,5 -99,7 -118,7 -119,0 -164,-43 -164,-145l0 -545c0,-21 -3,-28 -31,-28l-186 0c-22,0 -30,9 -30,28l0 521c0,300 132,385 441,385 39,0 175,-1 246,-21 68,-20 86,-67 86,-123l1 -762zm494 578l128 0c332,0 361,-226 361,-311 0,-168 -114,-295 -319,-295l-332 0c-72,0 -85,39 -85,86l0 804c0,18 8,26 30,26l186 0c29,0 31,-5 31,-26l0 -285zm234 -294c0,51 -31,100 -93,100l-141 0 0 -199 141 0c77,0 93,62 93,99zm1632 146c0,-286 -132,-471 -415,-471 -271,0 -413,186 -413,473 0,293 126,471 409,471 298,0 419,-180 419,-473zm-260 1c0,133 -34,251 -149,251 -119,0 -157,-99 -157,-260 0,-131 48,-243 150,-243 123,0 153,115 156,252zm728 432l0 -327 344 0c18,0 25,-8 25,-30l0 -136c0,-29 -4,-33 -25,-33l-344 0 0 -82c0,-34 9,-75 78,-75l323 0c18,0 25,-7 25,-29l0 -148c0,-29 -4,-31 -25,-31l-398 0c-186,0 -251,122 -251,249l0 642c0,18 8,26 30,26l186 0c29,0 31,-5 31,-26zm1397 -180c-133,0 -186,-88 -186,-251 0,-165 76,-254 183,-254 64,0 103,8 173,30 31,10 38,7 50,-26l46 -107c13,-37 14,-41 -14,-56 -76,-43 -165,-57 -265,-57 -258,0 -433,190 -433,471 0,271 114,472 424,472 112,0 217,-20 320,-82 18,-10 20,-22 8,-48l-56 -118c-12,-29 -20,-30 -46,-20 -56,21 -114,47 -203,47zm1309 -252c0,-286 -132,-471 -415,-471 -271,0 -413,186 -413,473 0,293 126,471 409,471 298,0 419,-180 419,-473zm-260 1c0,133 -34,251 -149,251 -119,0 -157,-99 -157,-260 0,-131 48,-243 150,-243 123,0 153,115 156,252zm1241 433c0,24 9,25 29,25l173 0c22,0 30,-1 30,-25l0 -797c0,-81 -37,-94 -93,-94l-81 0c-65,0 -86,22 -109,68l-105 216 -102 212 -5 0 -102 -215 -105 -217c-22,-46 -40,-64 -95,-64l-101 0c-67,0 -94,22 -94,104l0 788c0,24 10,25 30,25l182 0c21,0 29,-1 29,-25l0 -419 8 0 76 161 59 118c21,43 30,58 73,58l88 0c38,0 54,-14 73,-58l68 -145 67 -149 8 0 0 435zm726 -286l128 0c332,0 361,-226 361,-311 0,-168 -114,-295 -319,-295l-332 0c-72,0 -85,39 -85,86l0 804c0,18 8,26 30,26l186 0c29,0 31,-5 31,-26l0 -285zm234 -294c0,51 -31,100 -93,100l-141 0 0 -199 141 0c77,0 93,62 93,99zm903 583c5,18 20,22 41,22l197 0c21,0 20,-17 17,-25l-258 -811c-25,-78 -55,-81 -118,-81l-106 0c-59,0 -89,12 -111,82l-258 810c-4,13 0,25 17,25l192 0c30,0 35,-9 42,-29l43 -150 258 0 43 157zm-218 -449l44 -192 10 0 42 188 25 102 -149 0 27 -98zm894 -25l105 162 184 275c35,52 61,59 111,59l68 0c78,0 95,-45 95,-104l0 -786c0,-19 -8,-28 -30,-28l-186 0c-29,0 -31,7 -31,28l0 471 -9 0 -102 -160 -187 -280c-37,-54 -60,-59 -111,-59l-68 0c-72,0 -95,22 -95,104l0 786c0,19 8,28 30,28l186 0c29,0 31,-7 31,-28l0 -469 9 0zm1077 469l0 -861c0,-21 -3,-28 -31,-28l-186 0c-22,0 -30,9 -30,28l0 861c0,19 8,28 30,28l186 0c29,0 31,-7 31,-28zm949 -2l0 -148c0,-29 -4,-31 -25,-31l-332 0c-44,0 -78,-7 -78,-72l0 -98 350 0c18,0 25,-8 25,-30l0 -136c0,-29 -4,-33 -25,-33l-350 0 0 -55c0,-34 9,-75 78,-75l311 0c18,0 25,-7 25,-29l0 -148c0,-29 -4,-31 -25,-31l-386 0c-186,0 -251,122 -251,249l0 419c0,116 46,248 254,248l404 0c18,0 25,-8 25,-30zm179 -616c0,156 141,228 322,293 95,34 102,58 102,86 0,22 -13,58 -96,58 -97,0 -212,-33 -265,-52 -26,-10 -35,-9 -47,20l-51 124c-10,26 -8,37 9,47 103,64 245,85 362,85 225,0 356,-96 356,-283 0,-173 -128,-242 -337,-322 -86,-33 -97,-55 -97,-77 0,-24 16,-44 76,-44 68,0 152,12 226,33 30,8 37,7 48,-26l35 -109c13,-37 14,-42 -14,-56 -75,-41 -194,-60 -300,-60 -231,0 -330,132 -330,284z"/>
  <line class="fil3 str0" x1="10022" y1="5109" x2="10022" y2= "5108" />
  <path class="fil4" d="M15162 7348c1,-10 1,-21 1,-32l0 -2268c0,-10 0,-21 -1,-30l0 0c-1,-8 -2,-16 -3,-24l0 0 -1 -5c-2,-10 -4,-19 -6,-27 -3,-9 -5,-17 -9,-26l0 0c-3,-8 -7,-16 -11,-24 -4,-7 -9,-15 -14,-22l-5 -7c-3,-4 -7,-9 -11,-13 -3,-4 -7,-7 -11,-11l-9 -8c-7,-6 -13,-11 -20,-16 -7,-5 -14,-10 -22,-15l0 0c-8,-5 -16,-9 -22,-12 -7,-4 -15,-7 -23,-10 -8,-3 -16,-6 -24,-8 -8,-2 -16,-4 -25,-6l0 0c-8,-1 -17,-3 -26,-3l0 0c-9,-1 -17,-1 -26,-1 -9,0 -18,0 -27,1 -10,1 -19,2 -27,3l0 0c-8,1 -17,3 -25,5 -8,2 -16,5 -24,7l0 0c-7,3 -15,6 -22,9l0 0c-7,4 -15,7 -21,12l0 0c-6,4 -13,8 -20,14 -7,5 -13,11 -19,15l-1 1c-7,6 -13,12 -20,20 -6,7 -12,14 -17,21 -6,8 -11,16 -15,23 -4,8 -8,16 -12,24 -3,8 -6,16 -9,26 -3,9 -5,18 -7,27l0 0c-2,10 -3,20 -4,29 -1,9 -1,19 -1,31l0 2268c0,11 0,22 1,32 1,11 2,21 4,30 2,9 4,19 7,28l0 0c3,10 6,18 9,26 3,8 7,16 12,24 4,8 9,15 15,22 6,8 11,14 17,21l0 0c6,6 13,13 20,19l1 1c6,5 12,10 18,15 6,5 13,9 19,13 7,4 14,8 21,12 7,3 14,6 22,9 15,6 31,10 48,13 17,3 35,4 54,4 9,0 18,0 26,-1 9,-1 18,-2 26,-3 8,-1 17,-3 25,-5 8,-2 16,-5 24,-8l0 0c7,-3 15,-6 23,-10l0 0c6,-3 11,-5 16,-8l6 -4c6,-4 13,-8 21,-14 7,-5 14,-10 20,-16l0 0c7,-6 13,-12 19,-18 5,-6 10,-11 14,-17l2 -3c5,-7 10,-14 14,-22 4,-8 8,-16 11,-24l0 0c3,-7 6,-16 9,-25 2,-8 4,-16 6,-25l1 -3c2,-9 3,-20 4,-30z"/>
  <path class="fil4" d="M16033 7348c1,-10 1,-21 1,-32l0 -2268c0,-10 0,-21 -1,-30l0 0c-1,-8 -2,-16 -3,-24l0 0 -1 -5c-2,-10 -4,-19 -6,-27 -3,-9 -6,-17 -9,-26l0 0c-3,-8 -7,-16 -11,-24 -4,-7 -9,-15 -14,-22l-5 -7c-3,-4 -7,-9 -11,-13 -3,-4 -7,-7 -11,-11l-9 -8c-7,-6 -13,-11 -20,-16 -7,-5 -14,-10 -22,-15l0 0c-8,-5 -16,-9 -22,-12 -7,-4 -15,-7 -23,-10 -8,-3 -16,-6 -24,-8 -8,-2 -16,-4 -25,-6l0 0c-8,-1 -17,-3 -26,-3l0 0c-9,-1 -17,-1 -26,-1 -9,0 -18,0 -27,1 -10,1 -19,2 -27,3l0 0c-8,1 -17,3 -25,5 -8,2 -16,5 -24,7l0 0c-7,3 -15,6 -22,9l0 0c-7,4 -15,7 -21,12l0 0c-6,4 -13,8 -20,14 -7,5 -13,11 -19,15l-1 1c-7,6 -13,12 -20,20 -6,7 -12,14 -17,21 -6,8 -11,16 -15,23 -4,8 -8,16 -12,24 -3,8 -6,16 -9,26 -3,9 -5,18 -7,27l0 0c-2,10 -3,20 -4,29 -1,9 -1,19 -1,31l0 2268c0,11 0,22 1,32 1,11 2,21 4,30 2,9 4,19 7,28l0 0c3,10 6,18 9,26 3,8 7,16 12,24 4,8 9,15 15,22 6,8 11,14 17,21l0 0c6,6 13,13 20,19l1 1c6,5 12,10 18,15 6,5 13,9 19,13 7,4 14,8 21,12 7,3 14,6 22,9 15,6 31,10 48,13 17,3 35,4 54,4 9,0 18,0 26,-1 9,-1 18,-2 26,-3 8,-1 17,-3 25,-5 8,-2 16,-5 24,-8l0 0c7,-3 15,-6 23,-10l0 0c6,-3 11,-5 16,-8l6 -4c6,-4 13,-8 21,-14 7,-5 14,-10 20,-16l0 0c7,-6 13,-12 19,-18 5,-6 10,-11 14,-17l2 -3c5,-7 10,-14 14,-22 4,-8 8,-16 11,-24l0 0c3,-7 6,-16 9,-25 2,-8 4,-16 6,-25l1 -3c2,-9 3,-20 4,-30z"/>
  <line class="fil3" x1="14109" y1="5698" x2="14109" y2= "5698" />
  <path class="fil4" d="M12814 6878l0 0c-10,-15 -19,-29 -24,-51l-12 -52 53 0 79 0 1442 0 0 -222c0,-87 -5,-169 -15,-247 -10,-78 -25,-153 -46,-225l0 0c-20,-71 -46,-139 -76,-203 -30,-64 -65,-124 -106,-180l0 0 -1 -1c-93,-126 -204,-221 -334,-284 -131,-63 -281,-95 -451,-95 -89,0 -173,7 -252,20 -78,13 -152,33 -221,59 -69,26 -133,59 -192,98 -59,39 -113,85 -162,138 -98,105 -172,228 -222,368 -50,141 -74,301 -74,479 0,85 6,165 19,241 13,76 32,147 57,215 25,67 57,131 95,190 38,59 83,115 133,166 51,51 106,96 164,134 59,38 122,70 189,96 67,26 138,45 213,58 75,13 155,19 239,19 23,0 45,-2 65,-5 21,-3 39,-8 56,-13 17,-6 33,-13 48,-22 14,-9 27,-19 39,-31l0 0c12,-12 23,-25 31,-38 9,-13 16,-27 22,-41l0 0c6,-14 10,-29 13,-45 3,-15 4,-32 4,-49 0,-18 -2,-35 -5,-51 -3,-16 -8,-32 -14,-47l0 0c-6,-15 -14,-29 -23,-44 -9,-14 -20,-28 -33,-41l0 0c-12,-13 -26,-24 -40,-34 -14,-10 -30,-18 -47,-24l0 0c-17,-7 -35,-11 -55,-15 -20,-3 -41,-5 -63,-5 -61,0 -118,-5 -170,-16 -53,-11 -102,-26 -145,-48l0 0c-36,-18 -69,-39 -98,-63 -30,-25 -56,-53 -79,-85l-1 -2 -1 -2zm961 -571l-1008 0 -51 0 9 -50c16,-89 50,-165 98,-227 52,-68 120,-119 195,-153 40,-18 82,-32 125,-41 44,-9 89,-14 134,-13 45,0 90,5 133,15 43,10 85,24 124,42 74,35 139,86 189,153 46,62 79,136 93,224l8 49 -50 0z"/>
  <path class="fil5" d="M9258 7261l773 -2151 0 0 0 -1 2 -5 3 -9c1,-4 2,-8 3,-11l0 0 0 -1 0 0 0 0 0 0 0 0 0 0 0 0 0 0 0 0c1,-4 2,-9 3,-13 1,-4 2,-8 2,-12l0 0c1,-5 2,-10 2,-13l1 -5 1 -7c0,-3 1,-8 1,-13 0,-3 0,-6 0,-11 0,-10 0,-19 -1,-27 -1,-9 -2,-18 -4,-26l0 0c-2,-8 -4,-17 -7,-25 -3,-8 -6,-16 -9,-24 -3,-7 -7,-15 -12,-22 -5,-8 -9,-15 -14,-21l0 0c-6,-7 -11,-14 -17,-20 -5,-6 -12,-12 -20,-19l-9 -7c-4,-4 -9,-7 -13,-10 -7,-5 -14,-10 -23,-15l0 0c-7,-4 -15,-9 -23,-13 -8,-4 -16,-7 -24,-10l-4 -1c-8,-3 -15,-5 -22,-7 -8,-2 -16,-4 -25,-6l0 0c-9,-2 -17,-3 -27,-3 -9,-1 -18,-1 -27,-1 -16,0 -30,1 -43,3l0 0c-13,2 -26,5 -39,8l0 0c-12,3 -23,8 -35,14 -11,6 -22,12 -32,20l0 0c-10,7 -19,15 -28,25 -9,9 -17,19 -25,30 -8,11 -15,23 -21,36 -7,13 -13,27 -18,42l-5 14 0 0 -705 1963 -40 112 -40 -112 -708 -1978 0 0 0 -1 -6 -15c-5,-12 -10,-23 -15,-33 -6,-10 -11,-20 -18,-29l0 0c-8,-11 -16,-21 -25,-30 -9,-9 -19,-18 -29,-25l0 0 -8 -6 -8 -5c-19,-11 -39,-20 -62,-25 -23,-6 -48,-9 -75,-9 -10,0 -18,0 -26,1 -9,1 -17,2 -26,3l0 0c-8,1 -16,3 -25,6 -9,3 -17,5 -24,8l0 0c-8,3 -16,6 -24,10 -7,3 -13,7 -20,11l-3 2c-7,5 -15,10 -22,15 -8,6 -15,11 -22,17 -7,6 -14,12 -20,19l0 0c-6,6 -11,13 -17,20l0 0c-5,7 -10,14 -14,21 -4,7 -8,15 -12,22l0 0c-4,8 -7,15 -9,23 -3,8 -5,17 -7,25l0 0c-2,9 -3,17 -4,26 -1,8 -1,17 -1,27 0,6 0,10 0,12 0,2 0,7 1,12l0 0c0,5 1,9 1,12 0,4 1,8 2,14 1,3 1,8 3,13 1,3 2,7 2,10l4 0 5 33 766 2168c9,25 19,49 31,72 12,22 25,43 39,62l0 0c14,19 30,36 47,52 17,16 36,30 55,43l0 0c20,13 42,24 64,33 22,9 46,17 72,24 25,6 52,11 81,14 28,3 58,5 89,5 32,0 61,-2 89,-5 28,-3 55,-8 81,-14 25,-6 49,-14 72,-24l0 0c23,-10 44,-21 64,-33 20,-13 38,-27 55,-42 17,-16 33,-33 48,-52l5 -6c13,-17 24,-36 35,-56 12,-22 22,-46 31,-71l7 -20 0 0z"/>
  <path class="fil3" d="M15584 4841c-2,2 -4,4 -6,5"/>
  <path class="fil0" d="M10336 6061c85,0 162,35 218,90l0 0c56,56 90,133 90,218 0,85 -35,162 -90,218l0 0c-56,56 -133,90 -218,90 -85,0 -162,-35 -218,-90l0 0c-56,-56 -90,-133 -90,-218 0,-85 35,-162 90,-218l0 0c56,-56 133,-90 218,-90z"/>
  <line class="fil3" x1="11511" y1="7583" x2="11511" y2= "7583" />
  <path class="fil3" d="M11550 7577c4,-1 8,-2 11,-3"/>
  <path class="fil4" d="M11796 5319l583 0c8,0 13,0 16,0 4,0 9,-1 16,-1l0 0c4,0 9,-1 14,-1l0 0c4,0 9,-1 15,-2 5,-1 9,-2 15,-3 5,-1 9,-2 13,-3 2,-1 7,-2 13,-4 6,-2 10,-3 13,-4 3,-1 7,-3 12,-5 5,-2 9,-4 12,-6l2 -1c2,-1 5,-3 9,-5l0 0c4,-2 8,-5 11,-7l7 -5 4 -3c2,-2 4,-3 6,-5l0 0 3 -3c4,-3 7,-6 9,-9 2,-3 6,-6 9,-10l0 0c3,-3 5,-6 8,-10 2,-3 5,-6 8,-10l0 0c2,-2 4,-6 7,-11 2,-3 4,-6 7,-11l0 0c2,-3 4,-6 6,-10 2,-4 4,-8 6,-12l0 0c3,-6 4,-9 5,-11l2 -5 2 -6c1,-3 3,-7 4,-13 2,-5 3,-9 3,-11l0 0c1,-3 2,-7 3,-13 1,-4 2,-8 2,-12l0 0c1,-5 1,-10 2,-14 0,-3 1,-7 1,-13l0 -1c1,-6 1,-11 1,-13 0,-3 0,-7 0,-14 0,-6 0,-11 0,-13l0 0c0,-3 0,-7 -1,-13l0 0c0,-5 -1,-9 -1,-12l0 0c0,-4 -1,-8 -2,-13l0 0c-1,-6 -2,-10 -2,-12l0 0c-1,-5 -2,-10 -3,-12l0 0c-1,-4 -2,-8 -3,-11 -1,-2 -2,-7 -4,-12l0 0c-1,-4 -3,-8 -4,-11 -1,-2 -3,-6 -5,-11l0 0c-1,-2 -3,-6 -5,-11l0 0c-1,-3 -4,-6 -7,-11l0 0c-2,-3 -4,-6 -6,-10 -2,-3 -3,-5 -5,-7l0 0 0 0 -1 -1 -1 -2 -8 -12 -4 -5 0 0 -4 -5 0 0c-3,-3 -6,-6 -9,-9 -3,-3 -6,-6 -9,-9l0 0c-4,-3 -7,-6 -9,-8 -4,-3 -7,-5 -10,-8l0 0c-7,-5 -14,-10 -22,-14 -7,-4 -15,-8 -24,-11l0 0c-3,-1 -7,-3 -13,-5 -5,-2 -10,-3 -13,-4l0 0 0 0c-5,-1 -10,-3 -14,-4 -4,-1 -8,-2 -14,-3l0 0c-6,-1 -11,-2 -15,-2 -3,0 -8,-1 -14,-1l0 0c-7,-1 -12,-1 -15,-1l0 0c-3,0 -8,0 -16,0l-1871 0c-8,0 -13,0 -16,0 -3,0 -8,0 -15,1l0 0c-6,0 -10,1 -14,1 -3,0 -9,1 -15,2l0 0c-4,1 -9,2 -13,3 -5,1 -9,2 -12,3l0 0 0 0 -1 0c-5,1 -9,3 -13,4l0 0 -7 2 -6 2c-4,1 -7,3 -12,5 -4,2 -8,4 -12,6 -4,2 -7,4 -11,7 -4,2 -7,4 -9,6l0 0 -2 1c-3,2 -7,5 -10,8l0 0c-2,2 -5,4 -10,9l0 0c-4,3 -7,6 -9,8 -3,3 -6,6 -9,10l-4 5 -4 5 0 0c-2,2 -5,6 -8,11l0 0c-2,3 -4,6 -7,11l-3 5 -3 6c-2,3 -4,7 -6,11l0 0c-2,3 -4,7 -6,11l-3 6 -3 6 0 0c-2,4 -3,8 -5,11l0 0c-2,4 -3,8 -4,12 -1,3 -2,7 -3,11l-3 13 0 0c-1,2 -1,6 -2,12l0 0 0 0c-2,8 -3,17 -3,25l0 0c-1,9 -1,17 -1,26 0,9 0,19 1,27 1,9 2,18 3,26 1,4 2,8 3,13l0 0c1,4 2,8 3,12l0 0c1,4 2,8 4,12l0 0c2,5 3,10 4,12 1,4 3,7 4,11l0 0c1,3 3,7 6,12 2,4 4,8 6,11l3 6 3 5c3,5 5,8 6,10 2,3 4,6 5,7l0 0 24 28 5 5c2,2 6,5 9,9l3 2 0 0c2,2 4,3 6,5 4,3 7,5 11,8l0 0c3,2 7,4 11,7 4,2 7,4 10,6l0 0c4,2 8,4 12,6 4,2 8,3 11,5l0 0c4,2 8,3 13,5l0 0c5,2 9,3 13,4 5,1 9,2 14,4 4,1 8,2 13,3l0 0c7,1 12,2 15,2 3,0 8,1 14,1l0 0c7,1 12,1 15,1 3,0 8,0 15,0l665 0 43 0 0 43 0 1955c0,8 0,13 0,16 0,4 0,9 1,16l0 0c1,7 1,12 1,15 1,4 1,10 2,15l0 0c1,6 2,10 3,14 1,5 2,10 3,14l0 0c1,4 2,8 4,13l0 0c1,3 3,7 5,13l1 3c1,3 2,6 4,9 2,5 4,9 6,12 1,3 4,6 6,11 3,4 5,8 7,11l0 0c3,4 5,7 8,10l0 0c2,2 5,5 8,10 3,3 6,6 9,9 2,2 6,5 10,9l9 8 1 0c4,3 7,6 11,8l0 0 0 0c4,3 8,5 10,7 2,1 6,4 11,7l0 0c3,2 6,4 10,6 3,2 7,4 12,6l0 0c3,2 7,3 12,5 5,2 9,4 11,4l0 0c4,2 8,3 12,4 5,1 9,3 13,4 3,1 7,2 13,3 4,1 7,2 11,2l2 0c8,1 17,2 27,3 9,1 18,1 27,1 6,0 11,0 13,0l0 0c3,0 7,0 13,-1l0 0c5,0 9,-1 12,-1l0 0c5,-1 9,-1 13,-2l0 0c3,0 7,-1 12,-2l1 0 11 -3c3,-1 6,-2 9,-2l0 0c5,-2 9,-3 10,-3l2 -1 3 -1 0 0 1 0 0 0 1 0c4,-1 8,-3 11,-4 3,-1 6,-3 11,-5l0 0c3,-2 7,-3 10,-5 4,-2 8,-4 12,-6l0 0c4,-2 7,-5 11,-7 3,-2 7,-5 11,-7 3,-2 6,-4 10,-8 4,-3 8,-6 10,-8l0 0c3,-3 7,-6 10,-9 3,-3 6,-6 9,-9 2,-3 5,-6 8,-10 4,-5 7,-8 8,-10l0 0c3,-4 5,-7 7,-10 2,-3 4,-7 7,-11l0 0c2,-4 4,-8 6,-12l0 0c2,-5 4,-9 5,-12l1 -3c1,-3 2,-6 3,-9 1,-4 3,-9 4,-13 1,-5 3,-9 4,-14 1,-4 2,-8 3,-14l0 0c1,-7 2,-12 2,-15 0,-3 1,-8 1,-15 1,-7 1,-12 1,-15 0,-3 0,-8 0,-16l0 -1955 0 -43 43 0z"/>
 </g>
</svg>
