<svg xmlns="http://www.w3.org/2000/svg" viewBox="0 0 453.8 284.12"><path d="M90.3,23.46l28.87,49.7,6.23,10.47c3.22,5.43,6.31,11,9.53,16.39,7.42,12.53,18.06,28.3,33.26,31.69,12.68,2.83,25.3-3.53,35.68-11h0l.32-.23-43.53,72.31c-3.45,5.4-4.61,6.79-9.48,11.63a53.23,53.23,0,0,1-7.3,5.35h0c-23,13.78-53.21,6.39-66.77-16.7L6.81,73.56a49.11,49.11,0,0,1,9.43-61.45c.45-.45.93-.9,1.41-1.35A43.24,43.24,0,0,1,28.8,3.91l.06,0h0c.76-.28,1.5-.57,2.26-.82l.12,0c22.27-7.7,46.66-.59,59,20.43Z" fill="#e63739" fill-rule="evenodd"/><path d="M119.17,73.13l.31-.48,30-49.67c13.81-22.92,44.29-29.77,67-15.65h0C239.19,21.48,246,51.48,232.12,74.38l-28,46.27.08-.14-.31.22h0c-10.38,7.48-23,13.84-35.69,11C153,128.35,142.38,112.58,135,100.05c-3.23-5.44-6.31-11-9.54-16.39L119.2,73.19v0Z" fill="#525252" fill-rule="evenodd"/><path d="M189.38,30.31a7.08,7.08,0,1,0,2.38,9.74A7.11,7.11,0,0,0,189.38,30.31Z" fill="#fefefe" fill-rule="evenodd"/><path d="M206.59,40.78A7.09,7.09,0,1,0,209,50.52,7.1,7.1,0,0,0,206.59,40.78Z" fill="#fefefe" fill-rule="evenodd"/><path d="M178.69,47.86a7.09,7.09,0,1,0,2.37,9.73A7.12,7.12,0,0,0,178.69,47.86Z" fill="#fefefe" fill-rule="evenodd"/><path d="M195.92,58.33a7.09,7.09,0,1,0,2.38,9.74A7.1,7.1,0,0,0,195.92,58.33Z" fill="#fefefe" fill-rule="evenodd"/><path d="M119.62,114.31c0-.06,0-.14.06-.2" fill="none"/><path d="M66.81,97.16h0a3,3,0,0,1,.57-.85l.71-.68.48.85.73,1.24,13.33,22.67,3.51-2.06a33.39,33.39,0,0,0,3.74-2.52A27.11,27.11,0,0,0,93,113a24.77,24.77,0,0,0,2.49-3.09,20,20,0,0,0,1.87-3.34h0a16.64,16.64,0,0,0,1.39-7.86,19,19,0,0,0-2.69-8,28.4,28.4,0,0,0-2.63-3.79,20.91,20.91,0,0,0-3-2.91,15.77,15.77,0,0,0-3.31-2.1,16.17,16.17,0,0,0-3.68-1.27,19.33,19.33,0,0,0-7.84-.09,26.83,26.83,0,0,0-8.23,3.26,26.28,26.28,0,0,0-3.62,2.52,21,21,0,0,0-2.86,2.88,19.43,19.43,0,0,0-2.13,3.26,18.39,18.39,0,0,0-1.38,3.62,18.17,18.17,0,0,0-.6,3.82,18.65,18.65,0,0,0,1.31,7.73A26.51,26.51,0,0,0,60,111.59a9.43,9.43,0,0,0,.68,1,6,6,0,0,0,.74.77,4.55,4.55,0,0,0,.79.53,4.31,4.31,0,0,0,.85.34h0a3.13,3.13,0,0,0,.88.15,4.72,4.72,0,0,0,.84,0h0a4.38,4.38,0,0,0,.83-.2,6.51,6.51,0,0,0,.82-.37,4.79,4.79,0,0,0,1.38-1.19,4.7,4.7,0,0,0,.48-.76,3.65,3.65,0,0,0,.34-.91h0a4.29,4.29,0,0,0,.17-1,3.94,3.94,0,0,0-.05-1h0a4.12,4.12,0,0,0-.29-1,11.11,11.11,0,0,0-.51-1,16,16,0,0,1-1.33-2.83A10.64,10.64,0,0,1,66,101.4a8.76,8.76,0,0,1,.08-2.12,8.88,8.88,0,0,1,.6-2l0,0,0,0ZM84.67,107,75.36,91.16l-.48-.79.88-.34a9.15,9.15,0,0,1,4.47-.54,9.61,9.61,0,0,1,4.21,1.64,10.54,10.54,0,0,1,1.82,1.59,13.22,13.22,0,0,1,1.44,2,13.89,13.89,0,0,1,1,2.23,10.12,10.12,0,0,1,.48,2.35,9.14,9.14,0,0,1-.65,4.39,9.33,9.33,0,0,1-2.66,3.54l-.71.59L84.7,107Z" fill="#fefefe"/><path d="M89.14,152.09a4.29,4.29,0,0,0,.51-.28l35.69-21c.17-.09.31-.2.48-.31a3.23,3.23,0,0,0,.42-.34l.37-.34a1.79,1.79,0,0,0,.31-.37l.09-.11a2.48,2.48,0,0,0,.17-.29,2.27,2.27,0,0,1,.17-.31l.05-.11c.06-.14.12-.31.17-.45a2.07,2.07,0,0,0,.12-.49h0c0-.17,0-.31.08-.48a2.42,2.42,0,0,0,0-.48v-.45a2.32,2.32,0,0,0-.06-.45h0a1.63,1.63,0,0,0-.11-.46,2.3,2.3,0,0,0-.14-.42h0l-.17-.43a2.91,2.91,0,0,0-.23-.42,3.41,3.41,0,0,0-.28-.42c-.08-.15-.2-.26-.28-.4s-.2-.23-.31-.34l-.34-.31h0l-.34-.26c-.14-.08-.26-.17-.37-.22h0a2.49,2.49,0,0,0-.4-.2h0a1,1,0,0,0-.31-.11h0l-.14,0a2.42,2.42,0,0,0-.51-.14l-.48-.09h0a2.42,2.42,0,0,0-.48,0c-.17,0-.34,0-.51,0h0l-.51.09a2.77,2.77,0,0,0-.48.14h0c-.17,0-.34.14-.51.2s-.31.17-.48.25l-35.69,21c-.2.11-.34.23-.48.31l-.43.34,0,0a4.57,4.57,0,0,1-.34.31h0c-.12.14-.23.26-.34.4l0,0a1.76,1.76,0,0,0-.23.37c-.08.14-.14.29-.22.46s-.12.31-.17.45h0c0,.11-.06.22-.09.31l0,.17a2.58,2.58,0,0,0-.05.45c0,.09,0,.2,0,.29v.59a3,3,0,0,0,.05.42h0c0,.15.06.32.09.43h0a2.3,2.3,0,0,0,.14.42h0c.06.14.11.29.2.46a2.91,2.91,0,0,0,.23.42c.08.14.17.28.25.4s.2.25.28.36h0a3.28,3.28,0,0,0,.31.34c.12.12.23.23.34.32h0c.12.08.23.17.37.28a4.66,4.66,0,0,1,.4.25h0a2.67,2.67,0,0,0,.42.2,2.54,2.54,0,0,0,.46.17,3.74,3.74,0,0,0,.45.14h0l.48.09a2.42,2.42,0,0,0,.48,0c.17,0,.31,0,.48,0l.48-.09a2,2,0,0,0,.51-.17,3.74,3.74,0,0,0,.51-.22Z" fill="#fefefe"/><path d="M81.13,138.48c.17-.09.34-.17.51-.28l35.69-21a3.24,3.24,0,0,0,.48-.31,2.58,2.58,0,0,0,.43-.34c.11-.11.25-.22.36-.34a1.52,1.52,0,0,0,.31-.36l.09-.12a2.29,2.29,0,0,0,.17-.28,2.88,2.88,0,0,1,.17-.31l.06-.11c0-.15.11-.32.17-.46a2.45,2.45,0,0,0,.11-.48h0c0-.17.06-.31.08-.48a2.42,2.42,0,0,0,0-.48v-.48a3.44,3.44,0,0,0-.05-.45h0a2.06,2.06,0,0,0-.12-.46,2.3,2.3,0,0,0-.14-.42h0l-.17-.43a2.91,2.91,0,0,0-.23-.42,4.46,4.46,0,0,0-.28-.43c-.08-.14-.2-.25-.28-.39a3.28,3.28,0,0,0-.31-.34l-.34-.31h0l-.34-.26c-.14-.08-.26-.17-.37-.22h0a1.66,1.66,0,0,0-.4-.2h0a1.17,1.17,0,0,0-.31-.12h0l-.14,0a3.28,3.28,0,0,0-.51-.15l-.48-.08h0a2.42,2.42,0,0,0-.48,0c-.17,0-.34,0-.51,0h0l-.51.08a4.27,4.27,0,0,0-.48.15h0c-.17,0-.34.14-.51.19s-.31.17-.48.26l-35.69,21c-.2.11-.34.23-.48.31l-.42.34,0,0a4.57,4.57,0,0,1-.34.31h0c-.12.14-.23.26-.34.4l0,.05a1.76,1.76,0,0,0-.23.37c-.08.14-.14.28-.22.45l-.17.46h0c0,.11-.06.22-.09.31l0,.17a4.12,4.12,0,0,0,0,.45c0,.09,0,.2,0,.28v.6a2,2,0,0,0,.06.42h0c0,.14,0,.31.08.43h0a3.45,3.45,0,0,0,.14.42h0c.06.14.12.28.2.45a2.55,2.55,0,0,0,.23.43c.08.14.17.28.25.4s.2.25.28.36h0a2.54,2.54,0,0,0,.32.34,2,2,0,0,0,.34.31h0l.36.29a4.66,4.66,0,0,1,.4.25h0a2.67,2.67,0,0,0,.42.2,3.25,3.25,0,0,0,.46.17,3.74,3.74,0,0,0,.45.14h0l.48.09a3.62,3.62,0,0,0,.48,0l.48,0,.48-.09a1.91,1.91,0,0,0,.51-.17c.17-.06.34-.14.51-.22Z" fill="#fefefe"/><path d="M81.93,66.71l5.37,9.17a.72.72,0,0,1,.14.25,1.2,1.2,0,0,0,.17.23h0l.15.22c0,.06.11.12.16.2h0c.06.06.12.14.17.2l.06.06.11.11.17.17h0a.88.88,0,0,1,.2.17,1.73,1.73,0,0,0,.2.14h0c.09.06.14.11.2.14h0l.2.12a2.26,2.26,0,0,1,.22.11l.12.06.08,0h0l.17.06.06,0a2.18,2.18,0,0,0,.22.06h0l.23,0h0c.11,0,.2,0,.23.06s.17,0,.22,0h0c.09,0,.17,0,.23,0h.45a1.19,1.19,0,0,0,.26,0,1.23,1.23,0,0,0,.22,0h0c.09,0,.15,0,.2,0h0l.25-.06c.09,0,.17,0,.2,0h0a1.12,1.12,0,0,0,.23-.06h0l.23-.08L93.3,78a.93.93,0,0,1,.2-.08h0l.23-.12s.11,0,.22-.11.17-.11.2-.11l.2-.15a1,1,0,0,0,.17-.14l.2-.14h0c0-.05.11-.08.17-.14h0c.08-.08.14-.11.17-.17l.14-.14h0c.08-.09.11-.14.17-.17a1,1,0,0,0,.14-.17c0-.06.08-.11.14-.2h0a1.46,1.46,0,0,0,.11-.2l.12-.19h0a2.07,2.07,0,0,0,.08-.2l.06-.12,0,0,0,0,.11-.26,0-.11h0l0-.11h0c0-.06,0-.14,0-.23s0-.14.06-.23h0a.61.61,0,0,0,0-.22h0c0-.06,0-.14,0-.26a3.85,3.85,0,0,0,0-.48c0-.14,0-.31,0-.48h0a.73.73,0,0,0-.06-.22c0-.09,0-.17-.06-.23h0a.91.91,0,0,1,0-.26,1.13,1.13,0,0,1-.09-.25h0a1.35,1.35,0,0,0-.11-.26,1.72,1.72,0,0,0-.12-.22h0a.78.78,0,0,0-.14-.26L95.65,71,78.36,41.58l-.14-.26a1.66,1.66,0,0,1-.14-.23h0a1.38,1.38,0,0,0-.15-.19c0-.06-.11-.12-.17-.23l-.16-.2c-.06-.08-.12-.11-.17-.17h0l-.17-.17h0l-.06,0L77.06,40c-.06-.06-.14-.08-.2-.14s-.11-.09-.2-.14h0l-.2-.12a1,1,0,0,1-.2-.11h0L76,39.4h0l-.23-.09h0a.82.82,0,0,0-.22-.06l-.26,0-.08,0a1.3,1.3,0,0,1-.15,0l-.11,0h-.11a1,1,0,0,1-.23,0h-.9l-.23,0a1.3,1.3,0,0,0-.23.06,2.18,2.18,0,0,1-.22.06l-.2.05h0a.8.8,0,0,0-.23.09h0l-.42.17h0a3.78,3.78,0,0,0-.85.51,4.85,4.85,0,0,0-.4.31.55.55,0,0,0-.17.17h0l-.17.17h0l-.14.14h0a1.12,1.12,0,0,1-.17.2h0a1,1,0,0,1-.14.17,1.26,1.26,0,0,1-.14.2,1.44,1.44,0,0,0-.11.19.66.66,0,0,0-.09.15h0l0,0a.43.43,0,0,0-.08.2h0a.43.43,0,0,1-.09.17h0l-.14.34v0l0,.11h0a1.39,1.39,0,0,0,0,.23,2.18,2.18,0,0,0-.06.22l0,.09,0,.14c0,.11,0,.2,0,.23h0V44h0a1.06,1.06,0,0,0,0,.25c0,.06,0,.12,0,.23h0a.76.76,0,0,0,.06.25c0,.09,0,.15.06.23l.08.25c0,.09.06.15.09.23s.08.2.08.26.06.14.11.22h0c.06.12.09.2.12.26s0,.11.14.25l6.14,10.47.4.68-.68.4L45.13,76.1a.72.72,0,0,1-.25.14,1.2,1.2,0,0,0-.23.17h0c-.11.09-.17.12-.22.17h0a1.37,1.37,0,0,1-.23.17h0a1.93,1.93,0,0,0-.2.17c0,.06-.14.12-.2.2h0l-.17.17a1.48,1.48,0,0,1-.17.2l-.08.11-.06.09h0l-.14.2h0l-.11.19a1.74,1.74,0,0,0-.12.23h0a.53.53,0,0,0-.08.23h0a.5.5,0,0,0-.06.17h0v0a.68.68,0,0,0-.05.23h0a2,2,0,0,0-.06.23h0a.64.64,0,0,0,0,.22c0,.06,0,.15,0,.26v.68h0v.22h0c0,.06,0,.12,0,.23s0,.17,0,.23v0h0s0,.11,0,.17a1.31,1.31,0,0,0,.05.22h0a.7.7,0,0,0,.09.23.5.5,0,0,1,.06.17l0,.05c.06.15.12.29.2.46a2.91,2.91,0,0,0,.23.42c.06.12.11.17.11.2a1.07,1.07,0,0,1,.14.2h0a1.72,1.72,0,0,1,.15.2s.08.11.14.17h0a1,1,0,0,0,.14.17h0l.17.17a.29.29,0,0,1,.11.11h0s.09.06.14.11l.09.06h0l.17.14a.45.45,0,0,0,.17.11h0c.05,0,.11.09.17.12a.8.8,0,0,1,.19.11h0l.2.11a1.74,1.74,0,0,0,.23.12h0l.2.08.22.09h0a2.09,2.09,0,0,1,.23.08l.23.06h0s.14,0,.22,0h0l.23,0a.49.49,0,0,1,.22,0h.49l.25,0h0l.2,0a2.18,2.18,0,0,0,.22-.06h0l.26-.09L49,85l.26-.11h0l.25-.12.26-.11h0a2.25,2.25,0,0,1,.25-.14L80.76,66.42l.68-.39.4.68Z" fill="#fefefe"/><path d="M21.47,277.78c-3.76,0-5.26-2.49-5.26-7.11s1.92-7.19,5.38-7.19a14.2,14.2,0,0,1,4.89.85c.88.29,1.08.2,1.42-.73l1.3-3c.45-1,.48-1.16-.34-1.59a15.28,15.28,0,0,0-7.58-1.61c-8.21,0-12.43,5.38-12.43,13.33,0,7.67,3.23,13.36,12,13.36,1.73,0,6.23-.14,9.45-1.95a2.19,2.19,0,0,0,1.11-2.24v-6.71c0-2.8-.88-4.19-3-4.72a11.3,11.3,0,0,0-3-.34,20.1,20.1,0,0,0-6.51,1.24c-.62.26-.51.6-.39,1l1.07,3.85c.23.63.4.63,1.19.34a11.8,11.8,0,0,1,2.91-.7c.29,0,.77-.09,1.08-.09l0,3.65a11.59,11.59,0,0,1-3.11.4Zm36.09-2.15c-.45-1.93-1.11-3.57-2.8-4.33v-.09a6.43,6.43,0,0,0,3.48-5.94c0-4.73-3-7.62-8.8-7.62H40c-2,0-2.4.94-2.4,2.44v22.75c0,.51.22.74.85.74h5.26c.82,0,.88-.14.88-.74v-9.39h2.88c1.9,0,2.55.93,3.09,3L52,282.64c.26,1,.74.94,1.53.94h5.09c.88,0,.74-.62.68-1l-1.72-7.05ZM51,265.83A2.08,2.08,0,0,1,48.78,268H44.57v-4.3h4.21A2,2,0,0,1,51,265.83Zm36.43,4.79c0-8.1-3.74-13.33-11.75-13.33C68,257.29,64,262.55,64,270.67,64,279,67.55,284,75.56,284,84,284,87.42,278.91,87.42,270.62Zm-7.36,0c0,3.77-1,7.11-4.22,7.11s-4.44-2.8-4.44-7.36c0-3.71,1.36-6.88,4.24-6.88C79.12,263.51,80,266.77,80.06,270.64Zm35.51-12.19c0-.6-.08-.8-.87-.8h-5.21c-.62,0-.85.26-.85.8V277.8a26.94,26.94,0,0,1-3.34.2c-3.37,0-4.64-1.21-4.64-4.1V258.47c0-.59-.08-.79-.88-.79H94.52c-.62,0-.85.26-.85.79v14.75c0,8.49,3.74,10.9,12.48,10.9a33,33,0,0,0,7-.6,3.18,3.18,0,0,0,2.44-3.48l0-21.57Zm14,16.35h3.62c9.39,0,10.21-6.39,10.21-8.8,0-4.75-3.22-8.35-9-8.35H125c-2,0-2.4,1.11-2.4,2.44v22.75c0,.51.22.74.84.74h5.27c.82,0,.88-.14.88-.74v-8Zm6.62-8.32a2.62,2.62,0,0,1-2.63,2.83h-4v-5.63h4A2.54,2.54,0,0,1,136.18,266.48Zm46.19,4.14c0-8.1-3.74-13.33-11.75-13.33-7.67,0-11.69,5.26-11.69,13.38,0,8.29,3.57,13.33,11.58,13.33C178.94,284,182.37,278.91,182.37,270.62Zm-7.36,0c0,3.77-1,7.11-4.22,7.11s-4.44-2.8-4.44-7.36c0-3.71,1.36-6.88,4.24-6.88C174.07,263.51,174.92,266.77,175,270.64Zm20.6,12.23v-9.25h9.74c.51,0,.7-.23.7-.85v-3.85c0-.82-.11-.94-.7-.94h-9.74v-2.32c0-1,.25-2.12,2.21-2.12H207c.51,0,.71-.2.71-.82v-4.19c0-.82-.12-.88-.71-.88H195.7c-5.27,0-7.11,3.46-7.11,7.05v18.17c0,.51.23.74.85.74h5.26c.83,0,.88-.15.88-.74Zm39.54-5.09c-3.77,0-5.27-2.49-5.27-7.11s2.15-7.19,5.18-7.19a14.25,14.25,0,0,1,4.9.85c.88.29,1.07.2,1.41-.73l1.3-3c.37-1.05.4-1.16-.39-1.59a15,15,0,0,0-7.5-1.61c-7.3,0-12.26,5.38-12.26,13.33,0,7.67,3.23,13.36,12,13.36a16.89,16.89,0,0,0,9.06-2.32c.51-.28.57-.62.23-1.36L242.22,277c-.34-.82-.56-.85-1.3-.57a14.58,14.58,0,0,1-5.74,1.33Zm37-7.14c0-8.09-3.73-13.33-11.74-13.33-7.67,0-11.69,5.27-11.69,13.39,0,8.29,3.57,13.33,11.57,13.33C268.77,284,272.19,278.94,272.19,270.64Zm-7.36,0c0,3.77-1,7.11-4.21,7.11s-4.45-2.81-4.45-7.36c0-3.71,1.36-6.88,4.25-6.88C263.9,263.54,264.75,266.8,264.83,270.67ZM300,282.93c0,.68.25.7.82.7h4.89c.63,0,.85,0,.85-.7V260.37c0-2.29-1-2.66-2.63-2.66H301.6a2.86,2.86,0,0,0-3.09,1.93l-3,6.11-2.89,6h-.14l-2.88-6.09-3-6.14c-.62-1.3-1.13-1.81-2.68-1.81h-2.86c-1.9,0-2.66.62-2.66,2.94V283c0,.67.28.7.85.7h5.15c.59,0,.82,0,.82-.7V271.1h.22l2.16,4.55,1.66,3.34c.6,1.22.85,1.64,2.07,1.64h2.49c1.08,0,1.53-.39,2.07-1.64l1.92-4.1,1.9-4.22H300V283Zm20.54-8.1h3.63c9.39,0,10.21-6.39,10.21-8.8,0-4.75-3.22-8.35-9-8.35h-9.39c-2,0-2.41,1.11-2.41,2.44v22.75c0,.51.23.74.85.74h5.27c.82,0,.87-.15.87-.74v-8Zm6.63-8.32a2.62,2.62,0,0,1-2.64,2.83h-4v-5.63h4A2.55,2.55,0,0,1,327.13,266.51ZM352.68,283c.14.51.57.62,1.16.62h5.58c.59,0,.56-.48.48-.7l-7.3-23c-.71-2.2-1.56-2.29-3.34-2.29h-3c-1.67,0-2.52.34-3.14,2.32l-7.31,22.93c-.11.36,0,.7.48.7h5.44c.85,0,1-.25,1.19-.82l1.21-4.24h7.31l1.21,4.44Zm-6.17-12.71,1.25-5.43H348l1.19,5.32.71,2.89h-4.22l.76-2.78Zm25.3-.7,3,4.58L380,282a3.07,3.07,0,0,0,3.14,1.67h1.93c2.2,0,2.69-1.27,2.69-2.94V258.45c0-.54-.23-.8-.85-.8h-5.27c-.82,0-.87.2-.87.8v13.33h-.26l-2.89-4.53-5.29-7.93a3,3,0,0,0-3.14-1.67h-1.92c-2,0-2.69.63-2.69,3v22.24c0,.54.22.79.85.79h5.26c.82,0,.88-.19.88-.79V269.57h.25Zm30.48,13.27V258.5c0-.59-.08-.79-.87-.79h-5.27c-.62,0-.85.26-.85.79v24.37c0,.54.23.79.85.79h5.27C402.24,283.66,402.29,283.46,402.29,282.87Zm26.86-.06v-4.18c0-.83-.11-.88-.71-.88h-9.39c-1.25,0-2.21-.2-2.21-2v-2.77h9.9c.51,0,.71-.23.71-.85v-3.85c0-.82-.11-.94-.71-.94h-9.9v-1.55c0-1,.25-2.12,2.21-2.12h8.8c.51,0,.71-.2.71-.83v-4.18c0-.82-.12-.88-.71-.88H416.92c-5.26,0-7.1,3.45-7.1,7.05v11.85c0,3.29,1.3,7,7.19,7h11.43C429,283.66,429.15,283.44,429.15,282.81Zm5.07-17.43c0,4.42,4,6.45,9.11,8.29,2.69,1,2.89,1.64,2.89,2.44,0,.62-.37,1.64-2.72,1.64a25.44,25.44,0,0,1-7.5-1.47c-.74-.29-1-.26-1.33.56l-1.44,3.51c-.29.74-.23,1,.25,1.33,2.92,1.81,6.93,2.41,10.25,2.41,6.36,0,10.07-2.72,10.07-8,0-4.9-3.62-6.85-9.54-9.11-2.43-.94-2.74-1.56-2.74-2.18s.45-1.25,2.15-1.25a24.93,24.93,0,0,1,6.39.93c.85.23,1.05.2,1.36-.73l1-3.09c.37-1,.4-1.18-.39-1.58a19.29,19.29,0,0,0-8.49-1.7c-6.54,0-9.34,3.74-9.34,8Z" fill="#fefefe"/><path d="M429.12,208a9,9,0,0,0,0-.91V142.87a7.68,7.68,0,0,0,0-.85h0l-.08-.68h0l0-.14c-.06-.29-.11-.54-.17-.77a7.09,7.09,0,0,0-.26-.73h0a4.6,4.6,0,0,0-.31-.68,7.18,7.18,0,0,0-.39-.63l-.14-.19a2.73,2.73,0,0,0-.32-.37,1.82,1.82,0,0,0-.31-.31l-.25-.23c-.2-.17-.37-.31-.57-.45s-.39-.29-.62-.43h0c-.23-.14-.45-.25-.62-.34a4.71,4.71,0,0,0-.65-.28,6.81,6.81,0,0,0-.68-.23l-.71-.17h0c-.23,0-.48-.08-.74-.08h0a5.94,5.94,0,0,0-.73,0,6.61,6.61,0,0,0-.77,0l-.76.08h0a6,6,0,0,0-.71.15c-.22.05-.45.14-.68.19h0L418,136h0a3.78,3.78,0,0,0-.59.34h0a4.87,4.87,0,0,0-.57.39c-.2.15-.37.32-.54.43l0,0a7.39,7.39,0,0,0-.56.56c-.17.2-.34.4-.48.6a5.19,5.19,0,0,0-.43.65l-.34.68c-.08.22-.17.45-.25.73a7.27,7.27,0,0,0-.2.77h0a6.17,6.17,0,0,0-.11.82,7.78,7.78,0,0,0,0,.88v64.18a9,9,0,0,0,0,.91,5.31,5.31,0,0,0,.11.85c.06.25.11.53.2.79h0c.08.28.17.51.25.73a3.93,3.93,0,0,0,.34.68,2.93,2.93,0,0,0,.43.63c.17.22.31.39.48.59h0c.17.17.37.37.56.54l0,0,.51.42a5.77,5.77,0,0,0,.54.37l.59.34c.2.08.4.17.63.25a6.38,6.38,0,0,0,1.35.37,8.42,8.42,0,0,0,1.53.11c.26,0,.51,0,.74,0l.73-.09a5.57,5.57,0,0,0,.71-.14,6,6,0,0,0,.68-.23h0c.2-.08.43-.17.65-.28h0a3.77,3.77,0,0,0,.45-.23l.17-.11c.17-.11.37-.23.6-.4a4.09,4.09,0,0,0,.56-.45h0c.2-.17.37-.34.54-.51a5.65,5.65,0,0,0,.4-.48l.06-.08a4.44,4.44,0,0,0,.39-.63,5.93,5.93,0,0,0,.31-.68h0c.09-.19.17-.45.26-.7s.11-.46.17-.71l0-.09c.05-.25.08-.56.11-.84Z" fill="#fefefe"/><path d="M453.77,208a9,9,0,0,0,0-.91V142.87a7.68,7.68,0,0,0,0-.85h0l-.08-.68h0l0-.14c-.06-.29-.11-.54-.17-.77l-.26-.73h0a4.6,4.6,0,0,0-.31-.68,7.18,7.18,0,0,0-.39-.63l-.14-.19a2.73,2.73,0,0,0-.32-.37,1.82,1.82,0,0,0-.31-.31l-.25-.23c-.2-.17-.37-.31-.57-.45s-.39-.29-.62-.43h0c-.23-.14-.45-.25-.62-.34a4.71,4.71,0,0,0-.65-.28,6.81,6.81,0,0,0-.68-.23l-.71-.17h0c-.23,0-.48-.08-.74-.08h0a5.94,5.94,0,0,0-.73,0,6.61,6.61,0,0,0-.77,0l-.76.08h0a6,6,0,0,0-.71.15c-.22.05-.45.14-.68.19h0l-.62.26h0a3.78,3.78,0,0,0-.59.34h0a4.87,4.87,0,0,0-.57.39c-.2.15-.37.32-.54.43l0,0a7.39,7.39,0,0,0-.56.56c-.17.2-.34.4-.48.6a6.6,6.6,0,0,0-.43.65l-.34.68c-.08.22-.17.45-.25.73a7.27,7.27,0,0,0-.2.77h0a6.17,6.17,0,0,0-.11.82,7.78,7.78,0,0,0,0,.88v64.18a9,9,0,0,0,0,.91,5.31,5.31,0,0,0,.11.85c.06.25.11.53.2.79h0c.08.28.17.51.25.73a3.93,3.93,0,0,0,.34.68,3.34,3.34,0,0,0,.43.63c.17.22.31.39.48.59h0c.17.17.37.37.56.54l0,0,.51.42a5.77,5.77,0,0,0,.54.37l.59.34c.2.08.4.17.63.25a6.38,6.38,0,0,0,1.35.37,8.42,8.42,0,0,0,1.53.11c.26,0,.51,0,.74,0l.73-.09a5.57,5.57,0,0,0,.71-.14,6,6,0,0,0,.68-.23h0c.2-.08.43-.17.65-.28h0a3.77,3.77,0,0,0,.45-.23l.17-.11c.17-.11.37-.23.6-.4a3.56,3.56,0,0,0,.56-.45h0c.2-.17.37-.34.54-.51a5.65,5.65,0,0,0,.4-.48l.06-.08a4.44,4.44,0,0,0,.39-.63,5.93,5.93,0,0,0,.31-.68h0c.09-.19.17-.45.26-.7s.11-.46.17-.71l0-.09c.05-.25.08-.56.11-.84Z" fill="#fefefe"/><path d="M362.67,194.66h0a4.07,4.07,0,0,1-.68-1.45l-.34-1.47H406.2v-6.28a53.66,53.66,0,0,0-.43-7,40.6,40.6,0,0,0-1.3-6.37h0a37.21,37.21,0,0,0-2.15-5.75,30.79,30.79,0,0,0-3-5.09h0l0,0a25.67,25.67,0,0,0-9.45-8,29.11,29.11,0,0,0-12.76-2.68,43.8,43.8,0,0,0-7.14.56,33.9,33.9,0,0,0-6.25,1.67,27.23,27.23,0,0,0-5.43,2.78,25,25,0,0,0-4.59,3.9,29.66,29.66,0,0,0-6.28,10.42,44.28,44.28,0,0,0-1.56,20.37,34.44,34.44,0,0,0,1.62,6.09,28,28,0,0,0,2.68,5.37,29.65,29.65,0,0,0,3.77,4.7,28.51,28.51,0,0,0,4.64,3.79,28.92,28.92,0,0,0,5.35,2.72,30.37,30.37,0,0,0,6,1.64,39.4,39.4,0,0,0,6.76.54,13.23,13.23,0,0,0,1.84-.14,11.89,11.89,0,0,0,1.58-.37,7.33,7.33,0,0,0,1.36-.62,6.71,6.71,0,0,0,1.11-.88h0a6,6,0,0,0,.87-1.07,6.57,6.57,0,0,0,.63-1.16h0a5.75,5.75,0,0,0,.36-1.28,6.76,6.76,0,0,0,.12-1.38,8.29,8.29,0,0,0-.14-1.45,7.82,7.82,0,0,0-.4-1.33h0a9.23,9.23,0,0,0-.65-1.24,7.17,7.17,0,0,0-.93-1.16h0a7.5,7.5,0,0,0-1.14-1,5.38,5.38,0,0,0-1.33-.68h0a8.77,8.77,0,0,0-1.55-.42,12.74,12.74,0,0,0-1.79-.14,23.47,23.47,0,0,1-4.81-.45,16.74,16.74,0,0,1-4.1-1.36h0a14.47,14.47,0,0,1-2.77-1.79,12.76,12.76,0,0,1-2.24-2.4l0-.06,0-.05Zm27.2-16.16h-30l.25-1.42a14.61,14.61,0,0,1,2.78-6.42,14.28,14.28,0,0,1,5.51-4.33,17.25,17.25,0,0,1,3.54-1.16,16.69,16.69,0,0,1,3.79-.37,16.89,16.89,0,0,1,3.77.42,18.84,18.84,0,0,1,3.51,1.19,14,14,0,0,1,8,10.67l.23,1.39h-1.42Z" fill="#fefefe"/><path d="M262,205.5l21.88-60.88h0v0l.06-.14.08-.25c0-.12.06-.23.09-.32h0v0h0c0-.12.05-.26.08-.37a1.43,1.43,0,0,0,.06-.34h0a2,2,0,0,0,.05-.37l0-.14,0-.2c0-.08,0-.23,0-.37v-.31a6,6,0,0,0,0-.76c0-.26-.06-.51-.11-.74h0c-.06-.23-.12-.48-.2-.71l-.26-.68a3,3,0,0,0-.34-.62,6,6,0,0,0-.39-.59h0c-.17-.2-.31-.4-.48-.57a5.1,5.1,0,0,0-.57-.54l-.25-.19a4.22,4.22,0,0,0-.37-.29,7.35,7.35,0,0,0-.65-.42h0c-.2-.11-.43-.26-.65-.37s-.46-.2-.68-.28l-.12,0a6.31,6.31,0,0,0-.62-.2l-.71-.17h0a3.11,3.11,0,0,0-.76-.08,6.44,6.44,0,0,0-.76,0,8.92,8.92,0,0,0-1.22.08h0c-.37.06-.74.14-1.1.23h0a4.37,4.37,0,0,0-1,.4,6,6,0,0,0-.91.56h0a4.74,4.74,0,0,0-.79.71,6.66,6.66,0,0,0-.71.85,5.12,5.12,0,0,0-.59,1,6.77,6.77,0,0,0-.51,1.19l-.15.39h0l-19.95,55.56-1.13,3.17-1.13-3.17-20-56h0v0l-.17-.43q-.21-.51-.42-.93a7.53,7.53,0,0,0-.51-.82h0a8.63,8.63,0,0,0-.71-.85,7.71,7.71,0,0,0-.82-.71h0l-.23-.17-.22-.14a6.37,6.37,0,0,0-1.76-.71,8.39,8.39,0,0,0-2.12-.25,5.71,5.71,0,0,0-.74,0l-.73.08h0a4,4,0,0,0-.71.17c-.26.09-.48.14-.68.23h0a6.5,6.5,0,0,0-.68.28,6.12,6.12,0,0,0-.56.31l-.09.06-.62.42c-.23.17-.43.32-.63.49a7,7,0,0,0-.56.53h0c-.17.17-.31.37-.48.57h0c-.14.2-.29.4-.4.59s-.22.43-.34.63h0a2.72,2.72,0,0,0-.25.65,6.13,6.13,0,0,0-.2.7h0a4.9,4.9,0,0,0-.11.74,6,6,0,0,0,0,.76V142a1.65,1.65,0,0,0,0,.34h0c0,.15,0,.26,0,.34a2.43,2.43,0,0,0,.06.4,3.18,3.18,0,0,0,.09.37,1.37,1.37,0,0,1,0,.28h.12l.14.93,21.68,61.36a15.44,15.44,0,0,0,.87,2,14.49,14.49,0,0,0,1.11,1.75h0a11,11,0,0,0,1.33,1.48,13.75,13.75,0,0,0,1.55,1.21h0a11.51,11.51,0,0,0,1.81.94,19.5,19.5,0,0,0,2,.68,16.79,16.79,0,0,0,2.29.39,22.66,22.66,0,0,0,2.52.14,22,22,0,0,0,2.52-.14,18.22,18.22,0,0,0,2.29-.39,12.52,12.52,0,0,0,2-.68h0a16.16,16.16,0,0,0,1.81-.94,12.56,12.56,0,0,0,1.56-1.19,13.68,13.68,0,0,0,1.36-1.47l.14-.17a12.43,12.43,0,0,0,1-1.58,15.25,15.25,0,0,0,.88-2l.2-.57h0Z" fill="#e63739"/><path d="M292.54,171.53a8.77,8.77,0,0,1,6.17,2.55h0a8.68,8.68,0,0,1,2.55,6.17,8.77,8.77,0,0,1-2.55,6.17h0a8.65,8.65,0,0,1-6.17,2.55,8.81,8.81,0,0,1-6.17-2.55h0a8.69,8.69,0,0,1-2.55-6.17,8.85,8.85,0,0,1,2.55-6.17h0A8.73,8.73,0,0,1,292.54,171.53Z" fill="#e63739" fill-rule="evenodd"/><path d="M333.86,150.53h16.95l.46,0h0c.11,0,.25,0,.39,0h0a2.74,2.74,0,0,0,.43-.06,3.94,3.94,0,0,1,.42-.08l.37-.09c.06,0,.2-.06.37-.11l.36-.11.34-.15a1.19,1.19,0,0,0,.34-.17l.06,0,.26-.15h0c.11,0,.22-.14.31-.19l.19-.15.12-.08a1.15,1.15,0,0,1,.17-.14h0l.08-.09a1,1,0,0,0,.26-.25c.05-.09.17-.17.25-.28h0a2.45,2.45,0,0,0,.23-.29l.22-.28h0a1.67,1.67,0,0,0,.2-.31c.06-.09.12-.17.2-.31h0a2.48,2.48,0,0,0,.17-.29l.17-.34h0c.09-.17.11-.25.14-.31l.06-.14.06-.17a3,3,0,0,0,.11-.37.86.86,0,0,0,.08-.31h0a2.21,2.21,0,0,0,.09-.37,1.28,1.28,0,0,0,.06-.34h0a3.74,3.74,0,0,1,.05-.39c0-.09,0-.2,0-.37v0a2.08,2.08,0,0,0,0-.37v-.76h0a2,2,0,0,0,0-.37h0c0-.14,0-.25,0-.34h0a3.19,3.19,0,0,0-.05-.37h0c0-.16-.06-.28-.06-.33h0a1.55,1.55,0,0,0-.09-.34h0a2.13,2.13,0,0,0-.08-.32,3.46,3.46,0,0,1-.11-.34h0c0-.11-.09-.22-.12-.31s-.08-.17-.14-.31h0c0-.05-.08-.17-.14-.31h0a2.47,2.47,0,0,0-.2-.31h0c-.06-.09-.11-.17-.17-.28a.86.86,0,0,0-.14-.2h0l0,0,0-.06-.22-.34-.12-.14h0l-.11-.14h0l-.25-.25-.26-.26h0a2.12,2.12,0,0,1-.25-.22l-.29-.23h0a4.72,4.72,0,0,0-.62-.4,4.32,4.32,0,0,0-.68-.31h0l-.37-.14a2.24,2.24,0,0,0-.36-.11h0c-.15,0-.29-.09-.4-.12l-.4-.08h0a2.8,2.8,0,0,0-.42-.06c-.09,0-.23,0-.4,0h0a3.94,3.94,0,0,0-.42,0H297a3.84,3.84,0,0,0-.42,0h0c-.17,0-.29,0-.4,0a3.44,3.44,0,0,0-.42.06h0l-.37.08-.34.09h0c-.14,0-.25.08-.37.11h0l-.2.06-.17,0c-.11,0-.19.09-.34.15l-.34.17a2.16,2.16,0,0,0-.31.19,1.52,1.52,0,0,0-.25.17h0l-.06,0a1.89,1.89,0,0,0-.28.23h0c-.06.06-.14.11-.28.25h0a2.28,2.28,0,0,0-.26.23,2.35,2.35,0,0,0-.25.28l-.12.14-.11.15h0a1.64,1.64,0,0,0-.23.31h0l-.19.31-.09.14-.08.17a1.8,1.8,0,0,0-.17.31h0a2.27,2.27,0,0,0-.17.31l-.09.17-.08.17h0c-.06.11-.09.23-.14.31h0a1.74,1.74,0,0,0-.12.34c0,.09-.05.2-.08.31l-.09.37h0a1.44,1.44,0,0,0-.05.34h0a2.88,2.88,0,0,0-.09.71h0a5.94,5.94,0,0,0,0,.73,6.36,6.36,0,0,0,0,.77c0,.25.06.51.09.73s.05.23.08.37h0l.09.34h0a1,1,0,0,0,.11.34h0c.06.14.08.28.11.34s.09.2.12.31h0a1.4,1.4,0,0,0,.16.34c.06.12.12.23.17.31l.09.17.08.15a1.84,1.84,0,0,1,.17.28c.06.08.12.17.15.2h0l.68.79.14.14a2.91,2.91,0,0,1,.25.25l.09.06h0a1.15,1.15,0,0,0,.17.14l.31.23h0c.08.06.2.11.31.2a1.48,1.48,0,0,1,.28.17h0l.34.17a1.8,1.8,0,0,1,.31.14h0c.12.06.23.08.37.14h0a2.45,2.45,0,0,0,.37.11,1.94,1.94,0,0,1,.39.12l.37.08h0a4.17,4.17,0,0,0,.43.06c.08,0,.22,0,.39,0h0a4,4,0,0,0,.43,0h20.46v57a2.82,2.82,0,0,0,0,.46h0a2.57,2.57,0,0,1,0,.42c0,.11,0,.28.05.42h0c0,.17.06.29.09.4s.05.28.08.4h0a3.09,3.09,0,0,0,.12.37h0c0,.08.08.19.14.36l0,.09a.68.68,0,0,0,.11.25,1.78,1.78,0,0,0,.17.34c0,.09.11.17.17.31s.14.23.2.31h0a2.43,2.43,0,0,0,.22.29h0a1.25,1.25,0,0,1,.23.28l.25.26.29.25.25.23h0a2,2,0,0,0,.31.22h0c.11.09.23.14.28.2l.32.2h0a2.29,2.29,0,0,0,.28.17,1.78,1.78,0,0,0,.34.17h0a2,2,0,0,0,.34.14,1.16,1.16,0,0,0,.31.11h0a1.54,1.54,0,0,0,.34.12c.14,0,.25.08.37.11a1.51,1.51,0,0,0,.36.08,1.2,1.2,0,0,0,.32.06h.05l.77.09c.25,0,.51,0,.76,0h.37a2.93,2.93,0,0,0,.37,0h0c.14,0,.25,0,.34,0h0c.14,0,.25,0,.36-.06h0a1.88,1.88,0,0,0,.34-.06h0l.31-.08a.82.82,0,0,1,.26-.06h0l.28-.08.06,0,.08,0h.06l.31-.11c.09,0,.17-.09.31-.14h0c.09-.06.2-.09.28-.14l.34-.17h0c.12-.06.2-.15.32-.2a2.09,2.09,0,0,1,.31-.2,1.58,1.58,0,0,0,.28-.23,3.08,3.08,0,0,0,.28-.22h0l.29-.26.25-.25c.06-.09.14-.17.23-.29a1.86,1.86,0,0,0,.22-.28h0c.09-.11.14-.2.2-.28a3.15,3.15,0,0,1,.2-.31h0l.17-.34h0l.14-.34,0-.09.08-.25c0-.11.09-.26.12-.37s.08-.25.11-.4a3.91,3.91,0,0,0,.09-.39h0c0-.2.05-.34.05-.43s0-.22,0-.42a2.68,2.68,0,0,0,0-.43v-57H334Z" fill="#fefefe"/></svg>