<?xml version="1.0" encoding="utf-8"?><svg version="1.1" id="Слой_1" xmlns="http://www.w3.org/2000/svg" xmlns:xlink="http://www.w3.org/1999/xlink" x="0px" y="0px" viewBox="0 0 371.3 368.5" style="enable-background:new 0 0 371.3 368.5;" xml:space="preserve"><style type="text/css">.st0{fill:#ff383d;}</style><path class="st0" d="M119.8,7.1h131.1c32.7,0,62.4,13.4,83.9,34.9c21.5,21.5,34.9,51.2,34.9,83.9c0,38.5,0,75.9,0,117.8c0,32.7-13.4,62.4-34.9,83.9c-21.5,21.5-51.2,34.9-83.9,34.9H119.8c-32.7,0-62.4-13.4-83.9-34.9S1,276.5,1,243.7V126C1,93.3,14.4,63.5,35.9,42S87.1,7.1,119.8,7.1z M166.1,47.8c1.1-1.1,2.1-2,3.3-2.7c1.1-0.8,2.3-1.4,3.5-1.9h-53.1c-22.7,0-43.4,9.3-58.4,24.3S37.1,103.2,37.1,126v117.8c0,22.7,9.3,43.4,24.3,58.4s35.7,24.3,58.4,24.3h57c-1.1-0.7-2.2-1.6-3.3-2.7c-1-1-2-2.1-2.7-3.3c-0.8-1.2-1.5-2.4-2-3.7c-0.6-1.3-1-2.7-1.2-4c-0.2-1-0.3-2.1-0.4-3.1v-1.1c0-1.5,0.1-2.9,0.4-4.3c0.3-1.4,0.7-2.7,1.2-4l0.2-0.5c0.5-1.1,1.1-2.1,1.8-3.2c0.8-1.1,1.7-2.2,2.7-3.3l52.9-52.9l0.2,0.2l4.1-4.4l3-3.2l0,0l0.1-0.1l0.1-0.1l0.3-0.3l3.8-3.8l27.1-27.1l0,0l3.4-3.4c1.1-1.1,2.1-2.3,2.9-3.5c0.8-1.3,1.6-2.6,2.1-4c0.6-1.4,1-2.9,1.3-4.3c0.3-1.6,0.5-3,0.5-4.5s-0.2-3-0.5-4.5c-0.3-1.5-0.7-3-1.3-4.4c-0.6-1.4-1.3-2.7-2.1-4c-0.8-1.2-1.7-2.4-2.9-3.5c-1.1-1.1-2.3-2.1-3.5-2.9c-1.2-0.8-2.6-1.6-4-2.1c-1.4-0.6-2.9-1-4.3-1.3c-1.6-0.3-3-0.5-4.5-0.5H250l-0.2,0.2c-0.7,0.1-1.3,0.2-2,0.3c-1.5,0.3-3,0.7-4.3,1.3c-1.4,0.6-2.7,1.3-4,2.1l0,0c-1.2,0.8-2.4,1.7-3.5,2.9l-3.4,3.4l0,0l-1.4,1.4l-2.8,2.7l0,0l-7.5,7.5L181,220.4l-7.5,7.5l0,0l-4.1,4.1l-3.4,3.4c-3.1,3.1-6.5,5.9-10.1,8.3c-3.7,2.5-7.5,4.5-11.4,6.1c-4,1.6-8.2,2.9-12.4,3.8c-4.2,0.8-8.6,1.2-13,1.2s-8.8-0.4-13-1.2c-4.2-0.8-8.4-2.1-12.4-3.8c-3.9-1.6-7.8-3.7-11.4-6.1c-3.6-2.4-7-5.2-10.1-8.3c-3.1-3.1-5.8-6.5-8.3-10.1c-2.5-3.7-4.5-7.5-6.1-11.4c-1.6-4-2.9-8.2-3.8-12.4c-0.8-4.2-1.2-8.6-1.2-13s0.4-8.8,1.2-13c0.8-4.2,2.1-8.4,3.8-12.4c1.6-3.9,3.7-7.8,6.1-11.4c2.4-3.6,5.2-7,8.3-10.1l3.4-3.4l0,0l9.3-9.3l3.4-3.4l4.1-4.1l-4.1-4.1l-3.4-3.4l-4.6-4.6c-1-1-1.9-2.1-2.7-3.3c-0.8-1.2-1.5-2.4-2-3.7c-0.6-1.3-1-2.7-1.2-4.1c-0.3-1.4-0.4-2.8-0.4-4.2l0,0c0-1.5,0.1-2.9,0.4-4.2c0.3-1.4,0.7-2.7,1.2-4c0.5-1.2,1.2-2.5,2-3.7c0.8-1.1,1.7-2.2,2.7-3.3c1.1-1.1,2.1-2,3.3-2.7c1.2-0.8,2.5-1.5,3.7-2c1.1-0.5,2.4-0.9,3.7-1.1c1.2-0.3,2.5-0.4,3.6-0.5l0,0h0.9c1.4,0,2.9,0.1,4.3,0.4c1.3,0.3,2.7,0.7,4,1.2l0.7,0.3c1,0.5,2,1,3,1.7c1.1,0.8,2.2,1.7,3.3,2.7l4.6,4.6l3.4,3.4l4.1,4.1l4.1-4.1l3.4-3.4C141.7,72,153,60.7,166,47.7L166.1,47.8z M102.6,172.2c-1.1,1.1-2.1,2.3-2.9,3.5l0,0c-0.6,0.9-1.1,1.9-1.6,2.8l-0.1,0.1l-0.4,1.1c-0.4,0.9-0.7,1.9-1,3c-0.1,0.3-0.2,0.6-0.2,0.9l-0.6,0.6v2.4v2c0,1.5,0.2,3,0.5,4.5c0.3,1.5,0.7,3,1.3,4.3c0.6,1.4,1.3,2.7,2.1,4l0,0c0.8,1.2,1.7,2.4,2.9,3.5c1.1,1.1,2.3,2.1,3.5,2.9c1.3,0.8,2.6,1.6,4,2.1c1.4,0.6,2.9,1,4.3,1.3c1.6,0.3,3.1,0.5,4.5,0.5c1.5,0,3-0.2,4.5-0.5c1.5-0.3,3-0.7,4.3-1.3c1.3-0.6,2.7-1.3,4-2.1l0,0c1.2-0.8,2.4-1.8,3.5-2.9l3.4-3.4l4.1-4.1l0,0l7.5-7.5l36.5-36.5l0,0l3.4-3.4l15.1-15.1c3.1-3.1,6.5-5.8,10.1-8.3c3.7-2.5,7.5-4.5,11.4-6.1c4-1.6,8.2-2.9,12.4-3.8s8.6-1.2,13-1.2c4.4,0,8.8,0.4,13,1.2s8.4,2.1,12.4,3.8c3.9,1.6,7.8,3.7,11.4,6.1c3.6,2.4,7,5.2,10.1,8.3c3.1,3.1,5.8,6.5,8.3,10.1c2.5,3.7,4.5,7.5,6.1,11.4c1.6,4,2.9,8.2,3.8,12.4s1.2,8.6,1.2,13h0c0,4.4-0.4,8.7-1.3,13c-0.8,4.2-2.1,8.4-3.8,12.4c-1.6,3.9-3.7,7.8-6.1,11.4c-2.4,3.6-5.2,7-8.3,10.1l-3.4,3.4l0,0l-8.3,8.3l-3.4,3.4l-4.1,4.1l4.1,4.1l3.4,3.4l4,4c1,1,1.9,2.1,2.7,3.3c0.8,1.2,1.5,2.4,2,3.7c0.6,1.3,1,2.7,1.2,4c0.2,1.3,0.4,2.8,0.4,4.3s-0.1,2.9-0.4,4.2c-0.3,1.4-0.7,2.7-1.2,4c-0.5,1.2-1.2,2.5-2,3.7c-0.8,1.1-1.7,2.2-2.7,3.3l-0.3,0.3l0,0c-1,0.9-2,1.8-3.1,2.5c-1.1,0.7-2.3,1.3-3.5,1.9c-1.3,0.6-2.7,1-4.1,1.2c-1.4,0.3-2.8,0.4-4.3,0.4H276c-1.4,0-2.8-0.2-4-0.4c-1.3-0.3-2.6-0.7-3.9-1.2l-0.5-0.2c-1.1-0.5-2.1-1.1-3.2-1.8c-1.1-0.8-2.2-1.7-3.3-2.7l-4-4l-3.4-3.4l-4.1-4.1l-4.1,4.1l-3.4,3.4l-37.8,37.8c-1,1-2.1,1.9-3.3,2.7H251c22.7,0,43.4-9.3,58.4-24.3c15-15,24.3-35.7,24.3-58.4c0-42.2,0-79.4,0-117.8c0-22.7-9.3-43.4-24.3-58.4c-15-15-35.7-24.3-58.4-24.3h-61.1c1.1,0.5,2.3,1.1,3.4,1.9c1.1,0.8,2.2,1.7,3.3,2.7c1,1,1.9,2.1,2.7,3.3c0.8,1.2,1.5,2.4,2,3.7c0.6,1.3,1,2.7,1.2,4.1c0.3,1.3,0.4,2.8,0.4,4.2h0c0,1.4-0.1,2.9-0.4,4.3c-0.3,1.3-0.7,2.7-1.2,4c-0.5,1.2-1.1,2.4-1.9,3.5c-0.7,1.1-1.6,2.1-2.5,3.1l0,0l-0.3,0.3l0,0c-31.3,31.3-61.4,61.4-93.9,93.9L102.6,172.2z"/></svg>