<?xml version="1.0" encoding="utf-8"?><svg version="1.1" id="Слой_1" xmlns="http://www.w3.org/2000/svg" xmlns:xlink="http://www.w3.org/1999/xlink" x="0px" y="0px" viewBox="0 0 371.3 368.5" style="enable-background:new 0 0 371.3 368.5;" xml:space="preserve"><style type="text/css">.st0{fill:#ff383d;}</style><path class="st0" d="M119.8,7h131.1c32.7,0,62.4,13.4,83.9,34.9c21.5,21.5,34.9,51.2,34.9,83.9c0,41.8,0,65.6,0,117.8c0,32.7-13.4,62.4-34.9,83.9c-21.5,21.5-51.2,34.9-83.9,34.9H119.8c-32.7,0-62.4-13.4-83.9-34.9C14.4,306.1,1,276.4,1,243.6V125.8c0-32.7,13.4-62.4,34.9-83.9S87.1,7,119.8,7z M109.9,162.8c-0.2,3.5,0,7,0.4,10.5c1,7.8,3.6,15.3,7.5,22c3.9,6.7,9,12.7,15.3,17.5c6,4.6,13,8.1,20.8,10.2c7.8,2.1,15.6,2.5,23.1,1.6l0,0c7.8-1,15.3-3.6,22-7.5c6.7-3.9,12.7-9,17.5-15.3c4.6-6,8.1-13,10.2-20.8c2.1-7.8,2.5-15.6,1.6-23.1l0,0c-1-7.8-3.6-15.3-7.5-22c-3.9-6.7-9-12.7-15.3-17.5c-6-4.6-13-8.1-20.8-10.3c-7.8-2.1-15.6-2.5-23.1-1.6l0,0c-7.5,1-14.6,3.4-21.1,7h0l-0.9,0.5c-6.7,3.9-12.6,9-17.4,15.3c-4.6,6-8.1,13-10.2,20.8c-0.5,2-1,4-1.3,6C110.3,158.4,110,160.6,109.9,162.8L109.9,162.8z M68.4,159.2c0.4-6.6,1.5-13.1,3.3-19.7c3.5-13.2,9.5-25.1,17.4-35.3c8.1-10.6,18.3-19.4,29.7-26c11.4-6.6,24.1-10.9,37.4-12.7c12.8-1.7,26.1-0.9,39.3,2.6c13.2,3.5,25.1,9.5,35.3,17.4c10.6,8.1,19.4,18.3,26,29.7c6.6,11.4,10.9,24.1,12.7,37.3c1.7,12.8,0.9,26.1-2.6,39.3c-1.1,4.3-2.5,8.4-4.2,12.4c-1.6,4-3.5,7.9-5.7,11.6l-1.5,2.7l2.2,2.1l66.3,62.1c6.3-11.6,9.8-24.9,9.8-39c0-48,0-77.1,0-117.8c0-22.7-9.3-43.4-24.3-58.4c-15-15-35.7-24.3-58.4-24.3H119.8c-22.7,0-43.4,9.3-58.4,24.3S37,103.1,37,125.8v117.8c0,22.7,9.3,43.4,24.3,58.4s35.7,24.3,58.4,24.3h131.1c13.8,0,26.8-3.4,38.3-9.5l-66.6-62.4l-2.1-1.9l-2.5,1.4c-11.2,6.2-23.7,10.3-36.7,11.9c-12.5,1.5-25.5,0.7-38.4-2.7c-13.2-3.5-25.1-9.5-35.3-17.4c-10.6-8.1-19.4-18.3-26-29.7s-10.9-24.1-12.7-37.4c-0.8-6.2-1.1-12.5-0.7-18.8C68.4,159.6,68.4,159.2,68.4,159.2L68.4,159.2z"/></svg>